<svg width="41" height="23" viewBox="0 0 41 23" fill="none" xmlns="http://www.w3.org/2000/svg">
<path d="M9.57 6.67C8.79 7.69 7.96 8.8 7.08 10C6.2 11.2 5.46 12.43 4.86 13.69H9.57V6.67ZM13.95 1.21V13.69H16.17V17.35H13.95V22H9.57V17.35H0.6V14.08C1.04 13.2 1.59 12.21 2.25 11.11C2.91 9.99 3.64 8.85 4.44 7.69C5.26 6.51 6.12 5.36 7.02 4.24C7.92 3.12 8.82 2.11 9.72 1.21H13.95ZM23.5308 19.63C23.5308 20.53 23.2408 21.22 22.6608 21.7C22.1008 22.16 21.4608 22.39 20.7408 22.39C20.0208 22.39 19.3708 22.16 18.7908 21.7C18.2308 21.22 17.9508 20.53 17.9508 19.63C17.9508 18.73 18.2308 18.05 18.7908 17.59C19.3708 17.11 20.0208 16.87 20.7408 16.87C21.4608 16.87 22.1008 17.11 22.6608 17.59C23.2408 18.05 23.5308 18.73 23.5308 19.63ZM33.1036 10.84C33.5636 10.84 34.0436 10.8 34.5436 10.72C35.0436 10.62 35.4136 10.49 35.6536 10.33V10.06C35.6536 9.98 35.6536 9.9 35.6536 9.82C35.6736 9.74 35.6836 9.67 35.6836 9.61C35.6636 8.89 35.6036 8.22 35.5036 7.6C35.4036 6.96 35.2336 6.41 34.9936 5.95C34.7536 5.47 34.4236 5.1 34.0036 4.84C33.6036 4.56 33.1036 4.42 32.5036 4.42C32.0236 4.42 31.6036 4.52 31.2436 4.72C30.8836 4.92 30.5936 5.18 30.3736 5.5C30.1536 5.82 29.9836 6.17 29.8636 6.55C29.7636 6.93 29.7136 7.3 29.7136 7.66C29.7136 8.74 29.9736 9.54 30.4936 10.06C31.0336 10.58 31.9036 10.84 33.1036 10.84ZM35.2936 13.75C34.8736 13.95 34.4036 14.1 33.8836 14.2C33.3836 14.28 32.9536 14.32 32.5936 14.32C31.2936 14.32 30.1836 14.17 29.2636 13.87C28.3436 13.55 27.5836 13.11 26.9836 12.55C26.4036 11.97 25.9736 11.28 25.6936 10.48C25.4136 9.68 25.2736 8.8 25.2736 7.84C25.2736 7.04 25.4036 6.22 25.6636 5.38C25.9436 4.54 26.3736 3.78 26.9536 3.1C27.5336 2.4 28.2636 1.83 29.1436 1.39C30.0436 0.929999 31.1236 0.699999 32.3836 0.699999C34.9636 0.699999 36.9036 1.5 38.2036 3.1C39.5236 4.68 40.1836 6.96 40.1836 9.94C40.1836 11.9 39.9236 13.63 39.4036 15.13C38.9036 16.63 38.1136 17.89 37.0336 18.91C35.9736 19.93 34.6136 20.71 32.9536 21.25C31.2936 21.77 29.3236 22.04 27.0436 22.06C27.0236 21.42 26.9936 20.8 26.9536 20.2C26.9136 19.6 26.8736 18.98 26.8336 18.34C27.9736 18.32 29.0036 18.24 29.9236 18.1C30.8436 17.94 31.6536 17.69 32.3536 17.35C33.0536 16.99 33.6436 16.52 34.1236 15.94C34.6236 15.36 35.0136 14.63 35.2936 13.75Z" fill="black"/>
</svg>
