<svg width="123" height="28" viewBox="0 0 123 28" fill="none" xmlns="http://www.w3.org/2000/svg">
<path d="M13.1593 17.542H5.9313L4.7353 21H0.913305L7.4393 2.826H11.6773L18.2033 21H14.3553L13.1593 17.542ZM12.1713 14.63L9.5453 7.038L6.9193 14.63H12.1713ZM28.6246 6.388C30.3406 6.388 31.7273 6.934 32.7846 8.026C33.842 9.10067 34.3706 10.6087 34.3706 12.55V21H30.7306V13.044C30.7306 11.9 30.4446 11.0247 29.8726 10.418C29.3006 9.794 28.5206 9.482 27.5326 9.482C26.5273 9.482 25.73 9.794 25.1406 10.418C24.5686 11.0247 24.2826 11.9 24.2826 13.044V21H20.6426V6.596H24.2826V8.39C24.768 7.766 25.3833 7.28067 26.1286 6.934C26.8913 6.57 27.7233 6.388 28.6246 6.388ZM36.8961 13.746C36.8961 12.29 37.1821 10.9987 37.7541 9.872C38.3434 8.74533 39.1321 7.87867 40.1201 7.272C41.1254 6.66533 42.2434 6.362 43.4741 6.362C44.5488 6.362 45.4848 6.57867 46.2821 7.012C47.0968 7.44533 47.7468 7.99133 48.2321 8.65V6.596H51.8981V21H48.2321V18.894C47.7641 19.57 47.1141 20.1333 46.2821 20.584C45.4674 21.0173 44.5228 21.234 43.4481 21.234C42.2348 21.234 41.1254 20.922 40.1201 20.298C39.1321 19.674 38.3434 18.7987 37.7541 17.672C37.1821 16.528 36.8961 15.2193 36.8961 13.746ZM48.2321 13.798C48.2321 12.914 48.0588 12.16 47.7121 11.536C47.3654 10.8947 46.8974 10.4093 46.3081 10.08C45.7188 9.73333 45.0861 9.56 44.4101 9.56C43.7341 9.56 43.1101 9.72467 42.5381 10.054C41.9661 10.3833 41.4981 10.8687 41.1341 11.51C40.7874 12.134 40.6141 12.8793 40.6141 13.746C40.6141 14.6127 40.7874 15.3753 41.1341 16.034C41.4981 16.6753 41.9661 17.1693 42.5381 17.516C43.1274 17.8627 43.7514 18.036 44.4101 18.036C45.0861 18.036 45.7188 17.8713 46.3081 17.542C46.8974 17.1953 47.3654 16.71 47.7121 16.086C48.0588 15.4447 48.2321 14.682 48.2321 13.798ZM59.0932 1.76V21H55.4532V1.76H59.0932ZM76.4695 6.596L67.5515 27.812H63.6775L66.7975 20.636L61.0255 6.596H65.1075L68.8255 16.658L72.5955 6.596H76.4695ZM82.6697 9.586V16.554C82.6697 17.0393 82.7824 17.3947 83.0077 17.62C83.2504 17.828 83.649 17.932 84.2037 17.932H85.8937V21H83.6057C80.5377 21 79.0037 19.5093 79.0037 16.528V9.586H77.2877V6.596H79.0037V3.034H82.6697V6.596H85.8937V9.586H82.6697ZM90.3578 4.88C89.7164 4.88 89.1791 4.68067 88.7458 4.282C88.3298 3.866 88.1218 3.35467 88.1218 2.748C88.1218 2.14133 88.3298 1.63867 88.7458 1.24C89.1791 0.823999 89.7164 0.615999 90.3578 0.615999C90.9991 0.615999 91.5278 0.823999 91.9438 1.24C92.3771 1.63867 92.5938 2.14133 92.5938 2.748C92.5938 3.35467 92.3771 3.866 91.9438 4.282C91.5278 4.68067 90.9991 4.88 90.3578 4.88ZM92.1518 6.596V21H88.5118V6.596H92.1518ZM94.8121 13.798C94.8121 12.3073 95.1154 11.0073 95.7221 9.898C96.3288 8.77133 97.1694 7.90467 98.2441 7.298C99.3188 6.674 100.549 6.362 101.936 6.362C103.721 6.362 105.195 6.81267 106.356 7.714C107.535 8.598 108.323 9.846 108.722 11.458H104.796C104.588 10.834 104.233 10.3487 103.73 10.002C103.245 9.638 102.638 9.456 101.91 9.456C100.87 9.456 100.047 9.83733 99.4401 10.6C98.8334 11.3453 98.5301 12.4113 98.5301 13.798C98.5301 15.1673 98.8334 16.2333 99.4401 16.996C100.047 17.7413 100.87 18.114 101.91 18.114C103.383 18.114 104.345 17.4553 104.796 16.138H108.722C108.323 17.698 107.535 18.9373 106.356 19.856C105.177 20.7747 103.704 21.234 101.936 21.234C100.549 21.234 99.3188 20.9307 98.2441 20.324C97.1694 19.7 96.3288 18.8333 95.7221 17.724C95.1154 16.5973 94.8121 15.2887 94.8121 13.798ZM116.901 21.234C115.722 21.234 114.665 21.026 113.729 20.61C112.793 20.1767 112.047 19.596 111.493 18.868C110.955 18.14 110.661 17.334 110.609 16.45H114.275C114.344 17.0047 114.613 17.464 115.081 17.828C115.566 18.192 116.164 18.374 116.875 18.374C117.568 18.374 118.105 18.2353 118.487 17.958C118.885 17.6807 119.085 17.3253 119.085 16.892C119.085 16.424 118.842 16.0773 118.357 15.852C117.889 15.6093 117.135 15.3493 116.095 15.072C115.02 14.812 114.136 14.5433 113.443 14.266C112.767 13.9887 112.177 13.564 111.675 12.992C111.189 12.42 110.947 11.6487 110.947 10.678C110.947 9.88067 111.172 9.15267 111.623 8.494C112.091 7.83533 112.749 7.31533 113.599 6.934C114.465 6.55267 115.479 6.362 116.641 6.362C118.357 6.362 119.726 6.79533 120.749 7.662C121.771 8.51133 122.335 9.664 122.439 11.12H118.955C118.903 10.548 118.66 10.0973 118.227 9.768C117.811 9.42133 117.247 9.248 116.537 9.248C115.878 9.248 115.367 9.36933 115.003 9.612C114.656 9.85467 114.483 10.1927 114.483 10.626C114.483 11.1113 114.725 11.484 115.211 11.744C115.696 11.9867 116.45 12.238 117.473 12.498C118.513 12.758 119.371 13.0267 120.047 13.304C120.723 13.5813 121.303 14.0147 121.789 14.604C122.291 15.176 122.551 15.9387 122.569 16.892C122.569 17.724 122.335 18.4693 121.867 19.128C121.416 19.7867 120.757 20.3067 119.891 20.688C119.041 21.052 118.045 21.234 116.901 21.234Z" fill="#040404"/>
</svg>
