<svg width="177" height="67" viewBox="0 0 177 67" fill="none" xmlns="http://www.w3.org/2000/svg">
<path d="M24.5812 17.542H17.3532L16.1572 21H12.3352L18.8612 2.826H23.0992L29.6252 21H25.7772L24.5812 17.542ZM23.5932 14.63L20.9672 7.038L18.3412 14.63H23.5932ZM35.7045 8.676C36.1725 8.01733 36.8138 7.47133 37.6285 7.038C38.4605 6.58733 39.4052 6.362 40.4625 6.362C41.6932 6.362 42.8025 6.66533 43.7905 7.272C44.7958 7.87867 45.5845 8.74533 46.1565 9.872C46.7458 10.9813 47.0405 12.2727 47.0405 13.746C47.0405 15.2193 46.7458 16.528 46.1565 17.672C45.5845 18.7987 44.7958 19.674 43.7905 20.298C42.8025 20.922 41.6932 21.234 40.4625 21.234C39.4052 21.234 38.4692 21.0173 37.6545 20.584C36.8572 20.1507 36.2072 19.6047 35.7045 18.946V27.864H32.0645V6.596H35.7045V8.676ZM43.3225 13.746C43.3225 12.8793 43.1405 12.134 42.7765 11.51C42.4298 10.8687 41.9618 10.3833 41.3725 10.054C40.8005 9.72467 40.1765 9.56 39.5005 9.56C38.8418 9.56 38.2178 9.73333 37.6285 10.08C37.0565 10.4093 36.5885 10.8947 36.2245 11.536C35.8778 12.1773 35.7045 12.9313 35.7045 13.798C35.7045 14.6647 35.8778 15.4187 36.2245 16.06C36.5885 16.7013 37.0565 17.1953 37.6285 17.542C38.2178 17.8713 38.8418 18.036 39.5005 18.036C40.1765 18.036 40.8005 17.8627 41.3725 17.516C41.9618 17.1693 42.4298 16.6753 42.7765 16.034C43.1405 15.3927 43.3225 14.63 43.3225 13.746ZM53.3256 8.676C53.7936 8.01733 54.4349 7.47133 55.2496 7.038C56.0816 6.58733 57.0263 6.362 58.0836 6.362C59.3143 6.362 60.4236 6.66533 61.4116 7.272C62.4169 7.87867 63.2056 8.74533 63.7776 9.872C64.3669 10.9813 64.6616 12.2727 64.6616 13.746C64.6616 15.2193 64.3669 16.528 63.7776 17.672C63.2056 18.7987 62.4169 19.674 61.4116 20.298C60.4236 20.922 59.3143 21.234 58.0836 21.234C57.0263 21.234 56.0903 21.0173 55.2756 20.584C54.4783 20.1507 53.8283 19.6047 53.3256 18.946V27.864H49.6856V6.596H53.3256V8.676ZM60.9436 13.746C60.9436 12.8793 60.7616 12.134 60.3976 11.51C60.0509 10.8687 59.5829 10.3833 58.9936 10.054C58.4216 9.72467 57.7976 9.56 57.1216 9.56C56.4629 9.56 55.8389 9.73333 55.2496 10.08C54.6776 10.4093 54.2096 10.8947 53.8456 11.536C53.4989 12.1773 53.3256 12.9313 53.3256 13.798C53.3256 14.6647 53.4989 15.4187 53.8456 16.06C54.2096 16.7013 54.6776 17.1953 55.2496 17.542C55.8389 17.8713 56.4629 18.036 57.1216 18.036C57.7976 18.036 58.4216 17.8627 58.9936 17.516C59.5829 17.1693 60.0509 16.6753 60.3976 16.034C60.7616 15.3927 60.9436 14.63 60.9436 13.746ZM70.9467 1.76V21H67.3067V1.76H70.9467ZM76.389 4.88C75.7477 4.88 75.2104 4.68067 74.777 4.282C74.361 3.866 74.153 3.35467 74.153 2.748C74.153 2.14133 74.361 1.63867 74.777 1.24C75.2104 0.823999 75.7477 0.615999 76.389 0.615999C77.0304 0.615999 77.559 0.823999 77.975 1.24C78.4084 1.63867 78.625 2.14133 78.625 2.748C78.625 3.35467 78.4084 3.866 77.975 4.282C77.559 4.68067 77.0304 4.88 76.389 4.88ZM78.183 6.596V21H74.543V6.596H78.183ZM80.8434 13.798C80.8434 12.3073 81.1467 11.0073 81.7534 9.898C82.36 8.77133 83.2007 7.90467 84.2754 7.298C85.35 6.674 86.5807 6.362 87.9674 6.362C89.7527 6.362 91.226 6.81267 92.3874 7.714C93.566 8.598 94.3547 9.846 94.7534 11.458H90.8274C90.6194 10.834 90.264 10.3487 89.7614 10.002C89.276 9.638 88.6694 9.456 87.9414 9.456C86.9014 9.456 86.078 9.83733 85.4714 10.6C84.8647 11.3453 84.5614 12.4113 84.5614 13.798C84.5614 15.1673 84.8647 16.2333 85.4714 16.996C86.078 17.7413 86.9014 18.114 87.9414 18.114C89.4147 18.114 90.3767 17.4553 90.8274 16.138H94.7534C94.3547 17.698 93.566 18.9373 92.3874 19.856C91.2087 20.7747 89.7354 21.234 87.9674 21.234C86.5807 21.234 85.35 20.9307 84.2754 20.324C83.2007 19.7 82.36 18.8333 81.7534 17.724C81.1467 16.5973 80.8434 15.2887 80.8434 13.798ZM96.484 13.746C96.484 12.29 96.77 10.9987 97.342 9.872C97.9313 8.74533 98.72 7.87867 99.708 7.272C100.713 6.66533 101.831 6.362 103.062 6.362C104.137 6.362 105.073 6.57867 105.87 7.012C106.685 7.44533 107.335 7.99133 107.82 8.65V6.596H111.486V21H107.82V18.894C107.352 19.57 106.702 20.1333 105.87 20.584C105.055 21.0173 104.111 21.234 103.036 21.234C101.823 21.234 100.713 20.922 99.708 20.298C98.72 19.674 97.9313 18.7987 97.342 17.672C96.77 16.528 96.484 15.2193 96.484 13.746ZM107.82 13.798C107.82 12.914 107.647 12.16 107.3 11.536C106.953 10.8947 106.485 10.4093 105.896 10.08C105.307 9.73333 104.674 9.56 103.998 9.56C103.322 9.56 102.698 9.72467 102.126 10.054C101.554 10.3833 101.086 10.8687 100.722 11.51C100.375 12.134 100.202 12.8793 100.202 13.746C100.202 14.6127 100.375 15.3753 100.722 16.034C101.086 16.6753 101.554 17.1693 102.126 17.516C102.715 17.8627 103.339 18.036 103.998 18.036C104.674 18.036 105.307 17.8713 105.896 17.542C106.485 17.1953 106.953 16.71 107.3 16.086C107.647 15.4447 107.82 14.682 107.82 13.798ZM119.279 9.586V16.554C119.279 17.0393 119.392 17.3947 119.617 17.62C119.86 17.828 120.258 17.932 120.813 17.932H122.503V21H120.215C117.147 21 115.613 19.5093 115.613 16.528V9.586H113.897V6.596H115.613V3.034H119.279V6.596H122.503V9.586H119.279ZM126.967 4.88C126.326 4.88 125.788 4.68067 125.355 4.282C124.939 3.866 124.731 3.35467 124.731 2.748C124.731 2.14133 124.939 1.63867 125.355 1.24C125.788 0.823999 126.326 0.615999 126.967 0.615999C127.608 0.615999 128.137 0.823999 128.553 1.24C128.986 1.63867 129.203 2.14133 129.203 2.748C129.203 3.35467 128.986 3.866 128.553 4.282C128.137 4.68067 127.608 4.88 126.967 4.88ZM128.761 6.596V21H125.121V6.596H128.761ZM138.753 21.234C137.367 21.234 136.119 20.9307 135.009 20.324C133.9 19.7 133.025 18.8247 132.383 17.698C131.759 16.5713 131.447 15.2713 131.447 13.798C131.447 12.3247 131.768 11.0247 132.409 9.898C133.068 8.77133 133.961 7.90467 135.087 7.298C136.214 6.674 137.471 6.362 138.857 6.362C140.244 6.362 141.501 6.674 142.627 7.298C143.754 7.90467 144.638 8.77133 145.279 9.898C145.938 11.0247 146.267 12.3247 146.267 13.798C146.267 15.2713 145.929 16.5713 145.253 17.698C144.595 18.8247 143.693 19.7 142.549 20.324C141.423 20.9307 140.157 21.234 138.753 21.234ZM138.753 18.062C139.412 18.062 140.027 17.906 140.599 17.594C141.189 17.2647 141.657 16.7793 142.003 16.138C142.35 15.4967 142.523 14.7167 142.523 13.798C142.523 12.4287 142.159 11.38 141.431 10.652C140.721 9.90667 139.845 9.534 138.805 9.534C137.765 9.534 136.89 9.90667 136.179 10.652C135.486 11.38 135.139 12.4287 135.139 13.798C135.139 15.1673 135.477 16.2247 136.153 16.97C136.847 17.698 137.713 18.062 138.753 18.062ZM156.92 6.388C158.636 6.388 160.022 6.934 161.08 8.026C162.137 9.10067 162.666 10.6087 162.666 12.55V21H159.026V13.044C159.026 11.9 158.74 11.0247 158.168 10.418C157.596 9.794 156.816 9.482 155.828 9.482C154.822 9.482 154.025 9.794 153.436 10.418C152.864 11.0247 152.578 11.9 152.578 13.044V21H148.938V6.596H152.578V8.39C153.063 7.766 153.678 7.28067 154.424 6.934C155.186 6.57 156.018 6.388 156.92 6.388ZM6.98761 41.852C8.89428 41.852 10.5669 42.2247 12.0056 42.97C13.4616 43.7153 14.5796 44.7813 15.3596 46.168C16.1569 47.5373 16.5556 49.132 16.5556 50.952C16.5556 52.772 16.1569 54.3667 15.3596 55.736C14.5796 57.088 13.4616 58.1367 12.0056 58.882C10.5669 59.6273 8.89428 60 6.98761 60H0.64361V41.852H6.98761ZM6.85761 56.906C8.76428 56.906 10.2376 56.386 11.2776 55.346C12.3176 54.306 12.8376 52.8413 12.8376 50.952C12.8376 49.0627 12.3176 47.5893 11.2776 46.532C10.2376 45.4573 8.76428 44.92 6.85761 44.92H4.28361V56.906H6.85761ZM32.6703 52.486C32.6703 53.006 32.6357 53.474 32.5663 53.89H22.0363C22.123 54.93 22.487 55.7447 23.1283 56.334C23.7697 56.9233 24.5583 57.218 25.4943 57.218C26.8463 57.218 27.8083 56.6373 28.3803 55.476H32.3063C31.8903 56.8627 31.093 58.0067 29.9143 58.908C28.7357 59.792 27.2883 60.234 25.5723 60.234C24.1857 60.234 22.9377 59.9307 21.8283 59.324C20.7363 58.7 19.8783 57.8247 19.2543 56.698C18.6477 55.5713 18.3443 54.2713 18.3443 52.798C18.3443 51.3073 18.6477 49.9987 19.2543 48.872C19.861 47.7453 20.7103 46.8787 21.8023 46.272C22.8943 45.6653 24.151 45.362 25.5723 45.362C26.9417 45.362 28.1637 45.6567 29.2383 46.246C30.3303 46.8353 31.171 47.676 31.7603 48.768C32.367 49.8427 32.6703 51.082 32.6703 52.486ZM28.9003 51.446C28.883 50.51 28.545 49.7647 27.8863 49.21C27.2277 48.638 26.4217 48.352 25.4683 48.352C24.567 48.352 23.8043 48.6293 23.1803 49.184C22.5737 49.7213 22.201 50.4753 22.0623 51.446H28.9003ZM41.3332 56.646L44.9732 45.596H48.8472L43.5172 60H39.0972L33.7932 45.596H37.6932L41.3332 56.646ZM64.2817 52.486C64.2817 53.006 64.247 53.474 64.1777 53.89H53.6477C53.7343 54.93 54.0983 55.7447 54.7397 56.334C55.381 56.9233 56.1697 57.218 57.1057 57.218C58.4577 57.218 59.4197 56.6373 59.9917 55.476H63.9177C63.5017 56.8627 62.7043 58.0067 61.5257 58.908C60.347 59.792 58.8997 60.234 57.1837 60.234C55.797 60.234 54.549 59.9307 53.4397 59.324C52.3477 58.7 51.4897 57.8247 50.8657 56.698C50.259 55.5713 49.9557 54.2713 49.9557 52.798C49.9557 51.3073 50.259 49.9987 50.8657 48.872C51.4723 47.7453 52.3217 46.8787 53.4137 46.272C54.5057 45.6653 55.7623 45.362 57.1837 45.362C58.553 45.362 59.775 45.6567 60.8497 46.246C61.9417 46.8353 62.7823 47.676 63.3717 48.768C63.9783 49.8427 64.2817 51.082 64.2817 52.486ZM60.5117 51.446C60.4943 50.51 60.1563 49.7647 59.4977 49.21C58.839 48.638 58.033 48.352 57.0797 48.352C56.1783 48.352 55.4157 48.6293 54.7917 49.184C54.185 49.7213 53.8123 50.4753 53.6737 51.446H60.5117ZM70.5785 40.76V60H66.9385V40.76H70.5785ZM80.5709 60.234C79.1842 60.234 77.9362 59.9307 76.8269 59.324C75.7175 58.7 74.8422 57.8247 74.2009 56.698C73.5769 55.5713 73.2649 54.2713 73.2649 52.798C73.2649 51.3247 73.5855 50.0247 74.2269 48.898C74.8855 47.7713 75.7782 46.9047 76.9049 46.298C78.0315 45.674 79.2882 45.362 80.6749 45.362C82.0615 45.362 83.3182 45.674 84.4449 46.298C85.5715 46.9047 86.4555 47.7713 87.0969 48.898C87.7555 50.0247 88.0849 51.3247 88.0849 52.798C88.0849 54.2713 87.7469 55.5713 87.0709 56.698C86.4122 57.8247 85.5109 58.7 84.3669 59.324C83.2402 59.9307 81.9749 60.234 80.5709 60.234ZM80.5709 57.062C81.2295 57.062 81.8449 56.906 82.4169 56.594C83.0062 56.2647 83.4742 55.7793 83.8209 55.138C84.1675 54.4967 84.3409 53.7167 84.3409 52.798C84.3409 51.4287 83.9769 50.38 83.2489 49.652C82.5382 48.9067 81.6629 48.534 80.6229 48.534C79.5829 48.534 78.7075 48.9067 77.9969 49.652C77.3035 50.38 76.9569 51.4287 76.9569 52.798C76.9569 54.1673 77.2949 55.2247 77.9709 55.97C78.6642 56.698 79.5309 57.062 80.5709 57.062ZM94.3949 47.676C94.8629 47.0173 95.5043 46.4713 96.3189 46.038C97.1509 45.5873 98.0956 45.362 99.1529 45.362C100.384 45.362 101.493 45.6653 102.481 46.272C103.486 46.8787 104.275 47.7453 104.847 48.872C105.436 49.9813 105.731 51.2727 105.731 52.746C105.731 54.2193 105.436 55.528 104.847 56.672C104.275 57.7987 103.486 58.674 102.481 59.298C101.493 59.922 100.384 60.234 99.1529 60.234C98.0956 60.234 97.1596 60.0173 96.3449 59.584C95.5476 59.1507 94.8976 58.6047 94.3949 57.946V66.864H90.7549V45.596H94.3949V47.676ZM102.013 52.746C102.013 51.8793 101.831 51.134 101.467 50.51C101.12 49.8687 100.652 49.3833 100.063 49.054C99.4909 48.7247 98.8669 48.56 98.1909 48.56C97.5323 48.56 96.9083 48.7333 96.3189 49.08C95.7469 49.4093 95.2789 49.8947 94.9149 50.536C94.5683 51.1773 94.3949 51.9313 94.3949 52.798C94.3949 53.6647 94.5683 54.4187 94.9149 55.06C95.2789 55.7013 95.7469 56.1953 96.3189 56.542C96.9083 56.8713 97.5323 57.036 98.1909 57.036C98.8669 57.036 99.4909 56.8627 100.063 56.516C100.652 56.1693 101.12 55.6753 101.467 55.034C101.831 54.3927 102.013 53.63 102.013 52.746ZM126.264 45.388C128.032 45.388 129.453 45.934 130.528 47.026C131.62 48.1007 132.166 49.6087 132.166 51.55V60H128.526V52.044C128.526 50.9173 128.24 50.0593 127.668 49.47C127.096 48.8633 126.316 48.56 125.328 48.56C124.34 48.56 123.551 48.8633 122.962 49.47C122.39 50.0593 122.104 50.9173 122.104 52.044V60H118.464V52.044C118.464 50.9173 118.178 50.0593 117.606 49.47C117.034 48.8633 116.254 48.56 115.266 48.56C114.261 48.56 113.463 48.8633 112.874 49.47C112.302 50.0593 112.016 50.9173 112.016 52.044V60H108.376V45.596H112.016V47.338C112.484 46.7313 113.082 46.2547 113.81 45.908C114.555 45.5613 115.37 45.388 116.254 45.388C117.381 45.388 118.386 45.6307 119.27 46.116C120.154 46.584 120.839 47.26 121.324 48.144C121.792 47.312 122.468 46.6447 123.352 46.142C124.253 45.6393 125.224 45.388 126.264 45.388ZM149.01 52.486C149.01 53.006 148.976 53.474 148.906 53.89H138.376C138.463 54.93 138.827 55.7447 139.468 56.334C140.11 56.9233 140.898 57.218 141.834 57.218C143.186 57.218 144.148 56.6373 144.72 55.476H148.646C148.23 56.8627 147.433 58.0067 146.254 58.908C145.076 59.792 143.628 60.234 141.912 60.234C140.526 60.234 139.278 59.9307 138.168 59.324C137.076 58.7 136.218 57.8247 135.594 56.698C134.988 55.5713 134.684 54.2713 134.684 52.798C134.684 51.3073 134.988 49.9987 135.594 48.872C136.201 47.7453 137.05 46.8787 138.142 46.272C139.234 45.6653 140.491 45.362 141.912 45.362C143.282 45.362 144.504 45.6567 145.578 46.246C146.67 46.8353 147.511 47.676 148.1 48.768C148.707 49.8427 149.01 51.082 149.01 52.486ZM145.24 51.446C145.223 50.51 144.885 49.7647 144.226 49.21C143.568 48.638 142.762 48.352 141.808 48.352C140.907 48.352 140.144 48.6293 139.52 49.184C138.914 49.7213 138.541 50.4753 138.402 51.446H145.24ZM159.649 45.388C161.365 45.388 162.752 45.934 163.809 47.026C164.866 48.1007 165.395 49.6087 165.395 51.55V60H161.755V52.044C161.755 50.9 161.469 50.0247 160.897 49.418C160.325 48.794 159.545 48.482 158.557 48.482C157.552 48.482 156.754 48.794 156.165 49.418C155.593 50.0247 155.307 50.9 155.307 52.044V60H151.667V45.596H155.307V47.39C155.792 46.766 156.408 46.2807 157.153 45.934C157.916 45.57 158.748 45.388 159.649 45.388ZM173.095 48.586V55.554C173.095 56.0393 173.207 56.3947 173.433 56.62C173.675 56.828 174.074 56.932 174.629 56.932H176.319V60H174.031C170.963 60 169.429 58.5093 169.429 55.528V48.586H167.713V45.596H169.429V42.034H173.095V45.596H176.319V48.586H173.095Z" fill="#040404"/>
</svg>
