<svg width="177" height="66" viewBox="0 0 177 66" fill="none" xmlns="http://www.w3.org/2000/svg">
<path d="M39.9228 10.692C40.9454 10.8827 41.7861 11.394 42.4448 12.226C43.1034 13.058 43.4328 14.0113 43.4328 15.086C43.4328 16.0567 43.1901 16.9147 42.7048 17.66C42.2368 18.388 41.5521 18.96 40.6508 19.376C39.7494 19.792 38.6834 20 37.4528 20H29.6268V1.852H37.1148C38.3454 1.852 39.4028 2.05133 40.2868 2.45C41.1881 2.84867 41.8641 3.40333 42.3148 4.114C42.7828 4.82467 43.0168 5.63067 43.0168 6.532C43.0168 7.58933 42.7308 8.47333 42.1588 9.184C41.6041 9.89467 40.8588 10.3973 39.9228 10.692ZM33.2668 9.34H36.5948C37.4614 9.34 38.1288 9.14933 38.5968 8.768C39.0648 8.36933 39.2988 7.806 39.2988 7.078C39.2988 6.35 39.0648 5.78667 38.5968 5.388C38.1288 4.98933 37.4614 4.79 36.5948 4.79H33.2668V9.34ZM36.9328 17.036C37.8168 17.036 38.5014 16.828 38.9868 16.412C39.4894 15.996 39.7408 15.4067 39.7408 14.644C39.7408 13.864 39.4808 13.2573 38.9608 12.824C38.4408 12.3733 37.7388 12.148 36.8548 12.148H33.2668V17.036H36.9328ZM45.3978 12.746C45.3978 11.29 45.6838 9.99867 46.2558 8.872C46.8451 7.74533 47.6338 6.87867 48.6218 6.272C49.6271 5.66533 50.7451 5.362 51.9758 5.362C53.0505 5.362 53.9865 5.57867 54.7838 6.012C55.5985 6.44533 56.2485 6.99133 56.7338 7.65V5.596H60.3998V20H56.7338V17.894C56.2658 18.57 55.6158 19.1333 54.7838 19.584C53.9691 20.0173 53.0245 20.234 51.9498 20.234C50.7365 20.234 49.6271 19.922 48.6218 19.298C47.6338 18.674 46.8451 17.7987 46.2558 16.672C45.6838 15.528 45.3978 14.2193 45.3978 12.746ZM56.7338 12.798C56.7338 11.914 56.5605 11.16 56.2138 10.536C55.8671 9.89467 55.3991 9.40933 54.8098 9.08C54.2205 8.73333 53.5878 8.56 52.9118 8.56C52.2358 8.56 51.6118 8.72467 51.0398 9.054C50.4678 9.38333 49.9998 9.86867 49.6358 10.51C49.2891 11.134 49.1158 11.8793 49.1158 12.746C49.1158 13.6127 49.2891 14.3753 49.6358 15.034C49.9998 15.6753 50.4678 16.1693 51.0398 16.516C51.6291 16.8627 52.2531 17.036 52.9118 17.036C53.5878 17.036 54.2205 16.8713 54.8098 16.542C55.3991 16.1953 55.8671 15.71 56.2138 15.086C56.5605 14.4447 56.7338 13.682 56.7338 12.798ZM63.0189 12.798C63.0189 11.3073 63.3222 10.0073 63.9289 8.898C64.5356 7.77133 65.3762 6.90467 66.4509 6.298C67.5256 5.674 68.7562 5.362 70.1429 5.362C71.9282 5.362 73.4016 5.81267 74.5629 6.714C75.7416 7.598 76.5302 8.846 76.9289 10.458H73.0029C72.7949 9.834 72.4396 9.34867 71.9369 9.002C71.4516 8.638 70.8449 8.456 70.1169 8.456C69.0769 8.456 68.2536 8.83733 67.6469 9.6C67.0402 10.3453 66.7369 11.4113 66.7369 12.798C66.7369 14.1673 67.0402 15.2333 67.6469 15.996C68.2536 16.7413 69.0769 17.114 70.1169 17.114C71.5902 17.114 72.5522 16.4553 73.0029 15.138H76.9289C76.5302 16.698 75.7416 17.9373 74.5629 18.856C73.3842 19.7747 71.9109 20.234 70.1429 20.234C68.7562 20.234 67.5256 19.9307 66.4509 19.324C65.3762 18.7 64.5356 17.8333 63.9289 16.724C63.3222 15.5973 63.0189 14.2887 63.0189 12.798ZM88.1235 20L83.2355 13.864V20H79.5955V0.76H83.2355V11.706L88.0715 5.596H92.8035L86.4595 12.824L92.8555 20H88.1235ZM104.614 4.79V9.34H110.724V12.226H104.614V17.036H111.504V20H100.974V1.826H111.504V4.79H104.614ZM122.794 5.388C124.51 5.388 125.897 5.934 126.954 7.026C128.012 8.10067 128.54 9.60867 128.54 11.55V20H124.9V12.044C124.9 10.9 124.614 10.0247 124.042 9.418C123.47 8.794 122.69 8.482 121.702 8.482C120.697 8.482 119.9 8.794 119.31 9.418C118.738 10.0247 118.452 10.9 118.452 12.044V20H114.812V5.596H118.452V7.39C118.938 6.766 119.553 6.28067 120.298 5.934C121.061 5.57 121.893 5.388 122.794 5.388ZM131.066 12.746C131.066 11.29 131.352 9.99867 131.924 8.872C132.513 7.74533 133.31 6.87867 134.316 6.272C135.321 5.66533 136.439 5.362 137.67 5.362C138.606 5.362 139.498 5.57 140.348 5.986C141.197 6.38467 141.873 6.922 142.376 7.598V0.76H146.068V20H142.376V17.868C141.925 18.5787 141.292 19.1507 140.478 19.584C139.663 20.0173 138.718 20.234 137.644 20.234C136.43 20.234 135.321 19.922 134.316 19.298C133.31 18.674 132.513 17.7987 131.924 16.672C131.352 15.528 131.066 14.2193 131.066 12.746ZM142.402 12.798C142.402 11.914 142.228 11.16 141.882 10.536C141.535 9.89467 141.067 9.40933 140.478 9.08C139.888 8.73333 139.256 8.56 138.58 8.56C137.904 8.56 137.28 8.72467 136.708 9.054C136.136 9.38333 135.668 9.86867 135.304 10.51C134.957 11.134 134.784 11.8793 134.784 12.746C134.784 13.6127 134.957 14.3753 135.304 15.034C135.668 15.6753 136.136 16.1693 136.708 16.516C137.297 16.8627 137.921 17.036 138.58 17.036C139.256 17.036 139.888 16.8713 140.478 16.542C141.067 16.1953 141.535 15.71 141.882 15.086C142.228 14.4447 142.402 13.682 142.402 12.798ZM6.82233 40.852C8.72899 40.852 10.4017 41.2247 11.8403 41.97C13.2963 42.7153 14.4143 43.7813 15.1943 45.168C15.9917 46.5373 16.3903 48.132 16.3903 49.952C16.3903 51.772 15.9917 53.3667 15.1943 54.736C14.4143 56.088 13.2963 57.1367 11.8403 57.882C10.4017 58.6273 8.72899 59 6.82233 59H0.478326V40.852H6.82233ZM6.69233 55.906C8.59899 55.906 10.0723 55.386 11.1123 54.346C12.1523 53.306 12.6723 51.8413 12.6723 49.952C12.6723 48.0627 12.1523 46.5893 11.1123 45.532C10.0723 44.4573 8.59899 43.92 6.69233 43.92H4.11833V55.906H6.69233ZM32.505 51.486C32.505 52.006 32.4704 52.474 32.401 52.89H21.871C21.9577 53.93 22.3217 54.7447 22.963 55.334C23.6044 55.9233 24.393 56.218 25.329 56.218C26.681 56.218 27.643 55.6373 28.215 54.476H32.141C31.725 55.8627 30.9277 57.0067 29.749 57.908C28.5704 58.792 27.123 59.234 25.407 59.234C24.0204 59.234 22.7724 58.9307 21.663 58.324C20.571 57.7 19.713 56.8247 19.089 55.698C18.4824 54.5713 18.179 53.2713 18.179 51.798C18.179 50.3073 18.4824 48.9987 19.089 47.872C19.6957 46.7453 20.545 45.8787 21.637 45.272C22.729 44.6653 23.9857 44.362 25.407 44.362C26.7764 44.362 27.9984 44.6567 29.073 45.246C30.165 45.8353 31.0057 46.676 31.595 47.768C32.2017 48.8427 32.505 50.082 32.505 51.486ZM28.735 50.446C28.7177 49.51 28.3797 48.7647 27.721 48.21C27.0624 47.638 26.2564 47.352 25.303 47.352C24.4017 47.352 23.639 47.6293 23.015 48.184C22.4084 48.7213 22.0357 49.4753 21.897 50.446H28.735ZM41.1679 55.646L44.8079 44.596H48.6819L43.3519 59H38.9319L33.6279 44.596H37.5279L41.1679 55.646ZM64.1164 51.486C64.1164 52.006 64.0817 52.474 64.0124 52.89H53.4824C53.569 53.93 53.933 54.7447 54.5744 55.334C55.2157 55.9233 56.0044 56.218 56.9404 56.218C58.2924 56.218 59.2544 55.6373 59.8264 54.476H63.7524C63.3364 55.8627 62.539 57.0067 61.3604 57.908C60.1817 58.792 58.7344 59.234 57.0184 59.234C55.6317 59.234 54.3837 58.9307 53.2744 58.324C52.1824 57.7 51.3244 56.8247 50.7004 55.698C50.0937 54.5713 49.7904 53.2713 49.7904 51.798C49.7904 50.3073 50.0937 48.9987 50.7004 47.872C51.307 46.7453 52.1564 45.8787 53.2484 45.272C54.3404 44.6653 55.597 44.362 57.0184 44.362C58.3877 44.362 59.6097 44.6567 60.6844 45.246C61.7764 45.8353 62.617 46.676 63.2064 47.768C63.813 48.8427 64.1164 50.082 64.1164 51.486ZM60.3464 50.446C60.329 49.51 59.991 48.7647 59.3324 48.21C58.6737 47.638 57.8677 47.352 56.9144 47.352C56.013 47.352 55.2504 47.6293 54.6264 48.184C54.0197 48.7213 53.647 49.4753 53.5084 50.446H60.3464ZM70.4132 39.76V59H66.7732V39.76H70.4132ZM80.4056 59.234C79.0189 59.234 77.7709 58.9307 76.6616 58.324C75.5522 57.7 74.6769 56.8247 74.0356 55.698C73.4116 54.5713 73.0996 53.2713 73.0996 51.798C73.0996 50.3247 73.4202 49.0247 74.0616 47.898C74.7202 46.7713 75.6129 45.9047 76.7396 45.298C77.8662 44.674 79.1229 44.362 80.5096 44.362C81.8962 44.362 83.1529 44.674 84.2796 45.298C85.4062 45.9047 86.2902 46.7713 86.9316 47.898C87.5902 49.0247 87.9196 50.3247 87.9196 51.798C87.9196 53.2713 87.5816 54.5713 86.9056 55.698C86.2469 56.8247 85.3456 57.7 84.2016 58.324C83.0749 58.9307 81.8096 59.234 80.4056 59.234ZM80.4056 56.062C81.0642 56.062 81.6796 55.906 82.2516 55.594C82.8409 55.2647 83.3089 54.7793 83.6556 54.138C84.0022 53.4967 84.1756 52.7167 84.1756 51.798C84.1756 50.4287 83.8116 49.38 83.0836 48.652C82.3729 47.9067 81.4976 47.534 80.4576 47.534C79.4176 47.534 78.5422 47.9067 77.8316 48.652C77.1382 49.38 76.7916 50.4287 76.7916 51.798C76.7916 53.1673 77.1296 54.2247 77.8056 54.97C78.4989 55.698 79.3656 56.062 80.4056 56.062ZM94.2297 46.676C94.6977 46.0173 95.339 45.4713 96.1537 45.038C96.9857 44.5873 97.9303 44.362 98.9877 44.362C100.218 44.362 101.328 44.6653 102.316 45.272C103.321 45.8787 104.11 46.7453 104.682 47.872C105.271 48.9813 105.566 50.2727 105.566 51.746C105.566 53.2193 105.271 54.528 104.682 55.672C104.11 56.7987 103.321 57.674 102.316 58.298C101.328 58.922 100.218 59.234 98.9877 59.234C97.9303 59.234 96.9943 59.0173 96.1797 58.584C95.3823 58.1507 94.7323 57.6047 94.2297 56.946V65.864H90.5897V44.596H94.2297V46.676ZM101.848 51.746C101.848 50.8793 101.666 50.134 101.302 49.51C100.955 48.8687 100.487 48.3833 99.8977 48.054C99.3257 47.7247 98.7017 47.56 98.0257 47.56C97.367 47.56 96.743 47.7333 96.1537 48.08C95.5817 48.4093 95.1137 48.8947 94.7497 49.536C94.403 50.1773 94.2297 50.9313 94.2297 51.798C94.2297 52.6647 94.403 53.4187 94.7497 54.06C95.1137 54.7013 95.5817 55.1953 96.1537 55.542C96.743 55.8713 97.367 56.036 98.0257 56.036C98.7017 56.036 99.3257 55.8627 99.8977 55.516C100.487 55.1693 100.955 54.6753 101.302 54.034C101.666 53.3927 101.848 52.63 101.848 51.746ZM126.099 44.388C127.867 44.388 129.288 44.934 130.363 46.026C131.455 47.1007 132.001 48.6087 132.001 50.55V59H128.361V51.044C128.361 49.9173 128.075 49.0593 127.503 48.47C126.931 47.8633 126.151 47.56 125.163 47.56C124.175 47.56 123.386 47.8633 122.797 48.47C122.225 49.0593 121.939 49.9173 121.939 51.044V59H118.299V51.044C118.299 49.9173 118.013 49.0593 117.441 48.47C116.869 47.8633 116.089 47.56 115.101 47.56C114.095 47.56 113.298 47.8633 112.709 48.47C112.137 49.0593 111.851 49.9173 111.851 51.044V59H108.211V44.596H111.851V46.338C112.319 45.7313 112.917 45.2547 113.645 44.908C114.39 44.5613 115.205 44.388 116.089 44.388C117.215 44.388 118.221 44.6307 119.105 45.116C119.989 45.584 120.673 46.26 121.159 47.144C121.627 46.312 122.303 45.6447 123.187 45.142C124.088 44.6393 125.059 44.388 126.099 44.388ZM148.845 51.486C148.845 52.006 148.81 52.474 148.741 52.89H138.211C138.298 53.93 138.662 54.7447 139.303 55.334C139.944 55.9233 140.733 56.218 141.669 56.218C143.021 56.218 143.983 55.6373 144.555 54.476H148.481C148.065 55.8627 147.268 57.0067 146.089 57.908C144.91 58.792 143.463 59.234 141.747 59.234C140.36 59.234 139.112 58.9307 138.003 58.324C136.911 57.7 136.053 56.8247 135.429 55.698C134.822 54.5713 134.519 53.2713 134.519 51.798C134.519 50.3073 134.822 48.9987 135.429 47.872C136.036 46.7453 136.885 45.8787 137.977 45.272C139.069 44.6653 140.326 44.362 141.747 44.362C143.116 44.362 144.338 44.6567 145.413 45.246C146.505 45.8353 147.346 46.676 147.935 47.768C148.542 48.8427 148.845 50.082 148.845 51.486ZM145.075 50.446C145.058 49.51 144.72 48.7647 144.061 48.21C143.402 47.638 142.596 47.352 141.643 47.352C140.742 47.352 139.979 47.6293 139.355 48.184C138.748 48.7213 138.376 49.4753 138.237 50.446H145.075ZM159.484 44.388C161.2 44.388 162.586 44.934 163.644 46.026C164.701 47.1007 165.23 48.6087 165.23 50.55V59H161.59V51.044C161.59 49.9 161.304 49.0247 160.732 48.418C160.16 47.794 159.38 47.482 158.392 47.482C157.386 47.482 156.589 47.794 156 48.418C155.428 49.0247 155.142 49.9 155.142 51.044V59H151.502V44.596H155.142V46.39C155.627 45.766 156.242 45.2807 156.988 44.934C157.75 44.57 158.582 44.388 159.484 44.388ZM172.929 47.586V54.554C172.929 55.0393 173.042 55.3947 173.267 55.62C173.51 55.828 173.909 55.932 174.463 55.932H176.153V59H173.865C170.797 59 169.263 57.5093 169.263 54.528V47.586H167.547V44.596H169.263V41.034H172.929V44.596H176.153V47.586H172.929Z" fill="#040404"/>
</svg>
