<svg width="147" height="67" viewBox="0 0 147 67" fill="none" xmlns="http://www.w3.org/2000/svg">
<path d="M10.7804 11.692C11.8031 11.8827 12.6438 12.394 13.3024 13.226C13.9611 14.058 14.2904 15.0113 14.2904 16.086C14.2904 17.0567 14.0478 17.9147 13.5624 18.66C13.0944 19.388 12.4098 19.96 11.5084 20.376C10.6071 20.792 9.5411 21 8.31043 21H0.48443V2.852H7.97243C9.2031 2.852 10.2604 3.05133 11.1444 3.45C12.0458 3.84867 12.7218 4.40333 13.1724 5.114C13.6404 5.82467 13.8744 6.63067 13.8744 7.532C13.8744 8.58933 13.5884 9.47333 13.0164 10.184C12.4618 10.8947 11.7164 11.3973 10.7804 11.692ZM4.12443 10.34H7.45243C8.3191 10.34 8.98643 10.1493 9.45443 9.768C9.92243 9.36933 10.1564 8.806 10.1564 8.078C10.1564 7.35 9.92243 6.78667 9.45443 6.388C8.98643 5.98933 8.3191 5.79 7.45243 5.79H4.12443V10.34ZM7.79043 18.036C8.67443 18.036 9.3591 17.828 9.84443 17.412C10.3471 16.996 10.5984 16.4067 10.5984 15.644C10.5984 14.864 10.3384 14.2573 9.81843 13.824C9.29843 13.3733 8.59643 13.148 7.71243 13.148H4.12443V18.036H7.79043ZM16.2555 13.746C16.2555 12.29 16.5415 10.9987 17.1135 9.872C17.7028 8.74533 18.4915 7.87867 19.4795 7.272C20.4848 6.66533 21.6028 6.362 22.8335 6.362C23.9081 6.362 24.8441 6.57867 25.6415 7.012C26.4561 7.44533 27.1061 7.99133 27.5915 8.65V6.596H31.2575V21H27.5915V18.894C27.1235 19.57 26.4735 20.1333 25.6415 20.584C24.8268 21.0173 23.8821 21.234 22.8075 21.234C21.5941 21.234 20.4848 20.922 19.4795 20.298C18.4915 19.674 17.7028 18.7987 17.1135 17.672C16.5415 16.528 16.2555 15.2193 16.2555 13.746ZM27.5915 13.798C27.5915 12.914 27.4181 12.16 27.0715 11.536C26.7248 10.8947 26.2568 10.4093 25.6675 10.08C25.0781 9.73333 24.4455 9.56 23.7695 9.56C23.0935 9.56 22.4695 9.72467 21.8975 10.054C21.3255 10.3833 20.8575 10.8687 20.4935 11.51C20.1468 12.134 19.9735 12.8793 19.9735 13.746C19.9735 14.6127 20.1468 15.3753 20.4935 16.034C20.8575 16.6753 21.3255 17.1693 21.8975 17.516C22.4868 17.8627 23.1108 18.036 23.7695 18.036C24.4455 18.036 25.0781 17.8713 25.6675 17.542C26.2568 17.1953 26.7248 16.71 27.0715 16.086C27.4181 15.4447 27.5915 14.682 27.5915 13.798ZM33.8766 13.798C33.8766 12.3073 34.1799 11.0073 34.7866 9.898C35.3932 8.77133 36.2339 7.90467 37.3086 7.298C38.3832 6.674 39.6139 6.362 41.0006 6.362C42.7859 6.362 44.2592 6.81267 45.4206 7.714C46.5992 8.598 47.3879 9.846 47.7866 11.458H43.8606C43.6526 10.834 43.2972 10.3487 42.7946 10.002C42.3092 9.638 41.7026 9.456 40.9746 9.456C39.9346 9.456 39.1112 9.83733 38.5046 10.6C37.8979 11.3453 37.5946 12.4113 37.5946 13.798C37.5946 15.1673 37.8979 16.2333 38.5046 16.996C39.1112 17.7413 39.9346 18.114 40.9746 18.114C42.4479 18.114 43.4099 17.4553 43.8606 16.138H47.7866C47.3879 17.698 46.5992 18.9373 45.4206 19.856C44.2419 20.7747 42.7686 21.234 41.0006 21.234C39.6139 21.234 38.3832 20.9307 37.3086 20.324C36.2339 19.7 35.3932 18.8333 34.7866 17.724C34.1799 16.5973 33.8766 15.2887 33.8766 13.798ZM58.9812 21L54.0932 14.864V21H50.4532V1.76H54.0932V12.706L58.9292 6.596H63.6612L57.3172 13.824L63.7132 21H58.9812ZM80.2561 21.182C78.5574 21.182 76.9974 20.7833 75.5761 19.986C74.1548 19.1887 73.0281 18.088 72.1961 16.684C71.3641 15.2627 70.9481 13.6593 70.9481 11.874C70.9481 10.106 71.3641 8.52 72.1961 7.116C73.0281 5.69467 74.1548 4.58533 75.5761 3.788C76.9974 2.99067 78.5574 2.592 80.2561 2.592C81.9721 2.592 83.5321 2.99067 84.9361 3.788C86.3574 4.58533 87.4754 5.69467 88.2901 7.116C89.1221 8.52 89.5381 10.106 89.5381 11.874C89.5381 13.6593 89.1221 15.2627 88.2901 16.684C87.4754 18.088 86.3574 19.1887 84.9361 19.986C83.5148 20.7833 81.9548 21.182 80.2561 21.182ZM80.2561 17.932C81.3481 17.932 82.3101 17.6893 83.1421 17.204C83.9741 16.7013 84.6241 15.9907 85.0921 15.072C85.5601 14.1533 85.7941 13.0873 85.7941 11.874C85.7941 10.6607 85.5601 9.60333 85.0921 8.702C84.6241 7.78333 83.9741 7.08133 83.1421 6.596C82.3101 6.11067 81.3481 5.868 80.2561 5.868C79.1641 5.868 78.1934 6.11067 77.3441 6.596C76.5121 7.08133 75.8621 7.78333 75.3941 8.702C74.9261 9.60333 74.6921 10.6607 74.6921 11.874C74.6921 13.0873 74.9261 14.1533 75.3941 15.072C75.8621 15.9907 76.5121 16.7013 77.3441 17.204C78.1934 17.6893 79.1641 17.932 80.2561 17.932ZM98.8501 9.586H96.3281V21H92.6361V9.586H90.9981V6.596H92.6361V5.868C92.6361 4.1 93.1388 2.8 94.1441 1.968C95.1495 1.136 96.6661 0.745999 98.6941 0.798V3.866C97.8101 3.84867 97.1948 3.996 96.8481 4.308C96.5015 4.62 96.3281 5.18333 96.3281 5.998V6.596H98.8501V9.586ZM107.813 9.586H105.291V21H101.599V9.586H99.961V6.596H101.599V5.868C101.599 4.1 102.102 2.8 103.107 1.968C104.112 1.136 105.629 0.745999 107.657 0.798V3.866C106.773 3.84867 106.158 3.996 105.811 4.308C105.464 4.62 105.291 5.18333 105.291 5.998V6.596H107.813V9.586ZM112.018 4.88C111.377 4.88 110.839 4.68067 110.406 4.282C109.99 3.866 109.782 3.35467 109.782 2.748C109.782 2.14133 109.99 1.63867 110.406 1.24C110.839 0.823999 111.377 0.615999 112.018 0.615999C112.659 0.615999 113.188 0.823999 113.604 1.24C114.037 1.63867 114.254 2.14133 114.254 2.748C114.254 3.35467 114.037 3.866 113.604 4.282C113.188 4.68067 112.659 4.88 112.018 4.88ZM113.812 6.596V21H110.172V6.596H113.812ZM116.472 13.798C116.472 12.3073 116.776 11.0073 117.382 9.898C117.989 8.77133 118.83 7.90467 119.904 7.298C120.979 6.674 122.21 6.362 123.596 6.362C125.382 6.362 126.855 6.81267 128.016 7.714C129.195 8.598 129.984 9.846 130.382 11.458H126.456C126.248 10.834 125.893 10.3487 125.39 10.002C124.905 9.638 124.298 9.456 123.57 9.456C122.53 9.456 121.707 9.83733 121.1 10.6C120.494 11.3453 120.19 12.4113 120.19 13.798C120.19 15.1673 120.494 16.2333 121.1 16.996C121.707 17.7413 122.53 18.114 123.57 18.114C125.044 18.114 126.006 17.4553 126.456 16.138H130.382C129.984 17.698 129.195 18.9373 128.016 19.856C126.838 20.7747 125.364 21.234 123.596 21.234C122.21 21.234 120.979 20.9307 119.904 20.324C118.83 19.7 117.989 18.8333 117.382 17.724C116.776 16.5973 116.472 15.2887 116.472 13.798ZM146.439 13.486C146.439 14.006 146.404 14.474 146.335 14.89H135.805C135.892 15.93 136.256 16.7447 136.897 17.334C137.538 17.9233 138.327 18.218 139.263 18.218C140.615 18.218 141.577 17.6373 142.149 16.476H146.075C145.659 17.8627 144.862 19.0067 143.683 19.908C142.504 20.792 141.057 21.234 139.341 21.234C137.954 21.234 136.706 20.9307 135.597 20.324C134.505 19.7 133.647 18.8247 133.023 17.698C132.416 16.5713 132.113 15.2713 132.113 13.798C132.113 12.3073 132.416 10.9987 133.023 9.872C133.63 8.74533 134.479 7.87867 135.571 7.272C136.663 6.66533 137.92 6.362 139.341 6.362C140.71 6.362 141.932 6.65667 143.007 7.246C144.099 7.83533 144.94 8.676 145.529 9.768C146.136 10.8427 146.439 12.082 146.439 13.486ZM142.669 12.446C142.652 11.51 142.314 10.7647 141.655 10.21C140.996 9.638 140.19 9.352 139.237 9.352C138.336 9.352 137.573 9.62933 136.949 10.184C136.342 10.7213 135.97 11.4753 135.831 12.446H142.669ZM28.3325 60.182C27.0671 60.182 25.9231 59.9653 24.9005 59.532C23.8951 59.0987 23.0978 58.4747 22.5085 57.66C21.9191 56.8453 21.6158 55.8833 21.5985 54.774H25.4985C25.5505 55.5193 25.8105 56.1087 26.2785 56.542C26.7638 56.9753 27.4225 57.192 28.2545 57.192C29.1038 57.192 29.7711 56.9927 30.2565 56.594C30.7418 56.178 30.9845 55.6407 30.9845 54.982C30.9845 54.4447 30.8198 54.0027 30.4905 53.656C30.1611 53.3093 29.7451 53.0407 29.2425 52.85C28.7571 52.642 28.0811 52.4167 27.2145 52.174C26.0358 51.8273 25.0738 51.4893 24.3285 51.16C23.6005 50.8133 22.9678 50.302 22.4305 49.626C21.9105 48.9327 21.6505 48.014 21.6505 46.87C21.6505 45.7953 21.9191 44.8593 22.4565 44.062C22.9938 43.2647 23.7478 42.658 24.7185 42.242C25.6891 41.8087 26.7985 41.592 28.0465 41.592C29.9185 41.592 31.4351 42.0513 32.5965 42.97C33.7751 43.8713 34.4251 45.1367 34.5465 46.766H30.5425C30.5078 46.142 30.2391 45.6307 29.7365 45.232C29.2511 44.816 28.6011 44.608 27.7865 44.608C27.0758 44.608 26.5038 44.79 26.0705 45.154C25.6545 45.518 25.4465 46.0467 25.4465 46.74C25.4465 47.2253 25.6025 47.6327 25.9145 47.962C26.2438 48.274 26.6425 48.534 27.1105 48.742C27.5958 48.9327 28.2718 49.158 29.1385 49.418C30.3171 49.7647 31.2791 50.1113 32.0245 50.458C32.7698 50.8047 33.4111 51.3247 33.9485 52.018C34.4858 52.7113 34.7545 53.6213 34.7545 54.748C34.7545 55.7187 34.5031 56.62 34.0005 57.452C33.4978 58.284 32.7611 58.9513 31.7905 59.454C30.8198 59.9393 29.6671 60.182 28.3325 60.182ZM51.5082 45.596V60H47.8422V58.18C47.3742 58.804 46.7589 59.298 45.9962 59.662C45.2509 60.0087 44.4362 60.182 43.5522 60.182C42.4255 60.182 41.4289 59.948 40.5622 59.48C39.6955 58.9947 39.0109 58.2927 38.5082 57.374C38.0229 56.438 37.7802 55.3287 37.7802 54.046V45.596H41.4202V53.526C41.4202 54.67 41.7062 55.554 42.2782 56.178C42.8502 56.7847 43.6302 57.088 44.6182 57.088C45.6235 57.088 46.4122 56.7847 46.9842 56.178C47.5562 55.554 47.8422 54.67 47.8422 53.526V45.596H51.5082ZM58.7397 47.676C59.2077 47.0173 59.849 46.4713 60.6637 46.038C61.4957 45.5873 62.4403 45.362 63.4977 45.362C64.7283 45.362 65.8377 45.6653 66.8257 46.272C67.831 46.8787 68.6197 47.7453 69.1917 48.872C69.781 49.9813 70.0757 51.2727 70.0757 52.746C70.0757 54.2193 69.781 55.528 69.1917 56.672C68.6197 57.7987 67.831 58.674 66.8257 59.298C65.8377 59.922 64.7283 60.234 63.4977 60.234C62.4403 60.234 61.5043 60.0173 60.6897 59.584C59.8923 59.1507 59.2423 58.6047 58.7397 57.946V66.864H55.0997V45.596H58.7397V47.676ZM66.3577 52.746C66.3577 51.8793 66.1757 51.134 65.8117 50.51C65.465 49.8687 64.997 49.3833 64.4077 49.054C63.8357 48.7247 63.2117 48.56 62.5357 48.56C61.877 48.56 61.253 48.7333 60.6637 49.08C60.0917 49.4093 59.6237 49.8947 59.2597 50.536C58.913 51.1773 58.7397 51.9313 58.7397 52.798C58.7397 53.6647 58.913 54.4187 59.2597 55.06C59.6237 55.7013 60.0917 56.1953 60.6637 56.542C61.253 56.8713 61.877 57.036 62.5357 57.036C63.2117 57.036 63.8357 56.8627 64.4077 56.516C64.997 56.1693 65.465 55.6753 65.8117 55.034C66.1757 54.3927 66.3577 53.63 66.3577 52.746ZM76.3608 47.676C76.8288 47.0173 77.4701 46.4713 78.2848 46.038C79.1168 45.5873 80.0614 45.362 81.1188 45.362C82.3494 45.362 83.4588 45.6653 84.4468 46.272C85.4521 46.8787 86.2408 47.7453 86.8128 48.872C87.4021 49.9813 87.6968 51.2727 87.6968 52.746C87.6968 54.2193 87.4021 55.528 86.8128 56.672C86.2408 57.7987 85.4521 58.674 84.4468 59.298C83.4588 59.922 82.3494 60.234 81.1188 60.234C80.0614 60.234 79.1254 60.0173 78.3108 59.584C77.5134 59.1507 76.8634 58.6047 76.3608 57.946V66.864H72.7208V45.596H76.3608V47.676ZM83.9788 52.746C83.9788 51.8793 83.7968 51.134 83.4328 50.51C83.0861 49.8687 82.6181 49.3833 82.0288 49.054C81.4568 48.7247 80.8328 48.56 80.1568 48.56C79.4981 48.56 78.8741 48.7333 78.2848 49.08C77.7128 49.4093 77.2448 49.8947 76.8808 50.536C76.5341 51.1773 76.3608 51.9313 76.3608 52.798C76.3608 53.6647 76.5341 54.4187 76.8808 55.06C77.2448 55.7013 77.7128 56.1953 78.2848 56.542C78.8741 56.8713 79.4981 57.036 80.1568 57.036C80.8328 57.036 81.4568 56.8627 82.0288 56.516C82.6181 56.1693 83.0861 55.6753 83.4328 55.034C83.7968 54.3927 83.9788 53.63 83.9788 52.746ZM96.7379 60.234C95.3512 60.234 94.1032 59.9307 92.9939 59.324C91.8845 58.7 91.0092 57.8247 90.3679 56.698C89.7439 55.5713 89.4319 54.2713 89.4319 52.798C89.4319 51.3247 89.7525 50.0247 90.3939 48.898C91.0525 47.7713 91.9452 46.9047 93.0719 46.298C94.1985 45.674 95.4552 45.362 96.8419 45.362C98.2285 45.362 99.4852 45.674 100.612 46.298C101.739 46.9047 102.623 47.7713 103.264 48.898C103.923 50.0247 104.252 51.3247 104.252 52.798C104.252 54.2713 103.914 55.5713 103.238 56.698C102.579 57.8247 101.678 58.7 100.534 59.324C99.4072 59.9307 98.1419 60.234 96.7379 60.234ZM96.7379 57.062C97.3965 57.062 98.0119 56.906 98.5839 56.594C99.1732 56.2647 99.6412 55.7793 99.9879 55.138C100.335 54.4967 100.508 53.7167 100.508 52.798C100.508 51.4287 100.144 50.38 99.4159 49.652C98.7052 48.9067 97.8299 48.534 96.7899 48.534C95.7499 48.534 94.8745 48.9067 94.1639 49.652C93.4705 50.38 93.1239 51.4287 93.1239 52.798C93.1239 54.1673 93.4619 55.2247 94.1379 55.97C94.8312 56.698 95.6979 57.062 96.7379 57.062ZM110.562 47.832C111.03 47.0693 111.637 46.4713 112.382 46.038C113.145 45.6047 114.011 45.388 114.982 45.388V49.21H114.02C112.876 49.21 112.009 49.4787 111.42 50.016C110.848 50.5533 110.562 51.4893 110.562 52.824V60H106.922V45.596H110.562V47.832ZM121.672 48.586V55.554C121.672 56.0393 121.784 56.3947 122.01 56.62C122.252 56.828 122.651 56.932 123.206 56.932H124.896V60H122.608C119.54 60 118.006 58.5093 118.006 55.528V48.586H116.29V45.596H118.006V42.034H121.672V45.596H124.896V48.586H121.672Z" fill="#040404"/>
</svg>
