<svg width="110" height="60" viewBox="0 0 110 60" fill="none" xmlns="http://www.w3.org/2000/svg">
<path d="M16.618 10.9C16.618 9.11467 17.0167 7.52 17.814 6.116C18.6287 4.69467 19.7293 3.594 21.116 2.814C22.52 2.01667 24.0887 1.618 25.822 1.618C27.85 1.618 29.6267 2.138 31.152 3.178C32.6773 4.218 33.7433 5.65667 34.35 7.494H30.164C29.748 6.62733 29.1587 5.97733 28.396 5.544C27.6507 5.11067 26.784 4.894 25.796 4.894C24.7387 4.894 23.794 5.14533 22.962 5.648C22.1473 6.13333 21.506 6.82667 21.038 7.728C20.5873 8.62933 20.362 9.68667 20.362 10.9C20.362 12.096 20.5873 13.1533 21.038 14.072C21.506 14.9733 22.1473 15.6753 22.962 16.178C23.794 16.6633 24.7387 16.906 25.796 16.906C26.784 16.906 27.6507 16.6893 28.396 16.256C29.1587 15.8053 29.748 15.1467 30.164 14.28H34.35C33.7433 16.1347 32.6773 17.582 31.152 18.622C29.644 19.6447 27.8673 20.156 25.822 20.156C24.0887 20.156 22.52 19.766 21.116 18.986C19.7293 18.1887 18.6287 17.088 17.814 15.684C17.0167 14.28 16.618 12.6853 16.618 10.9ZM41.099 0.76V20H37.459V0.76H41.099ZM51.0914 20.234C49.7047 20.234 48.4567 19.9307 47.3474 19.324C46.238 18.7 45.3627 17.8247 44.7214 16.698C44.0974 15.5713 43.7854 14.2713 43.7854 12.798C43.7854 11.3247 44.106 10.0247 44.7474 8.898C45.406 7.77133 46.2987 6.90467 47.4254 6.298C48.552 5.674 49.8087 5.362 51.1954 5.362C52.582 5.362 53.8387 5.674 54.9654 6.298C56.092 6.90467 56.976 7.77133 57.6174 8.898C58.276 10.0247 58.6054 11.3247 58.6054 12.798C58.6054 14.2713 58.2674 15.5713 57.5914 16.698C56.9327 17.8247 56.0314 18.7 54.8874 19.324C53.7607 19.9307 52.4954 20.234 51.0914 20.234ZM51.0914 17.062C51.75 17.062 52.3654 16.906 52.9374 16.594C53.5267 16.2647 53.9947 15.7793 54.3414 15.138C54.688 14.4967 54.8614 13.7167 54.8614 12.798C54.8614 11.4287 54.4974 10.38 53.7694 9.652C53.0587 8.90667 52.1834 8.534 51.1434 8.534C50.1034 8.534 49.228 8.90667 48.5174 9.652C47.824 10.38 47.4774 11.4287 47.4774 12.798C47.4774 14.1673 47.8154 15.2247 48.4914 15.97C49.1847 16.698 50.0514 17.062 51.0914 17.062ZM74.8734 5.596V20H71.2074V18.18C70.7394 18.804 70.1241 19.298 69.3614 19.662C68.6161 20.0087 67.8014 20.182 66.9174 20.182C65.7908 20.182 64.7941 19.948 63.9274 19.48C63.0608 18.9947 62.3761 18.2927 61.8734 17.374C61.3881 16.438 61.1454 15.3287 61.1454 14.046V5.596H64.7854V13.526C64.7854 14.67 65.0714 15.554 65.6434 16.178C66.2154 16.7847 66.9954 17.088 67.9834 17.088C68.9888 17.088 69.7774 16.7847 70.3494 16.178C70.9214 15.554 71.2074 14.67 71.2074 13.526V5.596H74.8734ZM77.5289 12.746C77.5289 11.29 77.8149 9.99867 78.3869 8.872C78.9762 7.74533 79.7736 6.87867 80.7789 6.272C81.7842 5.66533 82.9022 5.362 84.1329 5.362C85.0689 5.362 85.9616 5.57 86.8109 5.986C87.6602 6.38467 88.3362 6.922 88.8389 7.598V0.76H92.5309V20H88.8389V17.868C88.3882 18.5787 87.7556 19.1507 86.9409 19.584C86.1262 20.0173 85.1816 20.234 84.1069 20.234C82.8936 20.234 81.7842 19.922 80.7789 19.298C79.7736 18.674 78.9762 17.7987 78.3869 16.672C77.8149 15.528 77.5289 14.2193 77.5289 12.746ZM88.8649 12.798C88.8649 11.914 88.6916 11.16 88.3449 10.536C87.9982 9.89467 87.5302 9.40933 86.9409 9.08C86.3516 8.73333 85.7189 8.56 85.0429 8.56C84.3669 8.56 83.7429 8.72467 83.1709 9.054C82.5989 9.38333 82.1309 9.86867 81.7669 10.51C81.4202 11.134 81.2469 11.8793 81.2469 12.746C81.2469 13.6127 81.4202 14.3753 81.7669 15.034C82.1309 15.6753 82.5989 16.1693 83.1709 16.516C83.7602 16.8627 84.3842 17.036 85.0429 17.036C85.7189 17.036 86.3516 16.8713 86.9409 16.542C87.5302 16.1953 87.9982 15.71 88.3449 15.086C88.6916 14.4447 88.8649 13.682 88.8649 12.798ZM7.5307 59.182C6.26537 59.182 5.12137 58.9653 4.0987 58.532C3.09337 58.0987 2.29604 57.4747 1.7067 56.66C1.11737 55.8453 0.814037 54.8833 0.796703 53.774H4.6967C4.7487 54.5193 5.0087 55.1087 5.4767 55.542C5.96204 55.9753 6.6207 56.192 7.4527 56.192C8.30204 56.192 8.96937 55.9927 9.4547 55.594C9.94004 55.178 10.1827 54.6407 10.1827 53.982C10.1827 53.4447 10.018 53.0027 9.6887 52.656C9.35937 52.3093 8.94337 52.0407 8.4407 51.85C7.95537 51.642 7.27937 51.4167 6.4127 51.174C5.23404 50.8273 4.27204 50.4893 3.5267 50.16C2.7987 49.8133 2.16604 49.302 1.6287 48.626C1.1087 47.9327 0.848703 47.014 0.848703 45.87C0.848703 44.7953 1.11737 43.8593 1.6547 43.062C2.19204 42.2647 2.94604 41.658 3.9167 41.242C4.88737 40.8087 5.9967 40.592 7.2447 40.592C9.1167 40.592 10.6334 41.0513 11.7947 41.97C12.9734 42.8713 13.6234 44.1367 13.7447 45.766H9.7407C9.70604 45.142 9.43737 44.6307 8.9347 44.232C8.44937 43.816 7.79937 43.608 6.9847 43.608C6.27404 43.608 5.70204 43.79 5.2687 44.154C4.8527 44.518 4.6447 45.0467 4.6447 45.74C4.6447 46.2253 4.8007 46.6327 5.1127 46.962C5.44204 47.274 5.8407 47.534 6.3087 47.742C6.79404 47.9327 7.47004 48.158 8.3367 48.418C9.51537 48.7647 10.4774 49.1113 11.2227 49.458C11.968 49.8047 12.6094 50.3247 13.1467 51.018C13.684 51.7113 13.9527 52.6213 13.9527 53.748C13.9527 54.7187 13.7014 55.62 13.1987 56.452C12.696 57.284 11.9594 57.9513 10.9887 58.454C10.018 58.9393 8.86537 59.182 7.5307 59.182ZM30.4985 51.486C30.4985 52.006 30.4638 52.474 30.3945 52.89H19.8645C19.9511 53.93 20.3151 54.7447 20.9565 55.334C21.5978 55.9233 22.3865 56.218 23.3225 56.218C24.6745 56.218 25.6365 55.6373 26.2085 54.476H30.1345C29.7185 55.8627 28.9211 57.0067 27.7425 57.908C26.5638 58.792 25.1165 59.234 23.4005 59.234C22.0138 59.234 20.7658 58.9307 19.6565 58.324C18.5645 57.7 17.7065 56.8247 17.0825 55.698C16.4758 54.5713 16.1725 53.2713 16.1725 51.798C16.1725 50.3073 16.4758 48.9987 17.0825 47.872C17.6891 46.7453 18.5385 45.8787 19.6305 45.272C20.7225 44.6653 21.9791 44.362 23.4005 44.362C24.7698 44.362 25.9918 44.6567 27.0665 45.246C28.1585 45.8353 28.9991 46.676 29.5885 47.768C30.1951 48.8427 30.4985 50.082 30.4985 51.486ZM26.7285 50.446C26.7111 49.51 26.3731 48.7647 25.7145 48.21C25.0558 47.638 24.2498 47.352 23.2965 47.352C22.3951 47.352 21.6325 47.6293 21.0085 48.184C20.4018 48.7213 20.0291 49.4753 19.8905 50.446H26.7285ZM36.7953 46.832C37.2633 46.0693 37.87 45.4713 38.6153 45.038C39.378 44.6047 40.2447 44.388 41.2153 44.388V48.21H40.2533C39.1093 48.21 38.2427 48.4787 37.6533 49.016C37.0813 49.5533 36.7953 50.4893 36.7953 51.824V59H33.1553V44.596H36.7953V46.832ZM49.673 55.646L53.313 44.596H57.187L51.857 59H47.437L42.133 44.596H46.033L49.673 55.646ZM61.0775 42.88C60.4362 42.88 59.8988 42.6807 59.4655 42.282C59.0495 41.866 58.8415 41.3547 58.8415 40.748C58.8415 40.1413 59.0495 39.6387 59.4655 39.24C59.8988 38.824 60.4362 38.616 61.0775 38.616C61.7188 38.616 62.2475 38.824 62.6635 39.24C63.0968 39.6387 63.3135 40.1413 63.3135 40.748C63.3135 41.3547 63.0968 41.866 62.6635 42.282C62.2475 42.6807 61.7188 42.88 61.0775 42.88ZM62.8715 44.596V59H59.2315V44.596H62.8715ZM65.5318 51.798C65.5318 50.3073 65.8352 49.0073 66.4418 47.898C67.0485 46.7713 67.8892 45.9047 68.9638 45.298C70.0385 44.674 71.2692 44.362 72.6558 44.362C74.4412 44.362 75.9145 44.8127 77.0758 45.714C78.2545 46.598 79.0432 47.846 79.4418 49.458H75.5158C75.3078 48.834 74.9525 48.3487 74.4498 48.002C73.9645 47.638 73.3578 47.456 72.6298 47.456C71.5898 47.456 70.7665 47.8373 70.1598 48.6C69.5532 49.3453 69.2498 50.4113 69.2498 51.798C69.2498 53.1673 69.5532 54.2333 70.1598 54.996C70.7665 55.7413 71.5898 56.114 72.6298 56.114C74.1032 56.114 75.0652 55.4553 75.5158 54.138H79.4418C79.0432 55.698 78.2545 56.9373 77.0758 57.856C75.8972 58.7747 74.4238 59.234 72.6558 59.234C71.2692 59.234 70.0385 58.9307 68.9638 58.324C67.8892 57.7 67.0485 56.8333 66.4418 55.724C65.8352 54.5973 65.5318 53.2887 65.5318 51.798ZM95.4985 51.486C95.4985 52.006 95.4638 52.474 95.3945 52.89H84.8645C84.9511 53.93 85.3151 54.7447 85.9565 55.334C86.5978 55.9233 87.3865 56.218 88.3225 56.218C89.6745 56.218 90.6365 55.6373 91.2085 54.476H95.1345C94.7185 55.8627 93.9211 57.0067 92.7425 57.908C91.5638 58.792 90.1165 59.234 88.4005 59.234C87.0138 59.234 85.7658 58.9307 84.6565 58.324C83.5645 57.7 82.7065 56.8247 82.0825 55.698C81.4758 54.5713 81.1725 53.2713 81.1725 51.798C81.1725 50.3073 81.4758 48.9987 82.0825 47.872C82.6891 46.7453 83.5385 45.8787 84.6305 45.272C85.7225 44.6653 86.9791 44.362 88.4005 44.362C89.7698 44.362 90.9918 44.6567 92.0665 45.246C93.1585 45.8353 93.9991 46.676 94.5885 47.768C95.1951 48.8427 95.4985 50.082 95.4985 51.486ZM91.7285 50.446C91.7111 49.51 91.3731 48.7647 90.7145 48.21C90.0558 47.638 89.2498 47.352 88.2965 47.352C87.3951 47.352 86.6325 47.6293 86.0085 48.184C85.4018 48.7213 85.0291 49.4753 84.8905 50.446H91.7285ZM103.667 59.234C102.489 59.234 101.431 59.026 100.495 58.61C99.5593 58.1767 98.814 57.596 98.2593 56.868C97.722 56.14 97.4273 55.334 97.3753 54.45H101.041C101.111 55.0047 101.379 55.464 101.847 55.828C102.333 56.192 102.931 56.374 103.641 56.374C104.335 56.374 104.872 56.2353 105.253 55.958C105.652 55.6807 105.851 55.3253 105.851 54.892C105.851 54.424 105.609 54.0773 105.123 53.852C104.655 53.6093 103.901 53.3493 102.861 53.072C101.787 52.812 100.903 52.5433 100.209 52.266C99.5333 51.9887 98.944 51.564 98.4413 50.992C97.956 50.42 97.7133 49.6487 97.7133 48.678C97.7133 47.8807 97.9387 47.1527 98.3893 46.494C98.8573 45.8353 99.516 45.3153 100.365 44.934C101.232 44.5527 102.246 44.362 103.407 44.362C105.123 44.362 106.493 44.7953 107.515 45.662C108.538 46.5113 109.101 47.664 109.205 49.12H105.721C105.669 48.548 105.427 48.0973 104.993 47.768C104.577 47.4213 104.014 47.248 103.303 47.248C102.645 47.248 102.133 47.3693 101.769 47.612C101.423 47.8547 101.249 48.1927 101.249 48.626C101.249 49.1113 101.492 49.484 101.977 49.744C102.463 49.9867 103.217 50.238 104.239 50.498C105.279 50.758 106.137 51.0267 106.813 51.304C107.489 51.5813 108.07 52.0147 108.555 52.604C109.058 53.176 109.318 53.9387 109.335 54.892C109.335 55.724 109.101 56.4693 108.633 57.128C108.183 57.7867 107.524 58.3067 106.657 58.688C105.808 59.052 104.811 59.234 103.667 59.234Z" fill="#040404"/>
</svg>
