<svg width="232" height="36" viewBox="0 0 232 36" fill="none" xmlns="http://www.w3.org/2000/svg">
<path d="M0.354914 6.114C0.354914 5.162 0.574247 4.308 1.01291 3.552C1.46091 2.796 2.06291 2.208 2.81891 1.788C3.58425 1.35867 4.41958 1.144 5.32491 1.144C6.36091 1.144 7.28025 1.40067 8.08291 1.914C8.89491 2.418 9.48291 3.13667 9.84691 4.07H7.92891C7.67691 3.55667 7.32691 3.174 6.87891 2.922C6.43091 2.67 5.91291 2.544 5.32491 2.544C4.68091 2.544 4.10691 2.68867 3.60291 2.978C3.09891 3.26733 2.70225 3.68267 2.41291 4.224C2.13291 4.76533 1.99291 5.39533 1.99291 6.114C1.99291 6.83267 2.13291 7.46267 2.41291 8.004C2.70225 8.54533 3.09891 8.96533 3.60291 9.264C4.10691 9.55333 4.68091 9.698 5.32491 9.698C5.91291 9.698 6.43091 9.572 6.87891 9.32C7.32691 9.068 7.67691 8.68533 7.92891 8.172H9.84691C9.48291 9.10533 8.89491 9.824 8.08291 10.328C7.28025 10.832 6.36091 11.084 5.32491 11.084C4.41025 11.084 3.57491 10.874 2.81891 10.454C2.06291 10.0247 1.46091 9.432 1.01291 8.676C0.574247 7.92 0.354914 7.066 0.354914 6.114ZM15.061 11.126C14.333 11.126 13.675 10.9627 13.087 10.636C12.499 10.3 12.037 9.83333 11.701 9.236C11.365 8.62933 11.197 7.92933 11.197 7.136C11.197 6.352 11.3697 5.65667 11.715 5.05C12.0604 4.44333 12.5317 3.97667 13.129 3.65C13.7264 3.32333 14.3937 3.16 15.131 3.16C15.8684 3.16 16.5357 3.32333 17.133 3.65C17.7304 3.97667 18.2017 4.44333 18.547 5.05C18.8924 5.65667 19.065 6.352 19.065 7.136C19.065 7.92 18.8877 8.61533 18.533 9.222C18.1784 9.82867 17.693 10.3 17.077 10.636C16.4704 10.9627 15.7984 11.126 15.061 11.126ZM15.061 9.74C15.4717 9.74 15.8544 9.642 16.209 9.446C16.573 9.25 16.867 8.956 17.091 8.564C17.315 8.172 17.427 7.696 17.427 7.136C17.427 6.576 17.3197 6.10467 17.105 5.722C16.8904 5.33 16.6057 5.036 16.251 4.84C15.8964 4.644 15.5137 4.546 15.103 4.546C14.6924 4.546 14.3097 4.644 13.955 4.84C13.6097 5.036 13.3344 5.33 13.129 5.722C12.9237 6.10467 12.821 6.576 12.821 7.136C12.821 7.96667 13.031 8.61067 13.451 9.068C13.8804 9.516 14.417 9.74 15.061 9.74ZM24.5348 3.16C25.1414 3.16 25.6828 3.286 26.1588 3.538C26.6441 3.79 27.0221 4.16333 27.2928 4.658C27.5634 5.15267 27.6988 5.75 27.6988 6.45V11H26.1168V6.688C26.1168 5.99733 25.9441 5.47 25.5988 5.106C25.2534 4.73267 24.7821 4.546 24.1848 4.546C23.5874 4.546 23.1114 4.73267 22.7568 5.106C22.4114 5.47 22.2388 5.99733 22.2388 6.688V11H20.6428V3.286H22.2388V4.168C22.5001 3.85067 22.8314 3.60333 23.2328 3.426C23.6434 3.24867 24.0774 3.16 24.5348 3.16ZM31.5966 4.588V8.858C31.5966 9.14733 31.6619 9.35733 31.7926 9.488C31.9326 9.60933 32.1659 9.67 32.4926 9.67H33.4726V11H32.2126C31.4939 11 30.9432 10.832 30.5606 10.496C30.1779 10.16 29.9866 9.614 29.9866 8.858V4.588H29.0766V3.286H29.9866V1.368H31.5966V3.286H33.4726V4.588H31.5966ZM36.5396 4.406C36.7729 4.014 37.0809 3.71067 37.4636 3.496C37.8556 3.272 38.3176 3.16 38.8496 3.16V4.812H38.4436C37.8182 4.812 37.3422 4.97067 37.0156 5.288C36.6982 5.60533 36.5396 6.156 36.5396 6.94V11H34.9436V3.286H36.5396V4.406ZM39.7846 7.108C39.7846 6.33333 39.9433 5.64733 40.2606 5.05C40.5873 4.45267 41.0259 3.99067 41.5766 3.664C42.1366 3.328 42.7526 3.16 43.4246 3.16C44.0313 3.16 44.5586 3.28133 45.0066 3.524C45.4639 3.75733 45.8279 4.05133 46.0986 4.406V3.286H47.7086V11H46.0986V9.852C45.8279 10.216 45.4593 10.5193 44.9926 10.762C44.5259 11.0047 43.9939 11.126 43.3966 11.126C42.7339 11.126 42.1273 10.958 41.5766 10.622C41.0259 10.2767 40.5873 9.80067 40.2606 9.194C39.9433 8.578 39.7846 7.88267 39.7846 7.108ZM46.0986 7.136C46.0986 6.604 45.9866 6.142 45.7626 5.75C45.5479 5.358 45.2633 5.05933 44.9086 4.854C44.5539 4.64867 44.1713 4.546 43.7606 4.546C43.3499 4.546 42.9673 4.64867 42.6126 4.854C42.2579 5.05 41.9686 5.344 41.7446 5.736C41.5299 6.11867 41.4226 6.576 41.4226 7.108C41.4226 7.64 41.5299 8.10667 41.7446 8.508C41.9686 8.90933 42.2579 9.21733 42.6126 9.432C42.9766 9.63733 43.3593 9.74 43.7606 9.74C44.1713 9.74 44.5539 9.63733 44.9086 9.432C45.2633 9.22667 45.5479 8.928 45.7626 8.536C45.9866 8.13467 46.0986 7.668 46.0986 7.136ZM51.4009 4.406C51.6342 4.014 51.9422 3.71067 52.3249 3.496C52.7169 3.272 53.1789 3.16 53.7109 3.16V4.812H53.3049C52.6795 4.812 52.2035 4.97067 51.8769 5.288C51.5595 5.60533 51.4009 6.156 51.4009 6.94V11H49.8049V3.286H51.4009V4.406ZM62.1219 3.286L57.3899 14.626H55.7379L57.3059 10.874L54.2679 3.286H56.0459L58.2159 9.166L60.4699 3.286H62.1219ZM68.8251 4.588V8.858C68.8251 9.14733 68.8904 9.35733 69.0211 9.488C69.1611 9.60933 69.3944 9.67 69.7211 9.67H70.7011V11H69.4411C68.7224 11 68.1718 10.832 67.7891 10.496C67.4064 10.16 67.2151 9.614 67.2151 8.858V4.588H66.3051V3.286H67.2151V1.368H68.8251V3.286H70.7011V4.588H68.8251ZM75.5181 11.126C74.7901 11.126 74.1321 10.9627 73.5441 10.636C72.9561 10.3 72.4941 9.83333 72.1581 9.236C71.8221 8.62933 71.6541 7.92933 71.6541 7.136C71.6541 6.352 71.8267 5.65667 72.1721 5.05C72.5174 4.44333 72.9887 3.97667 73.5861 3.65C74.1834 3.32333 74.8507 3.16 75.5881 3.16C76.3254 3.16 76.9927 3.32333 77.5901 3.65C78.1874 3.97667 78.6587 4.44333 79.0041 5.05C79.3494 5.65667 79.5221 6.352 79.5221 7.136C79.5221 7.92 79.3447 8.61533 78.9901 9.222C78.6354 9.82867 78.1501 10.3 77.5341 10.636C76.9274 10.9627 76.2554 11.126 75.5181 11.126ZM75.5181 9.74C75.9287 9.74 76.3114 9.642 76.6661 9.446C77.0301 9.25 77.3241 8.956 77.5481 8.564C77.7721 8.172 77.8841 7.696 77.8841 7.136C77.8841 6.576 77.7767 6.10467 77.5621 5.722C77.3474 5.33 77.0627 5.036 76.7081 4.84C76.3534 4.644 75.9707 4.546 75.5601 4.546C75.1494 4.546 74.7667 4.644 74.4121 4.84C74.0667 5.036 73.7914 5.33 73.5861 5.722C73.3807 6.10467 73.2781 6.576 73.2781 7.136C73.2781 7.96667 73.4881 8.61067 73.9081 9.068C74.3374 9.516 74.8741 9.74 75.5181 9.74ZM86.3325 4.42C86.6032 4.06533 86.9719 3.76667 87.4385 3.524C87.9052 3.28133 88.4325 3.16 89.0205 3.16C89.6925 3.16 90.3039 3.328 90.8545 3.664C91.4145 3.99067 91.8532 4.45267 92.1705 5.05C92.4879 5.64733 92.6465 6.33333 92.6465 7.108C92.6465 7.88267 92.4879 8.578 92.1705 9.194C91.8532 9.80067 91.4145 10.2767 90.8545 10.622C90.3039 10.958 89.6925 11.126 89.0205 11.126C88.4325 11.126 87.9099 11.0093 87.4525 10.776C86.9952 10.5333 86.6219 10.2347 86.3325 9.88V14.668H84.7365V3.286H86.3325V4.42ZM91.0225 7.108C91.0225 6.576 90.9105 6.11867 90.6865 5.736C90.4719 5.344 90.1825 5.05 89.8185 4.854C89.4639 4.64867 89.0812 4.546 88.6705 4.546C88.2692 4.546 87.8865 4.64867 87.5225 4.854C87.1679 5.05933 86.8785 5.358 86.6545 5.75C86.4399 6.142 86.3325 6.604 86.3325 7.136C86.3325 7.668 86.4399 8.13467 86.6545 8.536C86.8785 8.928 87.1679 9.22667 87.5225 9.432C87.8865 9.63733 88.2692 9.74 88.6705 9.74C89.0812 9.74 89.4639 9.63733 89.8185 9.432C90.1825 9.21733 90.4719 8.90933 90.6865 8.508C90.9105 8.10667 91.0225 7.64 91.0225 7.108ZM97.5708 11.126C96.8428 11.126 96.1848 10.9627 95.5968 10.636C95.0088 10.3 94.5468 9.83333 94.2108 9.236C93.8748 8.62933 93.7068 7.92933 93.7068 7.136C93.7068 6.352 93.8795 5.65667 94.2248 5.05C94.5701 4.44333 95.0415 3.97667 95.6388 3.65C96.2361 3.32333 96.9035 3.16 97.6408 3.16C98.3781 3.16 99.0455 3.32333 99.6428 3.65C100.24 3.97667 100.711 4.44333 101.057 5.05C101.402 5.65667 101.575 6.352 101.575 7.136C101.575 7.92 101.397 8.61533 101.043 9.222C100.688 9.82867 100.203 10.3 99.5868 10.636C98.9801 10.9627 98.3081 11.126 97.5708 11.126ZM97.5708 9.74C97.9815 9.74 98.3641 9.642 98.7188 9.446C99.0828 9.25 99.3768 8.956 99.6008 8.564C99.8248 8.172 99.9368 7.696 99.9368 7.136C99.9368 6.576 99.8295 6.10467 99.6148 5.722C99.4001 5.33 99.1155 5.036 98.7608 4.84C98.4061 4.644 98.0235 4.546 97.6128 4.546C97.2021 4.546 96.8195 4.644 96.4648 4.84C96.1195 5.036 95.8441 5.33 95.6388 5.722C95.4335 6.10467 95.3308 6.576 95.3308 7.136C95.3308 7.96667 95.5408 8.61067 95.9608 9.068C96.3901 9.516 96.9268 9.74 97.5708 9.74ZM104.749 4.42C105.019 4.06533 105.388 3.76667 105.855 3.524C106.321 3.28133 106.849 3.16 107.437 3.16C108.109 3.16 108.72 3.328 109.271 3.664C109.831 3.99067 110.269 4.45267 110.587 5.05C110.904 5.64733 111.063 6.33333 111.063 7.108C111.063 7.88267 110.904 8.578 110.587 9.194C110.269 9.80067 109.831 10.2767 109.271 10.622C108.72 10.958 108.109 11.126 107.437 11.126C106.849 11.126 106.326 11.0093 105.869 10.776C105.411 10.5333 105.038 10.2347 104.749 9.88V14.668H103.153V3.286H104.749V4.42ZM109.439 7.108C109.439 6.576 109.327 6.11867 109.103 5.736C108.888 5.344 108.599 5.05 108.235 4.854C107.88 4.64867 107.497 4.546 107.087 4.546C106.685 4.546 106.303 4.64867 105.939 4.854C105.584 5.05933 105.295 5.358 105.071 5.75C104.856 6.142 104.749 6.604 104.749 7.136C104.749 7.668 104.856 8.13467 105.071 8.536C105.295 8.928 105.584 9.22667 105.939 9.432C106.303 9.63733 106.685 9.74 107.087 9.74C107.497 9.74 107.88 9.63733 108.235 9.432C108.599 9.21733 108.888 8.90933 109.103 8.508C109.327 8.10667 109.439 7.64 109.439 7.108ZM119.627 3.286V11H118.031V10.09C117.779 10.4073 117.447 10.6593 117.037 10.846C116.635 11.0233 116.206 11.112 115.749 11.112C115.142 11.112 114.596 10.986 114.111 10.734C113.635 10.482 113.257 10.1087 112.977 9.614C112.706 9.11933 112.571 8.522 112.571 7.822V3.286H114.153V7.584C114.153 8.27467 114.325 8.80667 114.671 9.18C115.016 9.544 115.487 9.726 116.085 9.726C116.682 9.726 117.153 9.544 117.499 9.18C117.853 8.80667 118.031 8.27467 118.031 7.584V3.286H119.627ZM123.329 0.64V11H121.733V0.64H123.329ZM124.892 7.108C124.892 6.33333 125.051 5.64733 125.368 5.05C125.695 4.45267 126.133 3.99067 126.684 3.664C127.244 3.328 127.86 3.16 128.532 3.16C129.139 3.16 129.666 3.28133 130.114 3.524C130.571 3.75733 130.935 4.05133 131.206 4.406V3.286H132.816V11H131.206V9.852C130.935 10.216 130.567 10.5193 130.1 10.762C129.633 11.0047 129.101 11.126 128.504 11.126C127.841 11.126 127.235 10.958 126.684 10.622C126.133 10.2767 125.695 9.80067 125.368 9.194C125.051 8.578 124.892 7.88267 124.892 7.108ZM131.206 7.136C131.206 6.604 131.094 6.142 130.87 5.75C130.655 5.358 130.371 5.05933 130.016 4.854C129.661 4.64867 129.279 4.546 128.868 4.546C128.457 4.546 128.075 4.64867 127.72 4.854C127.365 5.05 127.076 5.344 126.852 5.736C126.637 6.11867 126.53 6.576 126.53 7.108C126.53 7.64 126.637 8.10667 126.852 8.508C127.076 8.90933 127.365 9.21733 127.72 9.432C128.084 9.63733 128.467 9.74 128.868 9.74C129.279 9.74 129.661 9.63733 130.016 9.432C130.371 9.22667 130.655 8.928 130.87 8.536C131.094 8.13467 131.206 7.668 131.206 7.136ZM136.508 4.406C136.742 4.014 137.05 3.71067 137.432 3.496C137.824 3.272 138.286 3.16 138.818 3.16V4.812H138.412C137.787 4.812 137.311 4.97067 136.984 5.288C136.667 5.60533 136.508 6.156 136.508 6.94V11H134.912V3.286H136.508V4.406ZM145.518 4.434C145.789 4.06067 146.157 3.75733 146.624 3.524C147.1 3.28133 147.627 3.16 148.206 3.16C148.887 3.16 149.503 3.32333 150.054 3.65C150.605 3.97667 151.039 4.44333 151.356 5.05C151.673 5.64733 151.832 6.33333 151.832 7.108C151.832 7.88267 151.673 8.578 151.356 9.194C151.039 9.80067 150.6 10.2767 150.04 10.622C149.489 10.958 148.878 11.126 148.206 11.126C147.609 11.126 147.077 11.0093 146.61 10.776C146.153 10.5427 145.789 10.244 145.518 9.88V11H143.922V0.64H145.518V4.434ZM150.208 7.108C150.208 6.576 150.096 6.11867 149.872 5.736C149.657 5.344 149.368 5.05 149.004 4.854C148.649 4.64867 148.267 4.546 147.856 4.546C147.455 4.546 147.072 4.64867 146.708 4.854C146.353 5.05933 146.064 5.358 145.84 5.75C145.625 6.142 145.518 6.604 145.518 7.136C145.518 7.668 145.625 8.13467 145.84 8.536C146.064 8.928 146.353 9.22667 146.708 9.432C147.072 9.63733 147.455 9.74 147.856 9.74C148.267 9.74 148.649 9.63733 149.004 9.432C149.368 9.21733 149.657 8.90933 149.872 8.508C150.096 8.10667 150.208 7.64 150.208 7.108ZM160.48 6.954C160.48 7.24333 160.462 7.50467 160.424 7.738H154.53C154.577 8.354 154.806 8.84867 155.216 9.222C155.627 9.59533 156.131 9.782 156.728 9.782C157.587 9.782 158.194 9.42267 158.548 8.704H160.27C160.037 9.41333 159.612 9.99667 158.996 10.454C158.39 10.902 157.634 11.126 156.728 11.126C155.991 11.126 155.328 10.9627 154.74 10.636C154.162 10.3 153.704 9.83333 153.368 9.236C153.042 8.62933 152.878 7.92933 152.878 7.136C152.878 6.34267 153.037 5.64733 153.354 5.05C153.681 4.44333 154.134 3.97667 154.712 3.65C155.3 3.32333 155.972 3.16 156.728 3.16C157.456 3.16 158.105 3.31867 158.674 3.636C159.244 3.95333 159.687 4.40133 160.004 4.98C160.322 5.54933 160.48 6.20733 160.48 6.954ZM158.814 6.45C158.805 5.862 158.595 5.39067 158.184 5.036C157.774 4.68133 157.265 4.504 156.658 4.504C156.108 4.504 155.636 4.68133 155.244 5.036C154.852 5.38133 154.619 5.85267 154.544 6.45H158.814ZM163.647 0.64V11H162.051V0.64H163.647ZM166.554 2.264C166.265 2.264 166.022 2.166 165.826 1.97C165.63 1.774 165.532 1.53133 165.532 1.242C165.532 0.952666 165.63 0.71 165.826 0.514C166.022 0.318 166.265 0.219999 166.554 0.219999C166.834 0.219999 167.072 0.318 167.268 0.514C167.464 0.71 167.562 0.952666 167.562 1.242C167.562 1.53133 167.464 1.774 167.268 1.97C167.072 2.166 166.834 2.264 166.554 2.264ZM167.338 3.286V11H165.742V3.286H167.338ZM176.504 6.954C176.504 7.24333 176.485 7.50467 176.448 7.738H170.554C170.6 8.354 170.829 8.84867 171.24 9.222C171.65 9.59533 172.154 9.782 172.752 9.782C173.61 9.782 174.217 9.42267 174.572 8.704H176.294C176.06 9.41333 175.636 9.99667 175.02 10.454C174.413 10.902 173.657 11.126 172.752 11.126C172.014 11.126 171.352 10.9627 170.764 10.636C170.185 10.3 169.728 9.83333 169.392 9.236C169.065 8.62933 168.902 7.92933 168.902 7.136C168.902 6.34267 169.06 5.64733 169.378 5.05C169.704 4.44333 170.157 3.97667 170.736 3.65C171.324 3.32333 171.996 3.16 172.752 3.16C173.48 3.16 174.128 3.31867 174.698 3.636C175.267 3.95333 175.71 4.40133 176.028 4.98C176.345 5.54933 176.504 6.20733 176.504 6.954ZM174.838 6.45C174.828 5.862 174.618 5.39067 174.208 5.036C173.797 4.68133 173.288 4.504 172.682 4.504C172.131 4.504 171.66 4.68133 171.268 5.036C170.876 5.38133 170.642 5.85267 170.568 6.45H174.838ZM181.308 4.588H179.88V11H178.27V4.588H177.36V3.286H178.27V2.74C178.27 1.85333 178.504 1.20933 178.97 0.807999C179.446 0.397333 180.188 0.192 181.196 0.192V1.522C180.711 1.522 180.37 1.61533 180.174 1.802C179.978 1.97933 179.88 2.292 179.88 2.74V3.286H181.308V4.588ZM184.473 9.082L182.779 12.946H181.743L182.737 9.082H184.473ZM191.1 9.712H194.39V11H189.504V1.27H191.1V9.712ZM199.071 11.126C198.343 11.126 197.685 10.9627 197.097 10.636C196.509 10.3 196.047 9.83333 195.711 9.236C195.375 8.62933 195.207 7.92933 195.207 7.136C195.207 6.352 195.379 5.65667 195.725 5.05C196.07 4.44333 196.541 3.97667 197.139 3.65C197.736 3.32333 198.403 3.16 199.141 3.16C199.878 3.16 200.545 3.32333 201.143 3.65C201.74 3.97667 202.211 4.44333 202.557 5.05C202.902 5.65667 203.075 6.352 203.075 7.136C203.075 7.92 202.897 8.61533 202.543 9.222C202.188 9.82867 201.703 10.3 201.087 10.636C200.48 10.9627 199.808 11.126 199.071 11.126ZM199.071 9.74C199.481 9.74 199.864 9.642 200.219 9.446C200.583 9.25 200.877 8.956 201.101 8.564C201.325 8.172 201.437 7.696 201.437 7.136C201.437 6.576 201.329 6.10467 201.115 5.722C200.9 5.33 200.615 5.036 200.261 4.84C199.906 4.644 199.523 4.546 199.113 4.546C198.702 4.546 198.319 4.644 197.965 4.84C197.619 5.036 197.344 5.33 197.139 5.722C196.933 6.10467 196.831 6.576 196.831 7.136C196.831 7.96667 197.041 8.61067 197.461 9.068C197.89 9.516 198.427 9.74 199.071 9.74ZM206.249 4.406C206.482 4.014 206.79 3.71067 207.173 3.496C207.565 3.272 208.027 3.16 208.559 3.16V4.812H208.153C207.527 4.812 207.051 4.97067 206.725 5.288C206.407 5.60533 206.249 6.156 206.249 6.94V11H204.653V3.286H206.249V4.406ZM217.096 6.954C217.096 7.24333 217.077 7.50467 217.04 7.738H211.146C211.192 8.354 211.421 8.84867 211.832 9.222C212.242 9.59533 212.746 9.782 213.344 9.782C214.202 9.782 214.809 9.42267 215.164 8.704H216.886C216.652 9.41333 216.228 9.99667 215.612 10.454C215.005 10.902 214.249 11.126 213.344 11.126C212.606 11.126 211.944 10.9627 211.356 10.636C210.777 10.3 210.32 9.83333 209.984 9.236C209.657 8.62933 209.494 7.92933 209.494 7.136C209.494 6.34267 209.652 5.64733 209.97 5.05C210.296 4.44333 210.749 3.97667 211.328 3.65C211.916 3.32333 212.588 3.16 213.344 3.16C214.072 3.16 214.72 3.31867 215.29 3.636C215.859 3.95333 216.302 4.40133 216.62 4.98C216.937 5.54933 217.096 6.20733 217.096 6.954ZM215.43 6.45C215.42 5.862 215.21 5.39067 214.8 5.036C214.389 4.68133 213.88 4.504 213.274 4.504C212.723 4.504 212.252 4.68133 211.86 5.036C211.468 5.38133 211.234 5.85267 211.16 6.45H215.43ZM228.004 3.16C228.611 3.16 229.152 3.286 229.628 3.538C230.114 3.79 230.492 4.16333 230.762 4.658C231.042 5.15267 231.182 5.75 231.182 6.45V11H229.6V6.688C229.6 5.99733 229.428 5.47 229.082 5.106C228.737 4.73267 228.266 4.546 227.668 4.546C227.071 4.546 226.595 4.73267 226.24 5.106C225.895 5.47 225.722 5.99733 225.722 6.688V11H224.14V6.688C224.14 5.99733 223.968 5.47 223.622 5.106C223.277 4.73267 222.806 4.546 222.208 4.546C221.611 4.546 221.135 4.73267 220.78 5.106C220.435 5.47 220.262 5.99733 220.262 6.688V11H218.666V3.286H220.262V4.168C220.524 3.85067 220.855 3.60333 221.256 3.426C221.658 3.24867 222.087 3.16 222.544 3.16C223.16 3.16 223.711 3.29067 224.196 3.552C224.682 3.81333 225.055 4.19133 225.316 4.686C225.55 4.21933 225.914 3.85067 226.408 3.58C226.903 3.3 227.435 3.16 228.004 3.16ZM3.51514 22.27V32H1.91914V22.27H3.51514ZM7.20655 25.42C7.47721 25.0653 7.84588 24.7667 8.31255 24.524C8.77921 24.2813 9.30655 24.16 9.89455 24.16C10.5665 24.16 11.1779 24.328 11.7285 24.664C12.2885 24.9907 12.7272 25.4527 13.0445 26.05C13.3619 26.6473 13.5205 27.3333 13.5205 28.108C13.5205 28.8827 13.3619 29.578 13.0445 30.194C12.7272 30.8007 12.2885 31.2767 11.7285 31.622C11.1779 31.958 10.5665 32.126 9.89455 32.126C9.30655 32.126 8.78388 32.0093 8.32655 31.776C7.86921 31.5333 7.49588 31.2347 7.20655 30.88V35.668H5.61055V24.286H7.20655V25.42ZM11.8965 28.108C11.8965 27.576 11.7845 27.1187 11.5605 26.736C11.3459 26.344 11.0565 26.05 10.6925 25.854C10.3379 25.6487 9.95521 25.546 9.54455 25.546C9.14321 25.546 8.76055 25.6487 8.39655 25.854C8.04188 26.0593 7.75255 26.358 7.52855 26.75C7.31388 27.142 7.20655 27.604 7.20655 28.136C7.20655 28.668 7.31388 29.1347 7.52855 29.536C7.75255 29.928 8.04188 30.2267 8.39655 30.432C8.76055 30.6373 9.14321 30.74 9.54455 30.74C9.95521 30.74 10.3379 30.6373 10.6925 30.432C11.0565 30.2173 11.3459 29.9093 11.5605 29.508C11.7845 29.1067 11.8965 28.64 11.8965 28.108ZM17.8988 32.126C17.2922 32.126 16.7462 32.0187 16.2608 31.804C15.7848 31.58 15.4068 31.2813 15.1268 30.908C14.8468 30.5253 14.6975 30.1007 14.6788 29.634H16.3308C16.3588 29.9607 16.5128 30.236 16.7928 30.46C17.0822 30.6747 17.4415 30.782 17.8708 30.782C18.3188 30.782 18.6642 30.698 18.9068 30.53C19.1588 30.3527 19.2848 30.1287 19.2848 29.858C19.2848 29.5687 19.1448 29.354 18.8648 29.214C18.5942 29.074 18.1602 28.92 17.5628 28.752C16.9842 28.5933 16.5128 28.4393 16.1488 28.29C15.7848 28.1407 15.4675 27.912 15.1968 27.604C14.9355 27.296 14.8048 26.89 14.8048 26.386C14.8048 25.9753 14.9262 25.602 15.1688 25.266C15.4115 24.9207 15.7568 24.65 16.2048 24.454C16.6622 24.258 17.1848 24.16 17.7728 24.16C18.6502 24.16 19.3548 24.384 19.8868 24.832C20.4282 25.2707 20.7175 25.8727 20.7548 26.638H19.1588C19.1308 26.2927 18.9908 26.0173 18.7388 25.812C18.4868 25.6067 18.1462 25.504 17.7168 25.504C17.2968 25.504 16.9748 25.5833 16.7508 25.742C16.5268 25.9007 16.4148 26.1107 16.4148 26.372C16.4148 26.5773 16.4895 26.75 16.6388 26.89C16.7882 27.03 16.9702 27.142 17.1848 27.226C17.3995 27.3007 17.7168 27.3987 18.1368 27.52C18.6968 27.6693 19.1542 27.8233 19.5088 27.982C19.8728 28.1313 20.1855 28.3553 20.4468 28.654C20.7082 28.9527 20.8435 29.3493 20.8528 29.844C20.8528 30.2827 20.7315 30.6747 20.4888 31.02C20.2462 31.3653 19.9008 31.636 19.4528 31.832C19.0142 32.028 18.4962 32.126 17.8988 32.126ZM29.5633 24.286V32H27.9673V31.09C27.7153 31.4073 27.384 31.6593 26.9733 31.846C26.572 32.0233 26.1427 32.112 25.6853 32.112C25.0787 32.112 24.5327 31.986 24.0473 31.734C23.5713 31.482 23.1933 31.1087 22.9133 30.614C22.6427 30.1193 22.5073 29.522 22.5073 28.822V24.286H24.0893V28.584C24.0893 29.2747 24.262 29.8067 24.6073 30.18C24.9527 30.544 25.424 30.726 26.0213 30.726C26.6187 30.726 27.09 30.544 27.4353 30.18C27.79 29.8067 27.9673 29.2747 27.9673 28.584V24.286H29.5633ZM41.0071 24.16C41.6138 24.16 42.1551 24.286 42.6311 24.538C43.1165 24.79 43.4945 25.1633 43.7651 25.658C44.0451 26.1527 44.1851 26.75 44.1851 27.45V32H42.6031V27.688C42.6031 26.9973 42.4305 26.47 42.0851 26.106C41.7398 25.7327 41.2685 25.546 40.6711 25.546C40.0738 25.546 39.5978 25.7327 39.2431 26.106C38.8978 26.47 38.7251 26.9973 38.7251 27.688V32H37.1431V27.688C37.1431 26.9973 36.9705 26.47 36.6251 26.106C36.2798 25.7327 35.8085 25.546 35.2111 25.546C34.6138 25.546 34.1378 25.7327 33.7831 26.106C33.4378 26.47 33.2651 26.9973 33.2651 27.688V32H31.6691V24.286H33.2651V25.168C33.5265 24.8507 33.8578 24.6033 34.2591 24.426C34.6605 24.2487 35.0898 24.16 35.5471 24.16C36.1631 24.16 36.7138 24.2907 37.1991 24.552C37.6845 24.8133 38.0578 25.1913 38.3191 25.686C38.5525 25.2193 38.9165 24.8507 39.4111 24.58C39.9058 24.3 40.4378 24.16 41.0071 24.16ZM50.6647 23.264C50.3754 23.264 50.1327 23.166 49.9367 22.97C49.7407 22.774 49.6427 22.5313 49.6427 22.242C49.6427 21.9527 49.7407 21.71 49.9367 21.514C50.1327 21.318 50.3754 21.22 50.6647 21.22C50.9447 21.22 51.1827 21.318 51.3787 21.514C51.5747 21.71 51.6727 21.9527 51.6727 22.242C51.6727 22.5313 51.5747 22.774 51.3787 22.97C51.1827 23.166 50.9447 23.264 50.6647 23.264ZM51.4487 24.286V32H49.8527V24.286H51.4487ZM56.3441 32.126C55.7375 32.126 55.1915 32.0187 54.7061 31.804C54.2301 31.58 53.8521 31.2813 53.5721 30.908C53.2921 30.5253 53.1428 30.1007 53.1241 29.634H54.7761C54.8041 29.9607 54.9581 30.236 55.2381 30.46C55.5275 30.6747 55.8868 30.782 56.3161 30.782C56.7641 30.782 57.1095 30.698 57.3521 30.53C57.6041 30.3527 57.7301 30.1287 57.7301 29.858C57.7301 29.5687 57.5901 29.354 57.3101 29.214C57.0395 29.074 56.6055 28.92 56.0081 28.752C55.4295 28.5933 54.9581 28.4393 54.5941 28.29C54.2301 28.1407 53.9128 27.912 53.6421 27.604C53.3808 27.296 53.2501 26.89 53.2501 26.386C53.2501 25.9753 53.3715 25.602 53.6141 25.266C53.8568 24.9207 54.2021 24.65 54.6501 24.454C55.1075 24.258 55.6301 24.16 56.2181 24.16C57.0955 24.16 57.8001 24.384 58.3321 24.832C58.8735 25.2707 59.1628 25.8727 59.2001 26.638H57.6041C57.5761 26.2927 57.4361 26.0173 57.1841 25.812C56.9321 25.6067 56.5915 25.504 56.1621 25.504C55.7421 25.504 55.4201 25.5833 55.1961 25.742C54.9721 25.9007 54.8601 26.1107 54.8601 26.372C54.8601 26.5773 54.9348 26.75 55.0841 26.89C55.2335 27.03 55.4155 27.142 55.6301 27.226C55.8448 27.3007 56.1621 27.3987 56.5821 27.52C57.1421 27.6693 57.5995 27.8233 57.9541 27.982C58.3181 28.1313 58.6308 28.3553 58.8921 28.654C59.1535 28.9527 59.2888 29.3493 59.2981 29.844C59.2981 30.2827 59.1768 30.6747 58.9341 31.02C58.6915 31.3653 58.3461 31.636 57.8981 31.832C57.4595 32.028 56.9415 32.126 56.3441 32.126ZM68.5514 24.16C69.158 24.16 69.6994 24.286 70.1754 24.538C70.6607 24.79 71.0387 25.1633 71.3094 25.658C71.58 26.1527 71.7154 26.75 71.7154 27.45V32H70.1334V27.688C70.1334 26.9973 69.9607 26.47 69.6154 26.106C69.27 25.7327 68.7987 25.546 68.2014 25.546C67.604 25.546 67.128 25.7327 66.7734 26.106C66.428 26.47 66.2554 26.9973 66.2554 27.688V32H64.6594V24.286H66.2554V25.168C66.5167 24.8507 66.848 24.6033 67.2494 24.426C67.66 24.2487 68.094 24.16 68.5514 24.16ZM77.0972 32.126C76.3692 32.126 75.7112 31.9627 75.1232 31.636C74.5352 31.3 74.0732 30.8333 73.7372 30.236C73.4012 29.6293 73.2332 28.9293 73.2332 28.136C73.2332 27.352 73.4058 26.6567 73.7512 26.05C74.0965 25.4433 74.5678 24.9767 75.1652 24.65C75.7625 24.3233 76.4298 24.16 77.1672 24.16C77.9045 24.16 78.5718 24.3233 79.1692 24.65C79.7665 24.9767 80.2378 25.4433 80.5832 26.05C80.9285 26.6567 81.1012 27.352 81.1012 28.136C81.1012 28.92 80.9238 29.6153 80.5692 30.222C80.2145 30.8287 79.7292 31.3 79.1132 31.636C78.5065 31.9627 77.8345 32.126 77.0972 32.126ZM77.0972 30.74C77.5078 30.74 77.8905 30.642 78.2452 30.446C78.6092 30.25 78.9032 29.956 79.1272 29.564C79.3512 29.172 79.4632 28.696 79.4632 28.136C79.4632 27.576 79.3558 27.1047 79.1412 26.722C78.9265 26.33 78.6418 26.036 78.2872 25.84C77.9325 25.644 77.5498 25.546 77.1392 25.546C76.7285 25.546 76.3458 25.644 75.9912 25.84C75.6458 26.036 75.3705 26.33 75.1652 26.722C74.9598 27.1047 74.8572 27.576 74.8572 28.136C74.8572 28.9667 75.0672 29.6107 75.4872 30.068C75.9165 30.516 76.4532 30.74 77.0972 30.74ZM84.5409 25.588V29.858C84.5409 30.1473 84.6062 30.3573 84.7369 30.488C84.8769 30.6093 85.1102 30.67 85.4369 30.67H86.4169V32H85.1569C84.4382 32 83.8876 31.832 83.5049 31.496C83.1222 31.16 82.9309 30.614 82.9309 29.858V25.588H82.0209V24.286H82.9309V22.368H84.5409V24.286H86.4169V25.588H84.5409ZM94.3246 32.126C93.7179 32.126 93.1719 32.0187 92.6866 31.804C92.2106 31.58 91.8326 31.2813 91.5526 30.908C91.2726 30.5253 91.1233 30.1007 91.1046 29.634H92.7566C92.7846 29.9607 92.9386 30.236 93.2186 30.46C93.5079 30.6747 93.8673 30.782 94.2966 30.782C94.7446 30.782 95.0899 30.698 95.3326 30.53C95.5846 30.3527 95.7106 30.1287 95.7106 29.858C95.7106 29.5687 95.5706 29.354 95.2906 29.214C95.0199 29.074 94.5859 28.92 93.9886 28.752C93.4099 28.5933 92.9386 28.4393 92.5746 28.29C92.2106 28.1407 91.8933 27.912 91.6226 27.604C91.3613 27.296 91.2306 26.89 91.2306 26.386C91.2306 25.9753 91.3519 25.602 91.5946 25.266C91.8373 24.9207 92.1826 24.65 92.6306 24.454C93.0879 24.258 93.6106 24.16 94.1986 24.16C95.0759 24.16 95.7806 24.384 96.3126 24.832C96.8539 25.2707 97.1433 25.8727 97.1806 26.638H95.5846C95.5566 26.2927 95.4166 26.0173 95.1646 25.812C94.9126 25.6067 94.5719 25.504 94.1426 25.504C93.7226 25.504 93.4006 25.5833 93.1766 25.742C92.9526 25.9007 92.8406 26.1107 92.8406 26.372C92.8406 26.5773 92.9153 26.75 93.0646 26.89C93.2139 27.03 93.3959 27.142 93.6106 27.226C93.8253 27.3007 94.1426 27.3987 94.5626 27.52C95.1226 27.6693 95.5799 27.8233 95.9346 27.982C96.2986 28.1313 96.6113 28.3553 96.8726 28.654C97.1339 28.9527 97.2693 29.3493 97.2786 29.844C97.2786 30.2827 97.1573 30.6747 96.9146 31.02C96.6719 31.3653 96.3266 31.636 95.8786 31.832C95.4399 32.028 94.9219 32.126 94.3246 32.126ZM99.8151 23.264C99.5258 23.264 99.2831 23.166 99.0871 22.97C98.8911 22.774 98.7931 22.5313 98.7931 22.242C98.7931 21.9527 98.8911 21.71 99.0871 21.514C99.2831 21.318 99.5258 21.22 99.8151 21.22C100.095 21.22 100.333 21.318 100.529 21.514C100.725 21.71 100.823 21.9527 100.823 22.242C100.823 22.5313 100.725 22.774 100.529 22.97C100.333 23.166 100.095 23.264 99.8151 23.264ZM100.599 24.286V32H99.0031V24.286H100.599ZM112.033 24.16C112.639 24.16 113.181 24.286 113.657 24.538C114.142 24.79 114.52 25.1633 114.791 25.658C115.071 26.1527 115.211 26.75 115.211 27.45V32H113.629V27.688C113.629 26.9973 113.456 26.47 113.111 26.106C112.765 25.7327 112.294 25.546 111.697 25.546C111.099 25.546 110.623 25.7327 110.269 26.106C109.923 26.47 109.751 26.9973 109.751 27.688V32H108.169V27.688C108.169 26.9973 107.996 26.47 107.651 26.106C107.305 25.7327 106.834 25.546 106.237 25.546C105.639 25.546 105.163 25.7327 104.809 26.106C104.463 26.47 104.291 26.9973 104.291 27.688V32H102.695V24.286H104.291V25.168C104.552 24.8507 104.883 24.6033 105.285 24.426C105.686 24.2487 106.115 24.16 106.573 24.16C107.189 24.16 107.739 24.2907 108.225 24.552C108.71 24.8133 109.083 25.1913 109.345 25.686C109.578 25.2193 109.942 24.8507 110.437 24.58C110.931 24.3 111.463 24.16 112.033 24.16ZM118.837 25.42C119.108 25.0653 119.477 24.7667 119.943 24.524C120.41 24.2813 120.937 24.16 121.525 24.16C122.197 24.16 122.809 24.328 123.359 24.664C123.919 24.9907 124.358 25.4527 124.675 26.05C124.993 26.6473 125.151 27.3333 125.151 28.108C125.151 28.8827 124.993 29.578 124.675 30.194C124.358 30.8007 123.919 31.2767 123.359 31.622C122.809 31.958 122.197 32.126 121.525 32.126C120.937 32.126 120.415 32.0093 119.957 31.776C119.5 31.5333 119.127 31.2347 118.837 30.88V35.668H117.241V24.286H118.837V25.42ZM123.527 28.108C123.527 27.576 123.415 27.1187 123.191 26.736C122.977 26.344 122.687 26.05 122.323 25.854C121.969 25.6487 121.586 25.546 121.175 25.546C120.774 25.546 120.391 25.6487 120.027 25.854C119.673 26.0593 119.383 26.358 119.159 26.75C118.945 27.142 118.837 27.604 118.837 28.136C118.837 28.668 118.945 29.1347 119.159 29.536C119.383 29.928 119.673 30.2267 120.027 30.432C120.391 30.6373 120.774 30.74 121.175 30.74C121.586 30.74 121.969 30.6373 122.323 30.432C122.687 30.2173 122.977 29.9093 123.191 29.508C123.415 29.1067 123.527 28.64 123.527 28.108ZM128.326 21.64V32H126.73V21.64H128.326ZM137.365 24.286L132.633 35.626H130.981L132.549 31.874L129.511 24.286H131.289L133.459 30.166L135.713 24.286H137.365ZM143.802 25.406C144.036 25.014 144.344 24.7107 144.726 24.496C145.118 24.272 145.58 24.16 146.112 24.16V25.812H145.706C145.081 25.812 144.605 25.9707 144.278 26.288C143.961 26.6053 143.802 27.156 143.802 27.94V32H142.206V24.286H143.802V25.406ZM147.047 28.108C147.047 27.3333 147.206 26.6473 147.523 26.05C147.85 25.4527 148.289 24.9907 148.839 24.664C149.399 24.328 150.015 24.16 150.687 24.16C151.294 24.16 151.821 24.2813 152.269 24.524C152.727 24.7573 153.091 25.0513 153.361 25.406V24.286H154.971V32H153.361V30.852C153.091 31.216 152.722 31.5193 152.255 31.762C151.789 32.0047 151.257 32.126 150.659 32.126C149.997 32.126 149.39 31.958 148.839 31.622C148.289 31.2767 147.85 30.8007 147.523 30.194C147.206 29.578 147.047 28.8827 147.047 28.108ZM153.361 28.136C153.361 27.604 153.249 27.142 153.025 26.75C152.811 26.358 152.526 26.0593 152.171 25.854C151.817 25.6487 151.434 25.546 151.023 25.546C150.613 25.546 150.23 25.6487 149.875 25.854C149.521 26.05 149.231 26.344 149.007 26.736C148.793 27.1187 148.685 27.576 148.685 28.108C148.685 28.64 148.793 29.1067 149.007 29.508C149.231 29.9093 149.521 30.2173 149.875 30.432C150.239 30.6373 150.622 30.74 151.023 30.74C151.434 30.74 151.817 30.6373 152.171 30.432C152.526 30.2267 152.811 29.928 153.025 29.536C153.249 29.1347 153.361 28.668 153.361 28.136ZM160.96 24.16C161.566 24.16 162.108 24.286 162.584 24.538C163.069 24.79 163.447 25.1633 163.718 25.658C163.988 26.1527 164.124 26.75 164.124 27.45V32H162.542V27.688C162.542 26.9973 162.369 26.47 162.024 26.106C161.678 25.7327 161.207 25.546 160.61 25.546C160.012 25.546 159.536 25.7327 159.182 26.106C158.836 26.47 158.664 26.9973 158.664 27.688V32H157.068V24.286H158.664V25.168C158.925 24.8507 159.256 24.6033 159.658 24.426C160.068 24.2487 160.502 24.16 160.96 24.16ZM165.627 28.108C165.627 27.3333 165.786 26.6473 166.103 26.05C166.43 25.4527 166.869 24.9907 167.419 24.664C167.979 24.328 168.6 24.16 169.281 24.16C169.785 24.16 170.28 24.272 170.765 24.496C171.26 24.7107 171.652 25 171.941 25.364V21.64H173.551V32H171.941V30.838C171.68 31.2113 171.316 31.5193 170.849 31.762C170.392 32.0047 169.865 32.126 169.267 32.126C168.595 32.126 167.979 31.958 167.419 31.622C166.869 31.2767 166.43 30.8007 166.103 30.194C165.786 29.578 165.627 28.8827 165.627 28.108ZM171.941 28.136C171.941 27.604 171.829 27.142 171.605 26.75C171.391 26.358 171.106 26.0593 170.751 25.854C170.397 25.6487 170.014 25.546 169.603 25.546C169.193 25.546 168.81 25.6487 168.455 25.854C168.101 26.05 167.811 26.344 167.587 26.736C167.373 27.1187 167.265 27.576 167.265 28.108C167.265 28.64 167.373 29.1067 167.587 29.508C167.811 29.9093 168.101 30.2173 168.455 30.432C168.819 30.6373 169.202 30.74 169.603 30.74C170.014 30.74 170.397 30.6373 170.751 30.432C171.106 30.2267 171.391 29.928 171.605 29.536C171.829 29.1347 171.941 28.668 171.941 28.136ZM178.994 32.126C178.266 32.126 177.608 31.9627 177.02 31.636C176.432 31.3 175.97 30.8333 175.634 30.236C175.298 29.6293 175.13 28.9293 175.13 28.136C175.13 27.352 175.302 26.6567 175.648 26.05C175.993 25.4433 176.464 24.9767 177.062 24.65C177.659 24.3233 178.326 24.16 179.064 24.16C179.801 24.16 180.468 24.3233 181.066 24.65C181.663 24.9767 182.134 25.4433 182.48 26.05C182.825 26.6567 182.998 27.352 182.998 28.136C182.998 28.92 182.82 29.6153 182.466 30.222C182.111 30.8287 181.626 31.3 181.01 31.636C180.403 31.9627 179.731 32.126 178.994 32.126ZM178.994 30.74C179.404 30.74 179.787 30.642 180.142 30.446C180.506 30.25 180.8 29.956 181.024 29.564C181.248 29.172 181.36 28.696 181.36 28.136C181.36 27.576 181.252 27.1047 181.038 26.722C180.823 26.33 180.538 26.036 180.184 25.84C179.829 25.644 179.446 25.546 179.036 25.546C178.625 25.546 178.242 25.644 177.888 25.84C177.542 26.036 177.267 26.33 177.062 26.722C176.856 27.1047 176.754 27.576 176.754 28.136C176.754 28.9667 176.964 29.6107 177.384 30.068C177.813 30.516 178.35 30.74 178.994 30.74ZM193.913 24.16C194.52 24.16 195.061 24.286 195.537 24.538C196.023 24.79 196.401 25.1633 196.671 25.658C196.951 26.1527 197.091 26.75 197.091 27.45V32H195.509V27.688C195.509 26.9973 195.337 26.47 194.991 26.106C194.646 25.7327 194.175 25.546 193.577 25.546C192.98 25.546 192.504 25.7327 192.149 26.106C191.804 26.47 191.631 26.9973 191.631 27.688V32H190.049V27.688C190.049 26.9973 189.877 26.47 189.531 26.106C189.186 25.7327 188.715 25.546 188.117 25.546C187.52 25.546 187.044 25.7327 186.689 26.106C186.344 26.47 186.171 26.9973 186.171 27.688V32H184.575V24.286H186.171V25.168C186.433 24.8507 186.764 24.6033 187.165 24.426C187.567 24.2487 187.996 24.16 188.453 24.16C189.069 24.16 189.62 24.2907 190.105 24.552C190.591 24.8133 190.964 25.1913 191.225 25.686C191.459 25.2193 191.823 24.8507 192.317 24.58C192.812 24.3 193.344 24.16 193.913 24.16ZM204.621 25.588V29.858C204.621 30.1473 204.686 30.3573 204.817 30.488C204.957 30.6093 205.19 30.67 205.517 30.67H206.497V32H205.237C204.518 32 203.968 31.832 203.585 31.496C203.202 31.16 203.011 30.614 203.011 29.858V25.588H202.101V24.286H203.011V22.368H204.621V24.286H206.497V25.588H204.621ZM215.038 27.954C215.038 28.2433 215.019 28.5047 214.982 28.738H209.088C209.135 29.354 209.363 29.8487 209.774 30.222C210.185 30.5953 210.689 30.782 211.286 30.782C212.145 30.782 212.751 30.4227 213.106 29.704H214.828C214.595 30.4133 214.17 30.9967 213.554 31.454C212.947 31.902 212.191 32.126 211.286 32.126C210.549 32.126 209.886 31.9627 209.298 31.636C208.719 31.3 208.262 30.8333 207.926 30.236C207.599 29.6293 207.436 28.9293 207.436 28.136C207.436 27.3427 207.595 26.6473 207.912 26.05C208.239 25.4433 208.691 24.9767 209.27 24.65C209.858 24.3233 210.53 24.16 211.286 24.16C212.014 24.16 212.663 24.3187 213.232 24.636C213.801 24.9533 214.245 25.4013 214.562 25.98C214.879 26.5493 215.038 27.2073 215.038 27.954ZM213.372 27.45C213.363 26.862 213.153 26.3907 212.742 26.036C212.331 25.6813 211.823 25.504 211.216 25.504C210.665 25.504 210.194 25.6813 209.802 26.036C209.41 26.3813 209.177 26.8527 209.102 27.45H213.372ZM219.913 28.094L222.405 32H220.599L218.933 29.382L217.365 32H215.699L218.191 28.206L215.699 24.286H217.505L219.171 26.904L220.739 24.286H222.405L219.913 28.094ZM225.457 25.588V29.858C225.457 30.1473 225.522 30.3573 225.653 30.488C225.793 30.6093 226.026 30.67 226.353 30.67H227.333V32H226.073C225.354 32 224.804 31.832 224.421 31.496C224.038 31.16 223.847 30.614 223.847 29.858V25.588H222.937V24.286H223.847V22.368H225.457V24.286H227.333V25.588H225.457ZM229.448 32.098C229.159 32.098 228.916 32 228.72 31.804C228.524 31.608 228.426 31.3653 228.426 31.076C228.426 30.7867 228.524 30.544 228.72 30.348C228.916 30.152 229.159 30.054 229.448 30.054C229.728 30.054 229.966 30.152 230.162 30.348C230.358 30.544 230.456 30.7867 230.456 31.076C230.456 31.3653 230.358 31.608 230.162 31.804C229.966 32 229.728 32.098 229.448 32.098Z" fill="#DCDCDC"/>
</svg>
