<svg width="258" height="20" viewBox="0 0 258 20" fill="none" xmlns="http://www.w3.org/2000/svg">
<path d="M6.82 16.3C5.78 16.3 4.84667 16.14 4.02 15.82C3.19333 15.5 2.49333 15.0333 1.92 14.42C1.34667 13.7933 0.906667 13.0333 0.6 12.14C0.293333 11.2467 0.14 10.22 0.14 9.06C0.14 7.9 0.313333 6.87333 0.66 5.98C1.02 5.08667 1.50667 4.33333 2.12 3.72C2.73333 3.09333 3.45333 2.62 4.28 2.3C5.10667 1.98 5.99333 1.82 6.94 1.82C7.51333 1.82 8.03333 1.86667 8.5 1.96C8.96667 2.04 9.37333 2.13333 9.72 2.24C10.0667 2.34667 10.3533 2.46 10.58 2.58C10.8067 2.7 10.9667 2.78667 11.06 2.84L10.32 4.9C10 4.7 9.54 4.51333 8.94 4.34C8.35333 4.15333 7.71333 4.06 7.02 4.06C6.42 4.06 5.86 4.16667 5.34 4.38C4.82 4.58 4.36667 4.88667 3.98 5.3C3.60667 5.71333 3.31333 6.23333 3.1 6.86C2.88667 7.48667 2.78 8.21333 2.78 9.04C2.78 9.77333 2.86 10.4467 3.02 11.06C3.19333 11.6733 3.45333 12.2067 3.8 12.66C4.14667 13.1 4.58667 13.4467 5.12 13.7C5.65333 13.94 6.29333 14.06 7.04 14.06C7.93333 14.06 8.66 13.9733 9.22 13.8C9.78 13.6133 10.2133 13.44 10.52 13.28L11.2 15.34C11.04 15.4467 10.82 15.5533 10.54 15.66C10.2733 15.7667 9.95333 15.8733 9.58 15.98C9.20667 16.0733 8.78667 16.1467 8.32 16.2C7.85333 16.2667 7.35333 16.3 6.82 16.3ZM22.5 10.76C22.5 11.5867 22.38 12.34 22.14 13.02C21.9 13.7 21.56 14.28 21.12 14.76C20.68 15.24 20.1467 15.6133 19.52 15.88C18.9067 16.1467 18.2267 16.28 17.48 16.28C16.7333 16.28 16.0533 16.1467 15.44 15.88C14.8267 15.6133 14.3 15.24 13.86 14.76C13.42 14.28 13.0733 13.7 12.82 13.02C12.58 12.34 12.46 11.5867 12.46 10.76C12.46 9.93333 12.58 9.18667 12.82 8.52C13.0733 7.84 13.42 7.26 13.86 6.78C14.3133 6.3 14.8467 5.93333 15.46 5.68C16.0733 5.41333 16.7467 5.28 17.48 5.28C18.2133 5.28 18.8867 5.41333 19.5 5.68C20.1267 5.93333 20.66 6.3 21.1 6.78C21.54 7.26 21.88 7.84 22.12 8.52C22.3733 9.18667 22.5 9.93333 22.5 10.76ZM20.02 10.76C20.02 9.72 19.7933 8.9 19.34 8.3C18.9 7.68667 18.28 7.38 17.48 7.38C16.68 7.38 16.0533 7.68667 15.6 8.3C15.16 8.9 14.94 9.72 14.94 10.76C14.94 11.8133 15.16 12.6467 15.6 13.26C16.0533 13.8733 16.68 14.18 17.48 14.18C18.28 14.18 18.9 13.8733 19.34 13.26C19.7933 12.6467 20.02 11.8133 20.02 10.76ZM27.6131 14.26C28.2531 14.26 28.7198 14.1867 29.0131 14.04C29.3065 13.88 29.4531 13.6133 29.4531 13.24C29.4531 12.8933 29.2931 12.6067 28.9731 12.38C28.6665 12.1533 28.1531 11.9067 27.4331 11.64C26.9931 11.48 26.5865 11.3133 26.2131 11.14C25.8531 10.9533 25.5398 10.74 25.2731 10.5C25.0065 10.26 24.7931 9.97333 24.6331 9.64C24.4865 9.29333 24.4131 8.87333 24.4131 8.38C24.4131 7.42 24.7665 6.66667 25.4731 6.12C26.1798 5.56 27.1398 5.28 28.3531 5.28C28.9665 5.28 29.5531 5.34 30.1131 5.46C30.6731 5.56667 31.0931 5.67333 31.3731 5.78L30.9331 7.74C30.6665 7.62 30.3265 7.51333 29.9131 7.42C29.4998 7.31333 29.0198 7.26 28.4731 7.26C27.9798 7.26 27.5798 7.34667 27.2731 7.52C26.9665 7.68 26.8131 7.93333 26.8131 8.28C26.8131 8.45333 26.8398 8.60667 26.8931 8.74C26.9598 8.87333 27.0665 9 27.2131 9.12C27.3598 9.22667 27.5531 9.34 27.7931 9.46C28.0331 9.56667 28.3265 9.68 28.6731 9.8C29.2465 10.0133 29.7331 10.2267 30.1331 10.44C30.5331 10.64 30.8598 10.8733 31.1131 11.14C31.3798 11.3933 31.5731 11.6867 31.6931 12.02C31.8131 12.3533 31.8731 12.7533 31.8731 13.22C31.8731 14.22 31.4998 14.98 30.7531 15.5C30.0198 16.0067 28.9665 16.26 27.5931 16.26C26.6731 16.26 25.9331 16.18 25.3731 16.02C24.8131 15.8733 24.4198 15.7533 24.1931 15.66L24.6131 13.64C24.9731 13.7867 25.3998 13.9267 25.8931 14.06C26.3998 14.1933 26.9731 14.26 27.6131 14.26ZM40.0938 10.5C40.0938 9.40667 39.9538 8.62 39.6738 8.14C39.4071 7.64667 38.9004 7.4 38.1538 7.4C37.8871 7.4 37.5938 7.42 37.2738 7.46C36.9538 7.5 36.7138 7.53333 36.5538 7.56V16H34.1338V5.88C34.6004 5.74667 35.2071 5.62 35.9538 5.5C36.7138 5.38 37.5138 5.32 38.3538 5.32C39.0738 5.32 39.6604 5.41333 40.1138 5.6C40.5804 5.78667 40.9671 6.03333 41.2738 6.34C41.4204 6.23333 41.6071 6.12 41.8338 6C42.0604 5.88 42.3138 5.77333 42.5938 5.68C42.8738 5.57333 43.1671 5.48667 43.4738 5.42C43.7938 5.35333 44.1138 5.32 44.4338 5.32C45.2471 5.32 45.9138 5.44 46.4338 5.68C46.9671 5.90667 47.3804 6.23333 47.6738 6.66C47.9804 7.07333 48.1871 7.58 48.2938 8.18C48.4138 8.76667 48.4738 9.41333 48.4738 10.12V16H46.0538V10.5C46.0538 9.40667 45.9204 8.62 45.6538 8.14C45.3871 7.64667 44.8738 7.4 44.1138 7.4C43.7271 7.4 43.3604 7.46667 43.0138 7.6C42.6671 7.72 42.4071 7.84 42.2338 7.96C42.3404 8.29333 42.4138 8.64667 42.4538 9.02C42.4938 9.39333 42.5138 9.79333 42.5138 10.22V16H40.0938V10.5ZM50.8584 10.82C50.8584 9.9 50.9918 9.09333 51.2584 8.4C51.5384 7.70667 51.9051 7.13333 52.3584 6.68C52.8118 6.21333 53.3318 5.86667 53.9184 5.64C54.5051 5.4 55.1051 5.28 55.7184 5.28C57.1584 5.28 58.2784 5.72667 59.0784 6.62C59.8918 7.51333 60.2984 8.84667 60.2984 10.62C60.2984 10.7533 60.2918 10.9067 60.2784 11.08C60.2784 11.24 60.2718 11.3867 60.2584 11.52H53.3584C53.4251 12.36 53.7184 13.0133 54.2384 13.48C54.7718 13.9333 55.5384 14.16 56.5384 14.16C57.1251 14.16 57.6584 14.1067 58.1384 14C58.6318 13.8933 59.0184 13.78 59.2984 13.66L59.6184 15.64C59.4851 15.7067 59.2984 15.78 59.0584 15.86C58.8318 15.9267 58.5651 15.9867 58.2584 16.04C57.9651 16.1067 57.6451 16.16 57.2984 16.2C56.9518 16.24 56.5984 16.26 56.2384 16.26C55.3184 16.26 54.5184 16.1267 53.8384 15.86C53.1584 15.58 52.5984 15.2 52.1584 14.72C51.7184 14.2267 51.3918 13.6533 51.1784 13C50.9651 12.3333 50.8584 11.6067 50.8584 10.82ZM57.8784 9.74C57.8784 9.40667 57.8318 9.09333 57.7384 8.8C57.6451 8.49333 57.5051 8.23333 57.3184 8.02C57.1451 7.79333 56.9251 7.62 56.6584 7.5C56.4051 7.36667 56.0984 7.3 55.7384 7.3C55.3651 7.3 55.0384 7.37333 54.7584 7.52C54.4784 7.65333 54.2384 7.83333 54.0384 8.06C53.8518 8.28667 53.7051 8.54667 53.5984 8.84C53.4918 9.13333 53.4184 9.43333 53.3784 9.74H57.8784ZM62.7442 2.78L65.1642 2.38V5.54H68.8842V7.56H65.1642V11.82C65.1642 12.66 65.2976 13.26 65.5642 13.62C65.8309 13.98 66.2842 14.16 66.9242 14.16C67.3642 14.16 67.7509 14.1133 68.0842 14.02C68.4309 13.9267 68.7042 13.84 68.9042 13.76L69.3042 15.68C69.0242 15.8 68.6576 15.92 68.2042 16.04C67.7509 16.1733 67.2176 16.24 66.6042 16.24C65.8576 16.24 65.2309 16.14 64.7242 15.94C64.2309 15.74 63.8376 15.4533 63.5442 15.08C63.2509 14.6933 63.0442 14.2333 62.9242 13.7C62.8042 13.1533 62.7442 12.5333 62.7442 11.84V2.78ZM73.6636 16H71.2436V5.54H73.6636V16ZM73.9236 2.48C73.9236 2.93333 73.7769 3.29333 73.4836 3.56C73.1903 3.82667 72.8436 3.96 72.4436 3.96C72.0303 3.96 71.6769 3.82667 71.3836 3.56C71.0903 3.29333 70.9436 2.93333 70.9436 2.48C70.9436 2.01333 71.0903 1.64667 71.3836 1.38C71.6769 1.11333 72.0303 0.979999 72.4436 0.979999C72.8436 0.979999 73.1903 1.11333 73.4836 1.38C73.7769 1.64667 73.9236 2.01333 73.9236 2.48ZM76.1709 10.78C76.1709 10.0067 76.2909 9.28667 76.5309 8.62C76.7709 7.94 77.1109 7.35333 77.5509 6.86C78.0043 6.36667 78.5509 5.98 79.1909 5.7C79.8309 5.42 80.5509 5.28 81.3509 5.28C82.3376 5.28 83.2709 5.46 84.1509 5.82L83.6309 7.8C83.3509 7.68 83.0309 7.58 82.6709 7.5C82.3243 7.42 81.9509 7.38 81.5509 7.38C80.6043 7.38 79.8843 7.68 79.3909 8.28C78.8976 8.86667 78.6509 9.7 78.6509 10.78C78.6509 11.82 78.8843 12.6467 79.3509 13.26C79.8176 13.86 80.6043 14.16 81.7109 14.16C82.1243 14.16 82.5309 14.12 82.9309 14.04C83.3309 13.96 83.6776 13.86 83.9709 13.74L84.3109 15.74C84.0443 15.8733 83.6376 15.9933 83.0909 16.1C82.5576 16.2067 82.0043 16.26 81.4309 16.26C80.5376 16.26 79.7576 16.1267 79.0909 15.86C78.4376 15.58 77.8909 15.2 77.4509 14.72C77.0243 14.2267 76.7043 13.6467 76.4909 12.98C76.2776 12.3 76.1709 11.5667 76.1709 10.78ZM90.9725 16V2.14H99.7325V4.28H93.4925V7.82H99.0325V9.96H93.4925V16H90.9725ZM111.094 10.76C111.094 11.5867 110.974 12.34 110.734 13.02C110.494 13.7 110.154 14.28 109.714 14.76C109.274 15.24 108.74 15.6133 108.114 15.88C107.5 16.1467 106.82 16.28 106.074 16.28C105.327 16.28 104.647 16.1467 104.034 15.88C103.42 15.6133 102.894 15.24 102.454 14.76C102.014 14.28 101.667 13.7 101.414 13.02C101.174 12.34 101.054 11.5867 101.054 10.76C101.054 9.93333 101.174 9.18667 101.414 8.52C101.667 7.84 102.014 7.26 102.454 6.78C102.907 6.3 103.44 5.93333 104.054 5.68C104.667 5.41333 105.34 5.28 106.074 5.28C106.807 5.28 107.48 5.41333 108.094 5.68C108.72 5.93333 109.254 6.3 109.694 6.78C110.134 7.26 110.474 7.84 110.714 8.52C110.967 9.18667 111.094 9.93333 111.094 10.76ZM108.614 10.76C108.614 9.72 108.387 8.9 107.934 8.3C107.494 7.68667 106.874 7.38 106.074 7.38C105.274 7.38 104.647 7.68667 104.194 8.3C103.754 8.9 103.534 9.72 103.534 10.76C103.534 11.8133 103.754 12.6467 104.194 13.26C104.647 13.8733 105.274 14.18 106.074 14.18C106.874 14.18 107.494 13.8733 107.934 13.26C108.387 12.6467 108.614 11.8133 108.614 10.76ZM119.547 7.72C119.347 7.65333 119.067 7.58667 118.707 7.52C118.36 7.44 117.954 7.4 117.487 7.4C117.22 7.4 116.934 7.42667 116.627 7.48C116.334 7.53333 116.127 7.58 116.007 7.62V16H113.587V6.04C114.054 5.86667 114.634 5.70667 115.327 5.56C116.034 5.4 116.814 5.32 117.667 5.32C117.827 5.32 118.014 5.33333 118.227 5.36C118.44 5.37333 118.654 5.4 118.867 5.44C119.08 5.46667 119.287 5.50667 119.487 5.56C119.687 5.6 119.847 5.64 119.967 5.68L119.547 7.72ZM121.073 10.78C121.073 10.0067 121.193 9.28667 121.433 8.62C121.673 7.94 122.013 7.35333 122.453 6.86C122.907 6.36667 123.453 5.98 124.093 5.7C124.733 5.42 125.453 5.28 126.253 5.28C127.24 5.28 128.173 5.46 129.053 5.82L128.533 7.8C128.253 7.68 127.933 7.58 127.573 7.5C127.227 7.42 126.853 7.38 126.453 7.38C125.507 7.38 124.787 7.68 124.293 8.28C123.8 8.86667 123.553 9.7 123.553 10.78C123.553 11.82 123.787 12.6467 124.253 13.26C124.72 13.86 125.507 14.16 126.613 14.16C127.027 14.16 127.433 14.12 127.833 14.04C128.233 13.96 128.58 13.86 128.873 13.74L129.213 15.74C128.947 15.8733 128.54 15.9933 127.993 16.1C127.46 16.2067 126.907 16.26 126.333 16.26C125.44 16.26 124.66 16.1267 123.993 15.86C123.34 15.58 122.793 15.2 122.353 14.72C121.927 14.2267 121.607 13.6467 121.393 12.98C121.18 12.3 121.073 11.5667 121.073 10.78ZM130.507 10.82C130.507 9.9 130.64 9.09333 130.907 8.4C131.187 7.70667 131.554 7.13333 132.007 6.68C132.46 6.21333 132.98 5.86667 133.567 5.64C134.154 5.4 134.754 5.28 135.367 5.28C136.807 5.28 137.927 5.72667 138.727 6.62C139.54 7.51333 139.947 8.84667 139.947 10.62C139.947 10.7533 139.94 10.9067 139.927 11.08C139.927 11.24 139.92 11.3867 139.907 11.52H133.007C133.074 12.36 133.367 13.0133 133.887 13.48C134.42 13.9333 135.187 14.16 136.187 14.16C136.774 14.16 137.307 14.1067 137.787 14C138.28 13.8933 138.667 13.78 138.947 13.66L139.267 15.64C139.134 15.7067 138.947 15.78 138.707 15.86C138.48 15.9267 138.214 15.9867 137.907 16.04C137.614 16.1067 137.294 16.16 136.947 16.2C136.6 16.24 136.247 16.26 135.887 16.26C134.967 16.26 134.167 16.1267 133.487 15.86C132.807 15.58 132.247 15.2 131.807 14.72C131.367 14.2267 131.04 13.6533 130.827 13C130.614 12.3333 130.507 11.6067 130.507 10.82ZM137.527 9.74C137.527 9.40667 137.48 9.09333 137.387 8.8C137.294 8.49333 137.154 8.23333 136.967 8.02C136.794 7.79333 136.574 7.62 136.307 7.5C136.054 7.36667 135.747 7.3 135.387 7.3C135.014 7.3 134.687 7.37333 134.407 7.52C134.127 7.65333 133.887 7.83333 133.687 8.06C133.5 8.28667 133.354 8.54667 133.247 8.84C133.14 9.13333 133.067 9.43333 133.027 9.74H137.527ZM145.133 14.26C145.773 14.26 146.239 14.1867 146.533 14.04C146.826 13.88 146.973 13.6133 146.973 13.24C146.973 12.8933 146.813 12.6067 146.493 12.38C146.186 12.1533 145.673 11.9067 144.953 11.64C144.513 11.48 144.106 11.3133 143.733 11.14C143.373 10.9533 143.059 10.74 142.793 10.5C142.526 10.26 142.313 9.97333 142.153 9.64C142.006 9.29333 141.933 8.87333 141.933 8.38C141.933 7.42 142.286 6.66667 142.993 6.12C143.699 5.56 144.659 5.28 145.873 5.28C146.486 5.28 147.073 5.34 147.633 5.46C148.193 5.56667 148.613 5.67333 148.893 5.78L148.453 7.74C148.186 7.62 147.846 7.51333 147.433 7.42C147.019 7.31333 146.539 7.26 145.993 7.26C145.499 7.26 145.099 7.34667 144.793 7.52C144.486 7.68 144.333 7.93333 144.333 8.28C144.333 8.45333 144.359 8.60667 144.413 8.74C144.479 8.87333 144.586 9 144.733 9.12C144.879 9.22667 145.073 9.34 145.313 9.46C145.553 9.56667 145.846 9.68 146.193 9.8C146.766 10.0133 147.253 10.2267 147.653 10.44C148.053 10.64 148.379 10.8733 148.633 11.14C148.899 11.3933 149.093 11.6867 149.213 12.02C149.333 12.3533 149.393 12.7533 149.393 13.22C149.393 14.22 149.019 14.98 148.273 15.5C147.539 16.0067 146.486 16.26 145.113 16.26C144.193 16.26 143.453 16.18 142.893 16.02C142.333 15.8733 141.939 15.7533 141.713 15.66L142.133 13.64C142.493 13.7867 142.919 13.9267 143.413 14.06C143.919 14.1933 144.493 14.26 145.133 14.26ZM151.533 2.78L153.953 2.38V5.54H157.673V7.56H153.953V11.82C153.953 12.66 154.087 13.26 154.353 13.62C154.62 13.98 155.073 14.16 155.713 14.16C156.153 14.16 156.54 14.1133 156.873 14.02C157.22 13.9267 157.493 13.84 157.693 13.76L158.093 15.68C157.813 15.8 157.447 15.92 156.993 16.04C156.54 16.1733 156.007 16.24 155.393 16.24C154.647 16.24 154.02 16.14 153.513 15.94C153.02 15.74 152.627 15.4533 152.333 15.08C152.04 14.6933 151.833 14.2333 151.713 13.7C151.593 13.1533 151.533 12.5333 151.533 11.84V2.78ZM167.821 2.14C168.114 2.64667 168.441 3.26667 168.801 4C169.161 4.73333 169.527 5.50667 169.901 6.32C170.274 7.12 170.641 7.94 171.001 8.78C171.374 9.60667 171.714 10.3733 172.021 11.08C172.327 10.3733 172.661 9.60667 173.021 8.78C173.381 7.94 173.747 7.12 174.121 6.32C174.494 5.50667 174.861 4.73333 175.221 4C175.581 3.26667 175.907 2.64667 176.201 2.14H178.481C178.601 3.15333 178.714 4.23333 178.821 5.38C178.927 6.51333 179.021 7.68 179.101 8.88C179.194 10.0667 179.274 11.2667 179.341 12.48C179.421 13.68 179.487 14.8533 179.541 16H177.061C177.007 14.3867 176.941 12.7267 176.861 11.02C176.794 9.31333 176.687 7.66 176.541 6.06C176.394 6.36667 176.221 6.73333 176.021 7.16C175.821 7.58667 175.607 8.05333 175.381 8.56C175.154 9.05333 174.921 9.56667 174.681 10.1C174.454 10.6333 174.227 11.1533 174.001 11.66C173.787 12.1533 173.587 12.62 173.401 13.06C173.214 13.4867 173.054 13.8533 172.921 14.16H171.041C170.907 13.8533 170.747 13.48 170.561 13.04C170.374 12.6 170.167 12.1333 169.941 11.64C169.727 11.1333 169.501 10.6133 169.261 10.08C169.034 9.54667 168.807 9.03333 168.581 8.54C168.354 8.04667 168.141 7.58667 167.941 7.16C167.741 6.72 167.567 6.35333 167.421 6.06C167.274 7.66 167.161 9.31333 167.081 11.02C167.014 12.7267 166.954 14.3867 166.901 16H164.421C164.474 14.8533 164.534 13.6667 164.601 12.44C164.681 11.2133 164.761 10 164.841 8.8C164.934 7.58667 165.034 6.41333 165.141 5.28C165.247 4.14667 165.361 3.1 165.481 2.14H167.821ZM186.036 14.3C186.783 14.3 187.35 14.26 187.736 14.18V11.5C187.603 11.46 187.41 11.42 187.156 11.38C186.903 11.34 186.623 11.32 186.316 11.32C186.05 11.32 185.776 11.34 185.496 11.38C185.23 11.42 184.983 11.4933 184.756 11.6C184.543 11.7067 184.37 11.86 184.236 12.06C184.103 12.2467 184.036 12.4867 184.036 12.78C184.036 13.3533 184.216 13.7533 184.576 13.98C184.936 14.1933 185.423 14.3 186.036 14.3ZM185.836 5.28C186.636 5.28 187.31 5.38 187.856 5.58C188.403 5.78 188.836 6.06 189.156 6.42C189.49 6.78 189.723 7.22 189.856 7.74C190.003 8.24667 190.076 8.80667 190.076 9.42V15.76C189.703 15.84 189.136 15.9333 188.376 16.04C187.63 16.16 186.783 16.22 185.836 16.22C185.21 16.22 184.636 16.16 184.116 16.04C183.596 15.92 183.15 15.7267 182.776 15.46C182.416 15.1933 182.13 14.8467 181.916 14.42C181.716 13.9933 181.616 13.4667 181.616 12.84C181.616 12.24 181.73 11.7333 181.956 11.32C182.196 10.9067 182.516 10.5733 182.916 10.32C183.316 10.0533 183.776 9.86667 184.296 9.76C184.83 9.64 185.383 9.58 185.956 9.58C186.223 9.58 186.503 9.6 186.796 9.64C187.09 9.66667 187.403 9.72 187.736 9.8V9.4C187.736 9.12 187.703 8.85333 187.636 8.6C187.57 8.34667 187.45 8.12667 187.276 7.94C187.116 7.74 186.896 7.58667 186.616 7.48C186.35 7.37333 186.01 7.32 185.596 7.32C185.036 7.32 184.523 7.36 184.056 7.44C183.59 7.52 183.21 7.61333 182.916 7.72L182.616 5.76C182.923 5.65333 183.37 5.54667 183.956 5.44C184.543 5.33333 185.17 5.28 185.836 5.28ZM199 7.72C198.8 7.65333 198.52 7.58667 198.16 7.52C197.813 7.44 197.407 7.4 196.94 7.4C196.673 7.4 196.387 7.42667 196.08 7.48C195.787 7.53333 195.58 7.58 195.46 7.62V16H193.04V6.04C193.507 5.86667 194.087 5.70667 194.78 5.56C195.487 5.4 196.267 5.32 197.12 5.32C197.28 5.32 197.467 5.33333 197.68 5.36C197.893 5.37333 198.107 5.4 198.32 5.44C198.533 5.46667 198.74 5.50667 198.94 5.56C199.14 5.6 199.3 5.64 199.42 5.68L199 7.72ZM203.526 9.62C203.833 9.3 204.16 8.96 204.506 8.6C204.853 8.22667 205.193 7.86 205.526 7.5C205.86 7.12667 206.173 6.77333 206.466 6.44C206.773 6.09333 207.033 5.79333 207.246 5.54H210.106C209.44 6.28667 208.733 7.06 207.986 7.86C207.253 8.66 206.513 9.44 205.766 10.2C206.166 10.5333 206.586 10.94 207.026 11.42C207.466 11.8867 207.893 12.3867 208.306 12.92C208.72 13.4533 209.106 13.9867 209.466 14.52C209.826 15.0533 210.126 15.5467 210.366 16H207.566C207.326 15.5867 207.046 15.1533 206.726 14.7C206.42 14.2467 206.086 13.8067 205.726 13.38C205.366 12.9533 205 12.5533 204.626 12.18C204.253 11.7933 203.886 11.4667 203.526 11.2V16H201.106V0.879999L203.526 0.48V9.62ZM211.073 10.82C211.073 9.9 211.207 9.09333 211.473 8.4C211.753 7.70667 212.12 7.13333 212.573 6.68C213.027 6.21333 213.547 5.86667 214.133 5.64C214.72 5.4 215.32 5.28 215.933 5.28C217.373 5.28 218.493 5.72667 219.293 6.62C220.107 7.51333 220.513 8.84667 220.513 10.62C220.513 10.7533 220.507 10.9067 220.493 11.08C220.493 11.24 220.487 11.3867 220.473 11.52H213.573C213.64 12.36 213.933 13.0133 214.453 13.48C214.987 13.9333 215.753 14.16 216.753 14.16C217.34 14.16 217.873 14.1067 218.353 14C218.847 13.8933 219.233 13.78 219.513 13.66L219.833 15.64C219.7 15.7067 219.513 15.78 219.273 15.86C219.047 15.9267 218.78 15.9867 218.473 16.04C218.18 16.1067 217.86 16.16 217.513 16.2C217.167 16.24 216.813 16.26 216.453 16.26C215.533 16.26 214.733 16.1267 214.053 15.86C213.373 15.58 212.813 15.2 212.373 14.72C211.933 14.2267 211.607 13.6533 211.393 13C211.18 12.3333 211.073 11.6067 211.073 10.82ZM218.093 9.74C218.093 9.40667 218.047 9.09333 217.953 8.8C217.86 8.49333 217.72 8.23333 217.533 8.02C217.36 7.79333 217.14 7.62 216.873 7.5C216.62 7.36667 216.313 7.3 215.953 7.3C215.58 7.3 215.253 7.37333 214.973 7.52C214.693 7.65333 214.453 7.83333 214.253 8.06C214.067 8.28667 213.92 8.54667 213.813 8.84C213.707 9.13333 213.633 9.43333 213.593 9.74H218.093ZM222.959 2.78L225.379 2.38V5.54H229.099V7.56H225.379V11.82C225.379 12.66 225.512 13.26 225.779 13.62C226.046 13.98 226.499 14.16 227.139 14.16C227.579 14.16 227.966 14.1133 228.299 14.02C228.646 13.9267 228.919 13.84 229.119 13.76L229.519 15.68C229.239 15.8 228.872 15.92 228.419 16.04C227.966 16.1733 227.432 16.24 226.819 16.24C226.072 16.24 225.446 16.14 224.939 15.94C224.446 15.74 224.052 15.4533 223.759 15.08C223.466 14.6933 223.259 14.2333 223.139 13.7C223.019 13.1533 222.959 12.5333 222.959 11.84V2.78ZM233.878 16H231.458V5.54H233.878V16ZM234.138 2.48C234.138 2.93333 233.992 3.29333 233.698 3.56C233.405 3.82667 233.058 3.96 232.658 3.96C232.245 3.96 231.892 3.82667 231.598 3.56C231.305 3.29333 231.158 2.93333 231.158 2.48C231.158 2.01333 231.305 1.64667 231.598 1.38C231.892 1.11333 232.245 0.979999 232.658 0.979999C233.058 0.979999 233.405 1.11333 233.698 1.38C233.992 1.64667 234.138 2.01333 234.138 2.48ZM236.966 5.88C237.432 5.74667 238.039 5.62 238.786 5.5C239.532 5.38 240.359 5.32 241.266 5.32C242.119 5.32 242.832 5.44 243.406 5.68C243.979 5.90667 244.432 6.23333 244.766 6.66C245.112 7.07333 245.352 7.58 245.486 8.18C245.632 8.76667 245.706 9.41333 245.706 10.12V16H243.286V10.5C243.286 9.94 243.246 9.46667 243.166 9.08C243.099 8.68 242.979 8.36 242.806 8.12C242.646 7.86667 242.419 7.68667 242.126 7.58C241.846 7.46 241.499 7.4 241.086 7.4C240.779 7.4 240.459 7.42 240.126 7.46C239.792 7.5 239.546 7.53333 239.386 7.56V16H236.966V5.88ZM250.565 10.5C250.565 11.5267 250.785 12.28 251.225 12.76C251.678 13.2267 252.258 13.46 252.965 13.46C253.352 13.46 253.712 13.4067 254.045 13.3C254.392 13.1933 254.672 13.0667 254.885 12.92V7.5C254.712 7.46 254.498 7.42667 254.245 7.4C253.992 7.36 253.672 7.34 253.285 7.34C252.405 7.34 251.732 7.63333 251.265 8.22C250.798 8.79333 250.565 9.55333 250.565 10.5ZM257.305 14.94C257.305 16.6067 256.878 17.8267 256.025 18.6C255.185 19.3733 253.892 19.76 252.145 19.76C251.505 19.76 250.878 19.7067 250.265 19.6C249.665 19.4933 249.118 19.3533 248.625 19.18L249.065 17.12C249.478 17.2933 249.945 17.4333 250.465 17.54C250.998 17.6467 251.572 17.7 252.185 17.7C253.158 17.7 253.852 17.5 254.265 17.1C254.678 16.7 254.885 16.1067 254.885 15.32V14.92C254.645 15.04 254.325 15.16 253.925 15.28C253.538 15.4 253.092 15.46 252.585 15.46C251.918 15.46 251.305 15.3533 250.745 15.14C250.198 14.9267 249.725 14.6133 249.325 14.2C248.938 13.7867 248.632 13.2733 248.405 12.66C248.192 12.0333 248.085 11.3133 248.085 10.5C248.085 9.74 248.198 9.04 248.425 8.4C248.665 7.76 249.005 7.21333 249.445 6.76C249.898 6.30667 250.445 5.95333 251.085 5.7C251.725 5.44667 252.452 5.32 253.265 5.32C254.052 5.32 254.798 5.38 255.505 5.5C256.212 5.62 256.812 5.74667 257.305 5.88V14.94Z" fill="#14183E"/>
</svg>
