<svg width="100" height="100" viewBox="0 0 100 100" fill="none" xmlns="http://www.w3.org/2000/svg">
<path d="M51.6539 96.2829C51.4522 94.4649 52.6623 93.0509 54.4774 92.6469C56.2926 92.4449 57.906 93.6569 58.1077 95.4749C58.3094 97.293 57.0993 98.707 55.2842 99.111C55.0825 99.111 55.0825 99.111 54.8808 99.111C53.2674 99.111 51.8556 97.899 51.6539 96.2829ZM31.4859 96.2829C29.8724 95.6769 29.0657 93.8589 29.6707 92.2429C30.2758 90.6268 32.0909 89.8188 33.7043 90.4249C35.3178 91.0309 36.1245 92.8489 35.5195 94.4649C35.1161 95.6769 33.906 96.4849 32.4943 96.4849C32.2926 96.4849 31.8892 96.2829 31.4859 96.2829ZM73.0321 89.8188C72.0237 88.4048 72.427 86.3848 73.8388 85.3748C75.2506 84.3648 77.2674 84.7688 78.2758 86.1828C79.2842 87.5968 78.8808 89.6168 77.469 90.6269C76.864 91.0309 76.259 91.2329 75.6539 91.2329C74.6455 91.2329 73.6371 90.6269 73.0321 89.8188ZM11.9228 82.7487C10.7127 81.5367 10.9144 79.5167 12.1245 78.3046C13.3346 77.0926 15.3514 77.2946 16.5615 78.5067C17.7716 79.7187 17.5699 81.7387 16.3598 82.9507C15.7548 83.5567 14.948 83.7587 14.343 83.7587C13.5363 83.7587 12.5279 83.3547 11.9228 82.7487ZM88.9648 74.0626C87.3514 73.2546 86.7464 71.2345 87.5531 69.8205C88.3598 68.2045 90.3766 67.5985 91.7884 68.4065C93.4018 69.2145 94.0069 71.2345 93.2001 72.6486C92.5951 73.6586 91.5867 74.2646 90.3766 74.2646C89.9732 74.4666 89.3682 74.2646 88.9648 74.0626ZM0.830395 61.5384C0.427034 59.9224 1.43544 58.1043 3.04888 57.7003C4.66233 57.2963 6.47745 58.3063 6.88081 59.9223C7.28418 61.5384 6.27577 63.3564 4.46065 63.7604C4.25897 63.7604 3.8556 63.7604 3.65392 63.7604C2.44384 63.9624 1.23376 62.9524 0.830395 61.5384ZM92.5951 49.6202C92.5951 49.4182 92.5951 49.4182 92.5951 49.6202C92.5951 47.6001 94.0069 46.1861 95.822 46.1861C97.6371 46.1861 99.0489 47.6001 99.0489 49.4182C99.0489 49.4182 99.0489 49.4182 99.0489 49.6202C99.0489 51.4382 97.6371 52.8522 95.822 52.8522C94.0069 52.8522 92.5951 51.4382 92.5951 49.6202ZM3.04888 41.54C1.43544 41.136 0.225353 39.318 0.628715 37.702C1.03208 36.086 2.8472 34.8739 4.46065 35.2779C6.07409 35.6819 7.28418 37.5 6.88081 39.116C6.47745 40.53 5.26737 41.54 3.8556 41.54C3.65392 41.7421 3.45224 41.7421 3.04888 41.54ZM87.5531 29.2178C86.7464 27.6018 87.3514 25.7838 88.9648 24.9758C90.5783 24.1678 92.3934 24.7738 93.2001 26.3898C94.0069 28.0058 93.4018 29.8239 91.7884 30.6319C91.385 30.8339 90.78 31.0359 90.3766 31.0359C89.1665 30.8339 88.1581 30.2279 87.5531 29.2178ZM12.1245 21.1377C10.7127 19.9257 10.7127 17.9057 11.9228 16.6936C13.1329 15.2796 15.1497 15.2796 16.3598 16.4916C17.7716 17.7037 17.7716 19.7237 16.5615 20.9357C15.9564 21.7437 14.948 21.9457 14.1413 21.9457C13.5363 21.9457 12.7296 21.5417 12.1245 21.1377ZM73.6371 13.6636C72.2253 12.6536 71.822 10.6335 72.8304 9.21952C73.8388 7.80549 75.8556 7.40149 77.2674 8.41151C78.6791 9.42152 79.0825 11.4416 78.0741 12.8556C77.469 13.6636 76.4606 14.2696 75.4522 14.2696C74.8472 14.2696 74.2422 14.0676 73.6371 13.6636ZM29.469 6.99748C28.864 5.38145 29.6707 3.56343 31.2842 2.95742C32.8976 2.35141 34.7127 3.15942 35.3178 4.77545C35.9228 6.39147 35.1161 8.2095 33.5027 8.81551C33.0993 9.01752 32.6959 9.01751 32.2926 9.01751C31.2842 9.21952 30.0741 8.4115 29.469 6.99748ZM54.2758 6.39147C52.4606 6.18947 51.2506 4.57344 51.4522 2.95742C51.6539 1.13939 53.2674 -0.0726344 55.0825 0.129369C56.8976 0.331372 58.1077 1.9474 57.906 3.56342C57.7043 5.17945 56.2926 6.39147 54.6791 6.39147C54.4774 6.39147 54.4774 6.39147 54.2758 6.39147Z" fill="#FFAF00"/>
</svg>
