<svg width="80" height="81" viewBox="0 0 80 81" fill="none" xmlns="http://www.w3.org/2000/svg">
<path d="M41.2506 78.3948C41.0489 76.9808 42.0573 75.7687 43.4691 75.5667C44.8808 75.3647 46.0909 76.3748 46.2926 77.7888C46.4943 79.2028 45.4859 80.4148 44.0741 80.6168C43.8724 80.6168 43.8724 80.6168 43.6708 80.6168C42.4607 80.6168 41.4523 79.8088 41.2506 78.3948ZM24.9145 78.3948C23.5027 77.7888 22.8977 76.3748 23.5027 75.1627C24.1077 73.7487 25.5195 73.1427 26.7296 73.7487C28.1414 74.3547 28.7464 75.7687 28.1414 76.9808C27.738 77.9908 26.7296 78.5968 25.7212 78.5968C25.5195 78.5968 25.1161 78.5968 24.9145 78.3948ZM58.5951 73.1427C57.7884 71.9307 57.9901 70.3147 59.2002 69.5066C60.4103 68.6986 62.0237 68.9006 62.8304 70.1126C63.6371 71.3247 63.4355 72.9407 62.2254 73.7487C61.822 74.1527 61.217 74.1527 60.8136 74.1527C59.8052 74.3547 58.9985 73.9507 58.5951 73.1427ZM8.98169 67.4866C7.97328 66.4766 8.17497 64.8606 9.18337 63.8506C10.1918 62.8405 11.8052 63.0425 12.8136 64.0526C13.822 65.0626 13.6203 66.6786 12.6119 67.6886C12.2086 68.0926 11.6035 68.2946 10.9985 68.2946C10.1918 68.2946 9.58673 68.0926 8.98169 67.4866ZM71.5027 60.4165C70.2926 59.8105 69.6876 58.1945 70.4943 56.9824C71.0993 55.7704 72.7128 55.1644 73.9229 55.9724C75.1329 56.5784 75.738 58.1945 74.9313 59.4065C74.5279 60.2145 73.5195 60.8205 72.7128 60.8205C72.3094 60.8205 71.9061 60.6185 71.5027 60.4165ZM0.107739 50.3163C-0.295622 48.9023 0.5111 47.4883 1.92286 47.2863C3.33463 46.8823 4.74639 47.8923 4.94807 49.1043C5.35144 50.5183 4.34303 51.9324 3.13295 52.1344C2.93127 52.1344 2.72959 52.1344 2.52791 52.1344C1.31782 52.3364 0.30942 51.5284 0.107739 50.3163ZM74.3262 40.6202C74.3262 40.4182 74.3262 40.4182 74.3262 40.6202C74.3262 39.0041 75.5363 37.9941 76.9481 37.9941C78.3598 37.9941 79.5699 39.2062 79.5699 40.6202C79.5699 42.0342 78.3598 43.2462 76.9481 43.2462C75.5363 43.2462 74.3262 42.0342 74.3262 40.6202ZM1.92286 34.1561C0.5111 33.7521 -0.295622 32.338 0.107739 31.126C0.5111 29.712 1.92287 28.904 3.13295 29.308C4.54471 29.712 5.35144 31.126 4.94807 32.338C4.74639 33.5501 3.53631 34.3581 2.52791 34.3581C2.32623 34.1561 2.12455 34.1561 1.92286 34.1561ZM70.2926 24.0559C69.6876 22.8439 70.0909 21.2279 71.301 20.6218C72.5111 20.0158 74.1245 20.4198 74.7296 21.6319C75.3346 22.8439 74.9313 24.4599 73.7212 25.0659C73.3178 25.2679 72.9145 25.2679 72.5111 25.2679C71.7044 25.4699 70.696 25.0659 70.2926 24.0559ZM9.18337 17.5918C8.17497 16.5818 7.97328 14.9658 8.98169 13.9557C9.99009 12.9457 11.6035 12.7437 12.6119 13.7537C13.6203 14.7638 13.822 16.3798 12.8136 17.3898C12.2086 17.9958 11.6035 18.1978 10.7968 18.1978C10.1918 18.1978 9.58673 17.9958 9.18337 17.5918ZM58.9985 11.5317C57.7884 10.7237 57.5867 9.10766 58.3935 7.89564C59.2002 6.68362 60.8136 6.48161 62.0237 7.28963C63.2338 8.09764 63.4355 9.71367 62.6287 10.9257C62.0237 11.7337 61.4187 12.1377 60.4103 12.1377C60.0069 11.9357 59.6035 11.7337 58.9985 11.5317ZM23.301 6.07761C22.696 4.66358 23.5027 3.24956 24.7128 2.64355C26.1245 2.03754 27.5363 2.84555 28.1414 4.05757C28.7464 5.4716 27.9397 6.88562 26.7296 7.28963C26.5279 7.49163 26.1245 7.49163 25.7212 7.49163C24.7128 7.89564 23.7044 7.08762 23.301 6.07761ZM43.2674 5.6736C41.8556 5.4716 40.8472 4.25958 41.0489 2.84555C41.2506 1.43153 42.4607 0.421514 43.8724 0.623517C45.2842 0.82552 46.2926 2.03754 46.0909 3.45156C45.8893 4.66358 44.8808 5.6736 43.4691 5.6736C43.4691 5.6736 43.4691 5.6736 43.2674 5.6736Z" fill="#FFAF00"/>
</svg>
