<svg width="120" height="122" viewBox="0 0 120 122" fill="none" xmlns="http://www.w3.org/2000/svg">
<path d="M62.259 117.787C62.0573 115.565 63.469 113.747 65.6875 113.545C67.906 113.343 69.7211 114.757 69.9228 116.979C70.1245 119.201 68.7127 121.019 66.4943 121.221C66.2926 121.221 66.0909 121.221 66.0909 121.221C64.0741 121.019 62.4606 119.605 62.259 117.787ZM37.6539 117.585C35.6371 116.777 34.6287 114.555 35.4354 112.535C36.2422 110.515 38.4606 109.505 40.4775 110.313C42.4943 111.121 43.5027 113.343 42.6959 115.363C42.0909 116.979 40.6791 117.787 39.0657 117.787C38.6623 117.787 38.0573 117.787 37.6539 117.585ZM88.2758 109.707C87.0657 107.889 87.469 105.465 89.2842 104.253C91.0993 103.041 93.5195 103.445 94.7295 105.263C95.9396 107.081 95.5363 109.505 93.7211 110.717C93.1161 111.121 92.3094 111.323 91.5027 111.323C90.2926 111.323 89.0825 110.919 88.2758 109.707ZM13.6539 101.021C12.2422 99.4048 12.4438 96.9807 14.0573 95.5667C15.6707 94.1527 18.0909 94.3547 19.5027 95.9707C20.9144 97.5868 20.7127 100.011 19.0993 101.425C18.2926 102.031 17.4859 102.435 16.4775 102.435C15.469 102.435 14.4606 102.031 13.6539 101.021ZM107.839 90.5166C106.024 89.5066 105.217 87.0826 106.225 85.2645C107.234 83.4465 109.654 82.6385 111.469 83.6485C113.284 84.6585 114.091 87.0826 113.082 88.9006C112.477 90.3146 111.066 90.9206 109.654 90.9206C109.049 90.9206 108.444 90.9206 107.839 90.5166ZM0.141319 75.3664C-0.463723 73.3464 0.948042 71.1243 2.96485 70.7203C4.98166 70.1143 7.20014 71.5283 7.6035 73.5484C8.20855 75.5684 6.79678 77.7904 4.77997 78.1944C4.37661 78.1944 4.17493 78.3964 3.77157 78.3964C2.15813 78.1944 0.544681 76.9824 0.141319 75.3664ZM112.276 60.6201C112.276 60.4181 112.276 60.6201 112.276 60.6201C112.276 60.4181 112.276 60.4181 112.276 60.4181C112.276 58.1961 114.091 56.5801 116.108 56.5801C118.326 56.5801 119.94 58.3981 119.94 60.4181C119.94 60.4181 119.94 60.4181 119.94 60.6201C119.94 60.6201 119.94 60.6201 119.94 60.8221C119.94 63.0442 118.125 64.6602 116.108 64.6602C114.091 64.4582 112.276 62.6402 112.276 60.6201ZM2.96485 50.722C0.948042 50.116 -0.463723 48.0959 0.141319 46.0759C0.746361 44.0559 2.76317 42.6418 4.77997 43.2479C6.79678 43.8539 8.20855 45.8739 7.6035 47.8939C7.20014 49.712 5.5867 50.924 3.77157 50.924C3.56989 50.924 3.16653 50.924 2.96485 50.722ZM106.024 35.7737C105.015 33.9557 105.822 31.5317 107.637 30.5216C109.452 29.5116 111.872 30.3196 112.881 32.1377C113.889 33.9557 113.082 36.3797 111.267 37.3898C110.662 37.7938 110.057 37.7938 109.452 37.7938C108.242 37.7938 106.83 36.9858 106.024 35.7737ZM13.8556 25.6736C12.2422 24.2595 12.0405 21.8355 13.4522 20.2195C14.864 18.6034 17.2842 18.4014 18.8976 19.8155C20.5111 21.2295 20.7127 23.6535 19.301 25.2696C18.4943 26.0776 17.4859 26.4816 16.2758 26.4816C15.4691 26.6836 14.6623 26.4816 13.8556 25.6736ZM89.2842 16.7854C87.469 15.5734 87.0657 13.1494 88.2758 11.3313C89.4858 9.5133 91.906 9.10929 93.7211 10.3213C95.5363 11.5333 95.9396 13.9574 94.7295 15.7754C93.9228 16.7854 92.7127 17.3914 91.5027 17.3914C90.6959 17.3914 89.8892 17.1894 89.2842 16.7854ZM35.2338 8.70528C34.427 6.68525 35.4354 4.46321 37.4522 3.6552C39.4691 2.84719 41.6875 3.8572 42.4943 5.87724C43.301 7.89727 42.2926 10.1193 40.2758 10.9273C39.8724 11.1293 39.2674 11.1293 38.864 11.1293C37.2506 11.1293 35.8388 10.1193 35.2338 8.70528ZM65.4859 7.69527C63.2674 7.49326 61.8556 5.47323 62.0573 3.4532C62.259 1.23116 64.2758 -0.182863 66.2926 0.0191399C68.5111 0.221143 69.9228 2.24118 69.7211 4.26121C69.5195 6.28124 67.906 7.69527 65.8892 7.69527C65.6875 7.89727 65.4859 7.69527 65.4859 7.69527Z" fill="#FFAF00"/>
</svg>
