<svg width="245" height="20" viewBox="0 0 245 20" fill="none" xmlns="http://www.w3.org/2000/svg">
<path d="M0.66 16V2.14H9.42V4.28H3.18V7.82H8.72V9.96H3.18V16H0.66ZM14.3372 14.3C15.0839 14.3 15.6505 14.26 16.0372 14.18V11.5C15.9039 11.46 15.7105 11.42 15.4572 11.38C15.2039 11.34 14.9239 11.32 14.6172 11.32C14.3505 11.32 14.0772 11.34 13.7972 11.38C13.5305 11.42 13.2839 11.4933 13.0572 11.6C12.8439 11.7067 12.6705 11.86 12.5372 12.06C12.4039 12.2467 12.3372 12.4867 12.3372 12.78C12.3372 13.3533 12.5172 13.7533 12.8772 13.98C13.2372 14.1933 13.7239 14.3 14.3372 14.3ZM14.1372 5.28C14.9372 5.28 15.6105 5.38 16.1572 5.58C16.7039 5.78 17.1372 6.06 17.4572 6.42C17.7905 6.78 18.0239 7.22 18.1572 7.74C18.3039 8.24667 18.3772 8.80667 18.3772 9.42V15.76C18.0039 15.84 17.4372 15.9333 16.6772 16.04C15.9305 16.16 15.0839 16.22 14.1372 16.22C13.5105 16.22 12.9372 16.16 12.4172 16.04C11.8972 15.92 11.4505 15.7267 11.0772 15.46C10.7172 15.1933 10.4305 14.8467 10.2172 14.42C10.0172 13.9933 9.91719 13.4667 9.91719 12.84C9.91719 12.24 10.0305 11.7333 10.2572 11.32C10.4972 10.9067 10.8172 10.5733 11.2172 10.32C11.6172 10.0533 12.0772 9.86667 12.5972 9.76C13.1305 9.64 13.6839 9.58 14.2572 9.58C14.5239 9.58 14.8039 9.6 15.0972 9.64C15.3905 9.66667 15.7039 9.72 16.0372 9.8V9.4C16.0372 9.12 16.0039 8.85333 15.9372 8.6C15.8705 8.34667 15.7505 8.12667 15.5772 7.94C15.4172 7.74 15.1972 7.58667 14.9172 7.48C14.6505 7.37333 14.3105 7.32 13.8972 7.32C13.3372 7.32 12.8239 7.36 12.3572 7.44C11.8905 7.52 11.5105 7.61333 11.2172 7.72L10.9172 5.76C11.2239 5.65333 11.6705 5.54667 12.2572 5.44C12.8439 5.33333 13.4705 5.28 14.1372 5.28ZM23.9608 14.26C24.6008 14.26 25.0674 14.1867 25.3608 14.04C25.6541 13.88 25.8008 13.6133 25.8008 13.24C25.8008 12.8933 25.6408 12.6067 25.3208 12.38C25.0141 12.1533 24.5008 11.9067 23.7808 11.64C23.3408 11.48 22.9341 11.3133 22.5608 11.14C22.2008 10.9533 21.8874 10.74 21.6208 10.5C21.3541 10.26 21.1408 9.97333 20.9808 9.64C20.8341 9.29333 20.7608 8.87333 20.7608 8.38C20.7608 7.42 21.1141 6.66667 21.8208 6.12C22.5274 5.56 23.4874 5.28 24.7008 5.28C25.3141 5.28 25.9008 5.34 26.4608 5.46C27.0208 5.56667 27.4408 5.67333 27.7208 5.78L27.2808 7.74C27.0141 7.62 26.6741 7.51333 26.2608 7.42C25.8474 7.31333 25.3674 7.26 24.8208 7.26C24.3274 7.26 23.9274 7.34667 23.6208 7.52C23.3141 7.68 23.1608 7.93333 23.1608 8.28C23.1608 8.45333 23.1874 8.60667 23.2408 8.74C23.3074 8.87333 23.4141 9 23.5608 9.12C23.7074 9.22667 23.9008 9.34 24.1408 9.46C24.3808 9.56667 24.6741 9.68 25.0208 9.8C25.5941 10.0133 26.0808 10.2267 26.4808 10.44C26.8808 10.64 27.2074 10.8733 27.4608 11.14C27.7274 11.3933 27.9208 11.6867 28.0408 12.02C28.1608 12.3533 28.2208 12.7533 28.2208 13.22C28.2208 14.22 27.8474 14.98 27.1008 15.5C26.3674 16.0067 25.3141 16.26 23.9408 16.26C23.0208 16.26 22.2808 16.18 21.7208 16.02C21.1608 15.8733 20.7674 15.7533 20.5408 15.66L20.9608 13.64C21.3208 13.7867 21.7474 13.9267 22.2408 14.06C22.7474 14.1933 23.3208 14.26 23.9608 14.26ZM30.4814 16V0.879999L32.9014 0.48V5.66C33.1681 5.56667 33.4747 5.48667 33.8214 5.42C34.1814 5.35333 34.5347 5.32 34.8814 5.32C35.7214 5.32 36.4147 5.44 36.9614 5.68C37.5214 5.90667 37.9681 6.23333 38.3014 6.66C38.6347 7.07333 38.8681 7.57333 39.0014 8.16C39.1481 8.74667 39.2214 9.4 39.2214 10.12V16H36.8014V10.5C36.8014 9.94 36.7614 9.46667 36.6814 9.08C36.6147 8.68 36.4947 8.36 36.3214 8.12C36.1614 7.86667 35.9414 7.68667 35.6614 7.58C35.3814 7.46 35.0347 7.4 34.6214 7.4C34.3014 7.4 33.9747 7.43333 33.6414 7.5C33.3081 7.56667 33.0614 7.62667 32.9014 7.68V16H30.4814ZM44.562 16H42.142V5.54H44.562V16ZM44.822 2.48C44.822 2.93333 44.6754 3.29333 44.382 3.56C44.0887 3.82667 43.742 3.96 43.342 3.96C42.9287 3.96 42.5754 3.82667 42.282 3.56C41.9887 3.29333 41.842 2.93333 41.842 2.48C41.842 2.01333 41.9887 1.64667 42.282 1.38C42.5754 1.11333 42.9287 0.979999 43.342 0.979999C43.742 0.979999 44.0887 1.11333 44.382 1.38C44.6754 1.64667 44.822 2.01333 44.822 2.48ZM57.1094 10.76C57.1094 11.5867 56.9894 12.34 56.7494 13.02C56.5094 13.7 56.1694 14.28 55.7294 14.76C55.2894 15.24 54.756 15.6133 54.1294 15.88C53.516 16.1467 52.836 16.28 52.0894 16.28C51.3427 16.28 50.6627 16.1467 50.0494 15.88C49.436 15.6133 48.9094 15.24 48.4694 14.76C48.0294 14.28 47.6827 13.7 47.4294 13.02C47.1894 12.34 47.0694 11.5867 47.0694 10.76C47.0694 9.93333 47.1894 9.18667 47.4294 8.52C47.6827 7.84 48.0294 7.26 48.4694 6.78C48.9227 6.3 49.456 5.93333 50.0694 5.68C50.6827 5.41333 51.356 5.28 52.0894 5.28C52.8227 5.28 53.496 5.41333 54.1094 5.68C54.736 5.93333 55.2694 6.3 55.7094 6.78C56.1494 7.26 56.4894 7.84 56.7294 8.52C56.9827 9.18667 57.1094 9.93333 57.1094 10.76ZM54.6294 10.76C54.6294 9.72 54.4027 8.9 53.9494 8.3C53.5094 7.68667 52.8894 7.38 52.0894 7.38C51.2894 7.38 50.6627 7.68667 50.2094 8.3C49.7694 8.9 49.5494 9.72 49.5494 10.76C49.5494 11.8133 49.7694 12.6467 50.2094 13.26C50.6627 13.8733 51.2894 14.18 52.0894 14.18C52.8894 14.18 53.5094 13.8733 53.9494 13.26C54.4027 12.6467 54.6294 11.8133 54.6294 10.76ZM59.6025 5.88C60.0692 5.74667 60.6758 5.62 61.4225 5.5C62.1692 5.38 62.9958 5.32 63.9025 5.32C64.7558 5.32 65.4692 5.44 66.0425 5.68C66.6158 5.90667 67.0692 6.23333 67.4025 6.66C67.7492 7.07333 67.9892 7.58 68.1225 8.18C68.2692 8.76667 68.3425 9.41333 68.3425 10.12V16H65.9225V10.5C65.9225 9.94 65.8825 9.46667 65.8025 9.08C65.7358 8.68 65.6158 8.36 65.4425 8.12C65.2825 7.86667 65.0558 7.68667 64.7625 7.58C64.4825 7.46 64.1358 7.4 63.7225 7.4C63.4158 7.4 63.0958 7.42 62.7625 7.46C62.4292 7.5 62.1825 7.53333 62.0225 7.56V16H59.6025V5.88ZM79.4497 14.12C80.3564 14.12 81.0164 13.9667 81.4297 13.66C81.843 13.3533 82.0497 12.92 82.0497 12.36C82.0497 12.0267 81.9764 11.74 81.8297 11.5C81.6964 11.26 81.4964 11.0467 81.2297 10.86C80.9764 10.66 80.663 10.48 80.2897 10.32C79.9164 10.1467 79.4897 9.98 79.0097 9.82C78.5297 9.64667 78.063 9.46 77.6097 9.26C77.1697 9.04667 76.7764 8.78667 76.4297 8.48C76.0964 8.17333 75.823 7.80667 75.6097 7.38C75.4097 6.95333 75.3097 6.44 75.3097 5.84C75.3097 4.58667 75.743 3.60667 76.6097 2.9C77.4764 2.18 78.6564 1.82 80.1497 1.82C81.0164 1.82 81.783 1.92 82.4497 2.12C83.1297 2.30667 83.663 2.51333 84.0497 2.74L83.2697 4.78C82.8164 4.52667 82.3164 4.33333 81.7697 4.2C81.2364 4.06667 80.683 4 80.1097 4C79.4297 4 78.8964 4.14 78.5097 4.42C78.1364 4.7 77.9497 5.09333 77.9497 5.6C77.9497 5.90667 78.0097 6.17333 78.1297 6.4C78.263 6.61333 78.443 6.80667 78.6697 6.98C78.9097 7.15333 79.183 7.31333 79.4897 7.46C79.8097 7.60667 80.1564 7.74667 80.5297 7.88C81.183 8.12 81.763 8.36667 82.2697 8.62C82.7897 8.86 83.223 9.15333 83.5697 9.5C83.9297 9.83333 84.203 10.2333 84.3897 10.7C84.5764 11.1533 84.6697 11.7067 84.6697 12.36C84.6697 13.6133 84.223 14.5867 83.3297 15.28C82.4497 15.96 81.1564 16.3 79.4497 16.3C78.8764 16.3 78.3497 16.26 77.8697 16.18C77.403 16.1133 76.983 16.0267 76.6097 15.92C76.2497 15.8133 75.9364 15.7067 75.6697 15.6C75.403 15.48 75.1897 15.3733 75.0297 15.28L75.7697 13.22C76.1297 13.42 76.6164 13.62 77.2297 13.82C77.843 14.02 78.583 14.12 79.4497 14.12ZM86.6505 2.78L89.0705 2.38V5.54H92.7905V7.56H89.0705V11.82C89.0705 12.66 89.2038 13.26 89.4705 13.62C89.7371 13.98 90.1905 14.16 90.8305 14.16C91.2705 14.16 91.6571 14.1133 91.9905 14.02C92.3371 13.9267 92.6105 13.84 92.8105 13.76L93.2105 15.68C92.9305 15.8 92.5638 15.92 92.1105 16.04C91.6571 16.1733 91.1238 16.24 90.5105 16.24C89.7638 16.24 89.1371 16.14 88.6305 15.94C88.1371 15.74 87.7438 15.4533 87.4505 15.08C87.1571 14.6933 86.9505 14.2333 86.8305 13.7C86.7105 13.1533 86.6505 12.5333 86.6505 11.84V2.78ZM104.355 10.76C104.355 11.5867 104.235 12.34 103.995 13.02C103.755 13.7 103.415 14.28 102.975 14.76C102.535 15.24 102.002 15.6133 101.375 15.88C100.762 16.1467 100.082 16.28 99.3355 16.28C98.5888 16.28 97.9088 16.1467 97.2955 15.88C96.6821 15.6133 96.1555 15.24 95.7155 14.76C95.2755 14.28 94.9288 13.7 94.6755 13.02C94.4355 12.34 94.3155 11.5867 94.3155 10.76C94.3155 9.93333 94.4355 9.18667 94.6755 8.52C94.9288 7.84 95.2755 7.26 95.7155 6.78C96.1688 6.3 96.7021 5.93333 97.3155 5.68C97.9288 5.41333 98.6021 5.28 99.3355 5.28C100.069 5.28 100.742 5.41333 101.355 5.68C101.982 5.93333 102.515 6.3 102.955 6.78C103.395 7.26 103.735 7.84 103.975 8.52C104.229 9.18667 104.355 9.93333 104.355 10.76ZM101.875 10.76C101.875 9.72 101.649 8.9 101.195 8.3C100.755 7.68667 100.135 7.38 99.3355 7.38C98.5355 7.38 97.9088 7.68667 97.4555 8.3C97.0155 8.9 96.7955 9.72 96.7955 10.76C96.7955 11.8133 97.0155 12.6467 97.4555 13.26C97.9088 13.8733 98.5355 14.18 99.3355 14.18C100.135 14.18 100.755 13.8733 101.195 13.26C101.649 12.6467 101.875 11.8133 101.875 10.76ZM112.809 7.72C112.609 7.65333 112.329 7.58667 111.969 7.52C111.622 7.44 111.215 7.4 110.749 7.4C110.482 7.4 110.195 7.42667 109.889 7.48C109.595 7.53333 109.389 7.58 109.269 7.62V16H106.849V6.04C107.315 5.86667 107.895 5.70667 108.589 5.56C109.295 5.4 110.075 5.32 110.929 5.32C111.089 5.32 111.275 5.33333 111.489 5.36C111.702 5.37333 111.915 5.4 112.129 5.44C112.342 5.46667 112.549 5.50667 112.749 5.56C112.949 5.6 113.109 5.64 113.229 5.68L112.809 7.72ZM114.335 10.82C114.335 9.9 114.468 9.09333 114.735 8.4C115.015 7.70667 115.382 7.13333 115.835 6.68C116.288 6.21333 116.808 5.86667 117.395 5.64C117.982 5.4 118.582 5.28 119.195 5.28C120.635 5.28 121.755 5.72667 122.555 6.62C123.368 7.51333 123.775 8.84667 123.775 10.62C123.775 10.7533 123.768 10.9067 123.755 11.08C123.755 11.24 123.748 11.3867 123.735 11.52H116.835C116.902 12.36 117.195 13.0133 117.715 13.48C118.248 13.9333 119.015 14.16 120.015 14.16C120.602 14.16 121.135 14.1067 121.615 14C122.108 13.8933 122.495 13.78 122.775 13.66L123.095 15.64C122.962 15.7067 122.775 15.78 122.535 15.86C122.308 15.9267 122.042 15.9867 121.735 16.04C121.442 16.1067 121.122 16.16 120.775 16.2C120.428 16.24 120.075 16.26 119.715 16.26C118.795 16.26 117.995 16.1267 117.315 15.86C116.635 15.58 116.075 15.2 115.635 14.72C115.195 14.2267 114.868 13.6533 114.655 13C114.442 12.3333 114.335 11.6067 114.335 10.82ZM121.355 9.74C121.355 9.40667 121.308 9.09333 121.215 8.8C121.122 8.49333 120.982 8.23333 120.795 8.02C120.622 7.79333 120.402 7.62 120.135 7.5C119.882 7.36667 119.575 7.3 119.215 7.3C118.842 7.3 118.515 7.37333 118.235 7.52C117.955 7.65333 117.715 7.83333 117.515 8.06C117.328 8.28667 117.182 8.54667 117.075 8.84C116.968 9.13333 116.895 9.43333 116.855 9.74H121.355ZM134.149 2.14C134.442 2.64667 134.769 3.26667 135.129 4C135.489 4.73333 135.855 5.50667 136.229 6.32C136.602 7.12 136.969 7.94 137.329 8.78C137.702 9.60667 138.042 10.3733 138.349 11.08C138.655 10.3733 138.989 9.60667 139.349 8.78C139.709 7.94 140.075 7.12 140.449 6.32C140.822 5.50667 141.189 4.73333 141.549 4C141.909 3.26667 142.235 2.64667 142.529 2.14H144.809C144.929 3.15333 145.042 4.23333 145.149 5.38C145.255 6.51333 145.349 7.68 145.429 8.88C145.522 10.0667 145.602 11.2667 145.669 12.48C145.749 13.68 145.815 14.8533 145.869 16H143.389C143.335 14.3867 143.269 12.7267 143.189 11.02C143.122 9.31333 143.015 7.66 142.869 6.06C142.722 6.36667 142.549 6.73333 142.349 7.16C142.149 7.58667 141.935 8.05333 141.709 8.56C141.482 9.05333 141.249 9.56667 141.009 10.1C140.782 10.6333 140.555 11.1533 140.329 11.66C140.115 12.1533 139.915 12.62 139.729 13.06C139.542 13.4867 139.382 13.8533 139.249 14.16H137.369C137.235 13.8533 137.075 13.48 136.889 13.04C136.702 12.6 136.495 12.1333 136.269 11.64C136.055 11.1333 135.829 10.6133 135.589 10.08C135.362 9.54667 135.135 9.03333 134.909 8.54C134.682 8.04667 134.469 7.58667 134.269 7.16C134.069 6.72 133.895 6.35333 133.749 6.06C133.602 7.66 133.489 9.31333 133.409 11.02C133.342 12.7267 133.282 14.3867 133.229 16H130.749C130.802 14.8533 130.862 13.6667 130.929 12.44C131.009 11.2133 131.089 10 131.169 8.8C131.262 7.58667 131.362 6.41333 131.469 5.28C131.575 4.14667 131.689 3.1 131.809 2.14H134.149ZM158.145 10.76C158.145 11.5867 158.025 12.34 157.785 13.02C157.545 13.7 157.205 14.28 156.765 14.76C156.325 15.24 155.791 15.6133 155.165 15.88C154.551 16.1467 153.871 16.28 153.125 16.28C152.378 16.28 151.698 16.1467 151.085 15.88C150.471 15.6133 149.945 15.24 149.505 14.76C149.065 14.28 148.718 13.7 148.465 13.02C148.225 12.34 148.105 11.5867 148.105 10.76C148.105 9.93333 148.225 9.18667 148.465 8.52C148.718 7.84 149.065 7.26 149.505 6.78C149.958 6.3 150.491 5.93333 151.105 5.68C151.718 5.41333 152.391 5.28 153.125 5.28C153.858 5.28 154.531 5.41333 155.145 5.68C155.771 5.93333 156.305 6.3 156.745 6.78C157.185 7.26 157.525 7.84 157.765 8.52C158.018 9.18667 158.145 9.93333 158.145 10.76ZM155.665 10.76C155.665 9.72 155.438 8.9 154.985 8.3C154.545 7.68667 153.925 7.38 153.125 7.38C152.325 7.38 151.698 7.68667 151.245 8.3C150.805 8.9 150.585 9.72 150.585 10.76C150.585 11.8133 150.805 12.6467 151.245 13.26C151.698 13.8733 152.325 14.18 153.125 14.18C153.925 14.18 154.545 13.8733 154.985 13.26C155.438 12.6467 155.665 11.8133 155.665 10.76ZM167.578 10.74C167.578 9.71333 167.371 8.9 166.958 8.3C166.558 7.7 165.918 7.4 165.038 7.4C164.638 7.4 164.258 7.46 163.898 7.58C163.551 7.7 163.271 7.83333 163.058 7.98V14C163.231 14.04 163.451 14.08 163.718 14.12C163.998 14.1467 164.331 14.16 164.718 14.16C165.611 14.16 166.311 13.86 166.818 13.26C167.324 12.6467 167.578 11.8067 167.578 10.74ZM170.058 10.78C170.058 11.62 169.931 12.38 169.678 13.06C169.438 13.7267 169.084 14.3 168.618 14.78C168.164 15.26 167.611 15.6267 166.958 15.88C166.304 16.1333 165.564 16.26 164.738 16.26C163.938 16.26 163.171 16.2 162.438 16.08C161.718 15.96 161.118 15.8267 160.638 15.68V0.879999L163.058 0.48V5.9C163.338 5.75333 163.678 5.62 164.078 5.5C164.491 5.38 164.944 5.32 165.438 5.32C166.171 5.32 166.824 5.45333 167.398 5.72C167.984 5.97333 168.471 6.34 168.858 6.82C169.244 7.3 169.538 7.88 169.738 8.56C169.951 9.22667 170.058 9.96667 170.058 10.78ZM174.992 16H172.572V5.54H174.992V16ZM175.252 2.48C175.252 2.93333 175.105 3.29333 174.812 3.56C174.518 3.82667 174.172 3.96 173.772 3.96C173.358 3.96 173.005 3.82667 172.712 3.56C172.418 3.29333 172.272 2.93333 172.272 2.48C172.272 2.01333 172.418 1.64667 172.712 1.38C173.005 1.11333 173.358 0.979999 173.772 0.979999C174.172 0.979999 174.518 1.11333 174.812 1.38C175.105 1.64667 175.252 2.01333 175.252 2.48ZM181.719 16.2C180.999 16.1867 180.399 16.1067 179.919 15.96C179.452 15.8133 179.079 15.6067 178.799 15.34C178.519 15.06 178.319 14.72 178.199 14.32C178.092 13.9067 178.039 13.44 178.039 12.92V0.879999L180.459 0.48V12.46C180.459 12.7533 180.479 13 180.519 13.2C180.572 13.4 180.659 13.5733 180.779 13.72C180.899 13.8533 181.059 13.96 181.259 14.04C181.472 14.1067 181.739 14.16 182.059 14.2L181.719 16.2ZM183.437 10.82C183.437 9.9 183.57 9.09333 183.837 8.4C184.117 7.70667 184.483 7.13333 184.937 6.68C185.39 6.21333 185.91 5.86667 186.497 5.64C187.083 5.4 187.683 5.28 188.297 5.28C189.737 5.28 190.857 5.72667 191.657 6.62C192.47 7.51333 192.877 8.84667 192.877 10.62C192.877 10.7533 192.87 10.9067 192.857 11.08C192.857 11.24 192.85 11.3867 192.837 11.52H185.937C186.003 12.36 186.297 13.0133 186.817 13.48C187.35 13.9333 188.117 14.16 189.117 14.16C189.703 14.16 190.237 14.1067 190.717 14C191.21 13.8933 191.597 13.78 191.877 13.66L192.197 15.64C192.063 15.7067 191.877 15.78 191.637 15.86C191.41 15.9267 191.143 15.9867 190.837 16.04C190.543 16.1067 190.223 16.16 189.877 16.2C189.53 16.24 189.177 16.26 188.817 16.26C187.897 16.26 187.097 16.1267 186.417 15.86C185.737 15.58 185.177 15.2 184.737 14.72C184.297 14.2267 183.97 13.6533 183.757 13C183.543 12.3333 183.437 11.6067 183.437 10.82ZM190.457 9.74C190.457 9.40667 190.41 9.09333 190.317 8.8C190.223 8.49333 190.083 8.23333 189.897 8.02C189.723 7.79333 189.503 7.62 189.237 7.5C188.983 7.36667 188.677 7.3 188.317 7.3C187.943 7.3 187.617 7.37333 187.337 7.52C187.057 7.65333 186.817 7.83333 186.617 8.06C186.43 8.28667 186.283 8.54667 186.177 8.84C186.07 9.13333 185.997 9.43333 185.957 9.74H190.457ZM209.43 16C209.244 15.4533 209.05 14.9133 208.85 14.38C208.65 13.8467 208.457 13.3 208.27 12.74H202.43C202.244 13.3 202.05 13.8533 201.85 14.4C201.664 14.9333 201.477 15.4667 201.29 16H198.67C199.19 14.52 199.684 13.1533 200.15 11.9C200.617 10.6467 201.07 9.46 201.51 8.34C201.964 7.22 202.41 6.15333 202.85 5.14C203.29 4.12667 203.744 3.12667 204.21 2.14H206.59C207.057 3.12667 207.51 4.12667 207.95 5.14C208.39 6.15333 208.83 7.22 209.27 8.34C209.724 9.46 210.184 10.6467 210.65 11.9C211.13 13.1533 211.63 14.52 212.15 16H209.43ZM205.35 4.82C205.044 5.52667 204.69 6.38667 204.29 7.4C203.904 8.41333 203.497 9.51333 203.07 10.7H207.63C207.204 9.51333 206.79 8.40667 206.39 7.38C205.99 6.35333 205.644 5.5 205.35 4.82ZM220.722 10.82C220.722 9.74 220.476 8.9 219.982 8.3C219.502 7.7 218.722 7.4 217.642 7.4C217.416 7.4 217.176 7.41333 216.922 7.44C216.682 7.45333 216.442 7.49333 216.202 7.56V13.54C216.416 13.6867 216.696 13.8267 217.042 13.96C217.402 14.08 217.782 14.14 218.182 14.14C219.062 14.14 219.702 13.84 220.102 13.24C220.516 12.64 220.722 11.8333 220.722 10.82ZM223.202 10.78C223.202 11.58 223.096 12.3133 222.882 12.98C222.682 13.6467 222.389 14.22 222.002 14.7C221.616 15.18 221.129 15.5533 220.542 15.82C219.969 16.0867 219.316 16.22 218.582 16.22C218.089 16.22 217.636 16.16 217.222 16.04C216.809 15.92 216.469 15.7867 216.202 15.64V19.7H213.782V5.88C214.276 5.74667 214.882 5.62 215.602 5.5C216.322 5.38 217.082 5.32 217.882 5.32C218.709 5.32 219.449 5.44667 220.102 5.7C220.756 5.95333 221.309 6.32 221.762 6.8C222.229 7.26667 222.582 7.84 222.822 8.52C223.076 9.18667 223.202 9.94 223.202 10.78ZM232.636 10.82C232.636 9.74 232.39 8.9 231.896 8.3C231.416 7.7 230.636 7.4 229.556 7.4C229.33 7.4 229.09 7.41333 228.836 7.44C228.596 7.45333 228.356 7.49333 228.116 7.56V13.54C228.33 13.6867 228.61 13.8267 228.956 13.96C229.316 14.08 229.696 14.14 230.096 14.14C230.976 14.14 231.616 13.84 232.016 13.24C232.43 12.64 232.636 11.8333 232.636 10.82ZM235.116 10.78C235.116 11.58 235.01 12.3133 234.796 12.98C234.596 13.6467 234.303 14.22 233.916 14.7C233.53 15.18 233.043 15.5533 232.456 15.82C231.883 16.0867 231.23 16.22 230.496 16.22C230.003 16.22 229.55 16.16 229.136 16.04C228.723 15.92 228.383 15.7867 228.116 15.64V19.7H225.696V5.88C226.19 5.74667 226.796 5.62 227.516 5.5C228.236 5.38 228.996 5.32 229.796 5.32C230.623 5.32 231.363 5.44667 232.016 5.7C232.67 5.95333 233.223 6.32 233.676 6.8C234.143 7.26667 234.496 7.84 234.736 8.52C234.99 9.18667 235.116 9.94 235.116 10.78ZM240.23 14.26C240.87 14.26 241.337 14.1867 241.63 14.04C241.924 13.88 242.07 13.6133 242.07 13.24C242.07 12.8933 241.91 12.6067 241.59 12.38C241.284 12.1533 240.77 11.9067 240.05 11.64C239.61 11.48 239.204 11.3133 238.83 11.14C238.47 10.9533 238.157 10.74 237.89 10.5C237.624 10.26 237.41 9.97333 237.25 9.64C237.104 9.29333 237.03 8.87333 237.03 8.38C237.03 7.42 237.384 6.66667 238.09 6.12C238.797 5.56 239.757 5.28 240.97 5.28C241.584 5.28 242.17 5.34 242.73 5.46C243.29 5.56667 243.71 5.67333 243.99 5.78L243.55 7.74C243.284 7.62 242.944 7.51333 242.53 7.42C242.117 7.31333 241.637 7.26 241.09 7.26C240.597 7.26 240.197 7.34667 239.89 7.52C239.584 7.68 239.43 7.93333 239.43 8.28C239.43 8.45333 239.457 8.60667 239.51 8.74C239.577 8.87333 239.684 9 239.83 9.12C239.977 9.22667 240.17 9.34 240.41 9.46C240.65 9.56667 240.944 9.68 241.29 9.8C241.864 10.0133 242.35 10.2267 242.75 10.44C243.15 10.64 243.477 10.8733 243.73 11.14C243.997 11.3933 244.19 11.6867 244.31 12.02C244.43 12.3533 244.49 12.7533 244.49 13.22C244.49 14.22 244.117 14.98 243.37 15.5C242.637 16.0067 241.584 16.26 240.21 16.26C239.29 16.26 238.55 16.18 237.99 16.02C237.43 15.8733 237.037 15.7533 236.81 15.66L237.23 13.64C237.59 13.7867 238.017 13.9267 238.51 14.06C239.017 14.1933 239.59 14.26 240.23 14.26Z" fill="#14183E"/>
</svg>
