<svg width="176" height="66" viewBox="0 0 176 66" fill="none" xmlns="http://www.w3.org/2000/svg">
<path d="M39.0039 1.852V4.79H31.4379V9.444H37.2359V12.33H31.4379V20H27.7979V1.852H39.0039ZM45.225 7.832C45.693 7.06933 46.2997 6.47133 47.045 6.038C47.8077 5.60467 48.6743 5.388 49.645 5.388V9.21H48.683C47.539 9.21 46.6723 9.47867 46.083 10.016C45.511 10.5533 45.225 11.4893 45.225 12.824V20H41.585V5.596H45.225V7.832ZM58.4927 20.234C57.1061 20.234 55.8581 19.9307 54.7487 19.324C53.6394 18.7 52.7641 17.8247 52.1227 16.698C51.4987 15.5713 51.1867 14.2713 51.1867 12.798C51.1867 11.3247 51.5074 10.0247 52.1487 8.898C52.8074 7.77133 53.7001 6.90467 54.8267 6.298C55.9534 5.674 57.2101 5.362 58.5967 5.362C59.9834 5.362 61.2401 5.674 62.3667 6.298C63.4934 6.90467 64.3774 7.77133 65.0187 8.898C65.6774 10.0247 66.0067 11.3247 66.0067 12.798C66.0067 14.2713 65.6687 15.5713 64.9927 16.698C64.3341 17.8247 63.4327 18.7 62.2887 19.324C61.1621 19.9307 59.8967 20.234 58.4927 20.234ZM58.4927 17.062C59.1514 17.062 59.7667 16.906 60.3387 16.594C60.9281 16.2647 61.3961 15.7793 61.7427 15.138C62.0894 14.4967 62.2627 13.7167 62.2627 12.798C62.2627 11.4287 61.8987 10.38 61.1707 9.652C60.4601 8.90667 59.5847 8.534 58.5447 8.534C57.5047 8.534 56.6294 8.90667 55.9187 9.652C55.2254 10.38 54.8787 11.4287 54.8787 12.798C54.8787 14.1673 55.2167 15.2247 55.8927 15.97C56.5861 16.698 57.4527 17.062 58.4927 17.062ZM76.6588 5.388C78.3748 5.388 79.7615 5.934 80.8188 7.026C81.8761 8.10067 82.4048 9.60867 82.4048 11.55V20H78.7648V12.044C78.7648 10.9 78.4788 10.0247 77.9068 9.418C77.3348 8.794 76.5548 8.482 75.5668 8.482C74.5615 8.482 73.7641 8.794 73.1748 9.418C72.6028 10.0247 72.3168 10.9 72.3168 12.044V20H68.6768V5.596H72.3168V7.39C72.8021 6.766 73.4175 6.28067 74.1628 5.934C74.9255 5.57 75.7575 5.388 76.6588 5.388ZM90.1043 8.586V15.554C90.1043 16.0393 90.2169 16.3947 90.4423 16.62C90.6849 16.828 91.0836 16.932 91.6383 16.932H93.3283V20H91.0403C87.9723 20 86.4383 18.5093 86.4383 15.528V8.586H84.7223V5.596H86.4383V2.034H90.1043V5.596H93.3283V8.586H90.1043ZM105.782 4.79V9.34H111.892V12.226H105.782V17.036H112.672V20H102.142V1.826H112.672V4.79H105.782ZM123.962 5.388C125.678 5.388 127.064 5.934 128.122 7.026C129.179 8.10067 129.708 9.60867 129.708 11.55V20H126.068V12.044C126.068 10.9 125.782 10.0247 125.21 9.418C124.638 8.794 123.858 8.482 122.87 8.482C121.864 8.482 121.067 8.794 120.478 9.418C119.906 10.0247 119.62 10.9 119.62 12.044V20H115.98V5.596H119.62V7.39C120.105 6.766 120.72 6.28067 121.466 5.934C122.228 5.57 123.06 5.388 123.962 5.388ZM132.233 12.746C132.233 11.29 132.519 9.99867 133.091 8.872C133.68 7.74533 134.478 6.87867 135.483 6.272C136.488 5.66533 137.606 5.362 138.837 5.362C139.773 5.362 140.666 5.57 141.515 5.986C142.364 6.38467 143.04 6.922 143.543 7.598V0.76H147.235V20H143.543V17.868C143.092 18.5787 142.46 19.1507 141.645 19.584C140.83 20.0173 139.886 20.234 138.811 20.234C137.598 20.234 136.488 19.922 135.483 19.298C134.478 18.674 133.68 17.7987 133.091 16.672C132.519 15.528 132.233 14.2193 132.233 12.746ZM143.569 12.798C143.569 11.914 143.396 11.16 143.049 10.536C142.702 9.89467 142.234 9.40933 141.645 9.08C141.056 8.73333 140.423 8.56 139.747 8.56C139.071 8.56 138.447 8.72467 137.875 9.054C137.303 9.38333 136.835 9.86867 136.471 10.51C136.124 11.134 135.951 11.8793 135.951 12.746C135.951 13.6127 136.124 14.3753 136.471 15.034C136.835 15.6753 137.303 16.1693 137.875 16.516C138.464 16.8627 139.088 17.036 139.747 17.036C140.423 17.036 141.056 16.8713 141.645 16.542C142.234 16.1953 142.702 15.71 143.049 15.086C143.396 14.4447 143.569 13.682 143.569 12.798ZM6.49152 40.852C8.39818 40.852 10.0708 41.2247 11.5095 41.97C12.9655 42.7153 14.0835 43.7813 14.8635 45.168C15.6609 46.5373 16.0595 48.132 16.0595 49.952C16.0595 51.772 15.6609 53.3667 14.8635 54.736C14.0835 56.088 12.9655 57.1367 11.5095 57.882C10.0708 58.6273 8.39818 59 6.49152 59H0.147516V40.852H6.49152ZM6.36152 55.906C8.26818 55.906 9.74152 55.386 10.7815 54.346C11.8215 53.306 12.3415 51.8413 12.3415 49.952C12.3415 48.0627 11.8215 46.5893 10.7815 45.532C9.74152 44.4573 8.26818 43.92 6.36152 43.92H3.78752V55.906H6.36152ZM32.1742 51.486C32.1742 52.006 32.1396 52.474 32.0702 52.89H21.5402C21.6269 53.93 21.9909 54.7447 22.6322 55.334C23.2736 55.9233 24.0622 56.218 24.9982 56.218C26.3502 56.218 27.3122 55.6373 27.8842 54.476H31.8102C31.3942 55.8627 30.5969 57.0067 29.4182 57.908C28.2396 58.792 26.7922 59.234 25.0762 59.234C23.6896 59.234 22.4416 58.9307 21.3322 58.324C20.2402 57.7 19.3822 56.8247 18.7582 55.698C18.1516 54.5713 17.8482 53.2713 17.8482 51.798C17.8482 50.3073 18.1516 48.9987 18.7582 47.872C19.3649 46.7453 20.2142 45.8787 21.3062 45.272C22.3982 44.6653 23.6549 44.362 25.0762 44.362C26.4456 44.362 27.6676 44.6567 28.7422 45.246C29.8342 45.8353 30.6749 46.676 31.2642 47.768C31.8709 48.8427 32.1742 50.082 32.1742 51.486ZM28.4042 50.446C28.3869 49.51 28.0489 48.7647 27.3902 48.21C26.7316 47.638 25.9256 47.352 24.9722 47.352C24.0709 47.352 23.3082 47.6293 22.6842 48.184C22.0776 48.7213 21.7049 49.4753 21.5662 50.446H28.4042ZM40.8371 55.646L44.4771 44.596H48.3511L43.0211 59H38.6011L33.2971 44.596H37.1971L40.8371 55.646ZM63.7856 51.486C63.7856 52.006 63.7509 52.474 63.6816 52.89H53.1516C53.2382 53.93 53.6022 54.7447 54.2436 55.334C54.8849 55.9233 55.6736 56.218 56.6096 56.218C57.9616 56.218 58.9236 55.6373 59.4956 54.476H63.4216C63.0056 55.8627 62.2082 57.0067 61.0296 57.908C59.8509 58.792 58.4036 59.234 56.6876 59.234C55.3009 59.234 54.0529 58.9307 52.9436 58.324C51.8516 57.7 50.9936 56.8247 50.3696 55.698C49.7629 54.5713 49.4596 53.2713 49.4596 51.798C49.4596 50.3073 49.7629 48.9987 50.3696 47.872C50.9762 46.7453 51.8256 45.8787 52.9176 45.272C54.0096 44.6653 55.2662 44.362 56.6876 44.362C58.0569 44.362 59.2789 44.6567 60.3536 45.246C61.4456 45.8353 62.2862 46.676 62.8756 47.768C63.4822 48.8427 63.7856 50.082 63.7856 51.486ZM60.0156 50.446C59.9982 49.51 59.6602 48.7647 59.0016 48.21C58.3429 47.638 57.5369 47.352 56.5836 47.352C55.6822 47.352 54.9196 47.6293 54.2956 48.184C53.6889 48.7213 53.3162 49.4753 53.1776 50.446H60.0156ZM70.0824 39.76V59H66.4424V39.76H70.0824ZM80.0748 59.234C78.6881 59.234 77.4401 58.9307 76.3308 58.324C75.2214 57.7 74.3461 56.8247 73.7048 55.698C73.0808 54.5713 72.7688 53.2713 72.7688 51.798C72.7688 50.3247 73.0894 49.0247 73.7308 47.898C74.3894 46.7713 75.2821 45.9047 76.4088 45.298C77.5354 44.674 78.7921 44.362 80.1788 44.362C81.5654 44.362 82.8221 44.674 83.9488 45.298C85.0754 45.9047 85.9594 46.7713 86.6008 47.898C87.2594 49.0247 87.5888 50.3247 87.5888 51.798C87.5888 53.2713 87.2508 54.5713 86.5748 55.698C85.9161 56.8247 85.0148 57.7 83.8708 58.324C82.7441 58.9307 81.4788 59.234 80.0748 59.234ZM80.0748 56.062C80.7334 56.062 81.3488 55.906 81.9208 55.594C82.5101 55.2647 82.9781 54.7793 83.3248 54.138C83.6714 53.4967 83.8448 52.7167 83.8448 51.798C83.8448 50.4287 83.4808 49.38 82.7528 48.652C82.0421 47.9067 81.1668 47.534 80.1268 47.534C79.0868 47.534 78.2114 47.9067 77.5008 48.652C76.8074 49.38 76.4608 50.4287 76.4608 51.798C76.4608 53.1673 76.7988 54.2247 77.4748 54.97C78.1681 55.698 79.0348 56.062 80.0748 56.062ZM93.8988 46.676C94.3668 46.0173 95.0082 45.4713 95.8228 45.038C96.6548 44.5873 97.5995 44.362 98.6568 44.362C99.8875 44.362 100.997 44.6653 101.985 45.272C102.99 45.8787 103.779 46.7453 104.351 47.872C104.94 48.9813 105.235 50.2727 105.235 51.746C105.235 53.2193 104.94 54.528 104.351 55.672C103.779 56.7987 102.99 57.674 101.985 58.298C100.997 58.922 99.8875 59.234 98.6568 59.234C97.5995 59.234 96.6635 59.0173 95.8488 58.584C95.0515 58.1507 94.4015 57.6047 93.8988 56.946V65.864H90.2588V44.596H93.8988V46.676ZM101.517 51.746C101.517 50.8793 101.335 50.134 100.971 49.51C100.624 48.8687 100.156 48.3833 99.5668 48.054C98.9948 47.7247 98.3708 47.56 97.6948 47.56C97.0362 47.56 96.4122 47.7333 95.8228 48.08C95.2508 48.4093 94.7828 48.8947 94.4188 49.536C94.0722 50.1773 93.8988 50.9313 93.8988 51.798C93.8988 52.6647 94.0722 53.4187 94.4188 54.06C94.7828 54.7013 95.2508 55.1953 95.8228 55.542C96.4122 55.8713 97.0362 56.036 97.6948 56.036C98.3708 56.036 98.9948 55.8627 99.5668 55.516C100.156 55.1693 100.624 54.6753 100.971 54.034C101.335 53.3927 101.517 52.63 101.517 51.746ZM125.768 44.388C127.536 44.388 128.957 44.934 130.032 46.026C131.124 47.1007 131.67 48.6087 131.67 50.55V59H128.03V51.044C128.03 49.9173 127.744 49.0593 127.172 48.47C126.6 47.8633 125.82 47.56 124.832 47.56C123.844 47.56 123.055 47.8633 122.466 48.47C121.894 49.0593 121.608 49.9173 121.608 51.044V59H117.968V51.044C117.968 49.9173 117.682 49.0593 117.11 48.47C116.538 47.8633 115.758 47.56 114.77 47.56C113.765 47.56 112.967 47.8633 112.378 48.47C111.806 49.0593 111.52 49.9173 111.52 51.044V59H107.88V44.596H111.52V46.338C111.988 45.7313 112.586 45.2547 113.314 44.908C114.059 44.5613 114.874 44.388 115.758 44.388C116.885 44.388 117.89 44.6307 118.774 45.116C119.658 45.584 120.343 46.26 120.828 47.144C121.296 46.312 121.972 45.6447 122.856 45.142C123.757 44.6393 124.728 44.388 125.768 44.388ZM148.514 51.486C148.514 52.006 148.479 52.474 148.41 52.89H137.88C137.967 53.93 138.331 54.7447 138.972 55.334C139.613 55.9233 140.402 56.218 141.338 56.218C142.69 56.218 143.652 55.6373 144.224 54.476H148.15C147.734 55.8627 146.937 57.0067 145.758 57.908C144.579 58.792 143.132 59.234 141.416 59.234C140.029 59.234 138.781 58.9307 137.672 58.324C136.58 57.7 135.722 56.8247 135.098 55.698C134.491 54.5713 134.188 53.2713 134.188 51.798C134.188 50.3073 134.491 48.9987 135.098 47.872C135.705 46.7453 136.554 45.8787 137.646 45.272C138.738 44.6653 139.995 44.362 141.416 44.362C142.785 44.362 144.007 44.6567 145.082 45.246C146.174 45.8353 147.015 46.676 147.604 47.768C148.211 48.8427 148.514 50.082 148.514 51.486ZM144.744 50.446C144.727 49.51 144.389 48.7647 143.73 48.21C143.071 47.638 142.265 47.352 141.312 47.352C140.411 47.352 139.648 47.6293 139.024 48.184C138.417 48.7213 138.045 49.4753 137.906 50.446H144.744ZM159.153 44.388C160.869 44.388 162.256 44.934 163.313 46.026C164.37 47.1007 164.899 48.6087 164.899 50.55V59H161.259V51.044C161.259 49.9 160.973 49.0247 160.401 48.418C159.829 47.794 159.049 47.482 158.061 47.482C157.056 47.482 156.258 47.794 155.669 48.418C155.097 49.0247 154.811 49.9 154.811 51.044V59H151.171V44.596H154.811V46.39C155.296 45.766 155.912 45.2807 156.657 44.934C157.42 44.57 158.252 44.388 159.153 44.388ZM172.598 47.586V54.554C172.598 55.0393 172.711 55.3947 172.936 55.62C173.179 55.828 173.578 55.932 174.132 55.932H175.822V59H173.534C170.466 59 168.932 57.5093 168.932 54.528V47.586H167.216V44.596H168.932V41.034H172.598V44.596H175.822V47.586H172.598Z" fill="#040404"/>
</svg>
