<svg width="287" height="20" viewBox="0 0 287 20" fill="none" xmlns="http://www.w3.org/2000/svg">
<path d="M9.42 13.82V16H0.66V2.14H3.18V13.82H9.42ZM14.9036 14.3C15.6503 14.3 16.2169 14.26 16.6036 14.18V11.5C16.4703 11.46 16.2769 11.42 16.0236 11.38C15.7703 11.34 15.4903 11.32 15.1836 11.32C14.9169 11.32 14.6436 11.34 14.3636 11.38C14.0969 11.42 13.8503 11.4933 13.6236 11.6C13.4103 11.7067 13.2369 11.86 13.1036 12.06C12.9703 12.2467 12.9036 12.4867 12.9036 12.78C12.9036 13.3533 13.0836 13.7533 13.4436 13.98C13.8036 14.1933 14.2903 14.3 14.9036 14.3ZM14.7036 5.28C15.5036 5.28 16.1769 5.38 16.7236 5.58C17.2703 5.78 17.7036 6.06 18.0236 6.42C18.3569 6.78 18.5903 7.22 18.7236 7.74C18.8703 8.24667 18.9436 8.80667 18.9436 9.42V15.76C18.5703 15.84 18.0036 15.9333 17.2436 16.04C16.4969 16.16 15.6503 16.22 14.7036 16.22C14.0769 16.22 13.5036 16.16 12.9836 16.04C12.4636 15.92 12.0169 15.7267 11.6436 15.46C11.2836 15.1933 10.9969 14.8467 10.7836 14.42C10.5836 13.9933 10.4836 13.4667 10.4836 12.84C10.4836 12.24 10.5969 11.7333 10.8236 11.32C11.0636 10.9067 11.3836 10.5733 11.7836 10.32C12.1836 10.0533 12.6436 9.86667 13.1636 9.76C13.6969 9.64 14.2503 9.58 14.8236 9.58C15.0903 9.58 15.3703 9.6 15.6636 9.64C15.9569 9.66667 16.2703 9.72 16.6036 9.8V9.4C16.6036 9.12 16.5703 8.85333 16.5036 8.6C16.4369 8.34667 16.3169 8.12667 16.1436 7.94C15.9836 7.74 15.7636 7.58667 15.4836 7.48C15.2169 7.37333 14.8769 7.32 14.4636 7.32C13.9036 7.32 13.3903 7.36 12.9236 7.44C12.4569 7.52 12.0769 7.61333 11.7836 7.72L11.4836 5.76C11.7903 5.65333 12.2369 5.54667 12.8236 5.44C13.4103 5.33333 14.0369 5.28 14.7036 5.28ZM30.4872 15.68C30.0205 15.8 29.4139 15.92 28.6672 16.04C27.9205 16.1733 27.1005 16.24 26.2072 16.24C25.3672 16.24 24.6605 16.12 24.0872 15.88C23.5272 15.64 23.0739 15.3067 22.7272 14.88C22.3939 14.4533 22.1539 13.9467 22.0072 13.36C21.8605 12.76 21.7872 12.1067 21.7872 11.4V5.54H24.2072V11.02C24.2072 12.14 24.3672 12.94 24.6872 13.42C25.0205 13.9 25.5939 14.14 26.4072 14.14C26.7005 14.14 27.0072 14.1267 27.3272 14.1C27.6605 14.0733 27.9072 14.04 28.0672 14V5.54H30.4872V15.68ZM39.5273 7.72C39.3273 7.65333 39.0473 7.58667 38.6873 7.52C38.3407 7.44 37.934 7.4 37.4673 7.4C37.2007 7.4 36.914 7.42667 36.6073 7.48C36.314 7.53333 36.1073 7.58 35.9873 7.62V16H33.5673V6.04C34.034 5.86667 34.614 5.70667 35.3073 5.56C36.014 5.4 36.794 5.32 37.6473 5.32C37.8073 5.32 37.994 5.33333 38.2073 5.36C38.4207 5.37333 38.634 5.4 38.8473 5.44C39.0607 5.46667 39.2673 5.50667 39.4673 5.56C39.6673 5.6 39.8273 5.64 39.9473 5.68L39.5273 7.72ZM45.3138 14.3C46.0604 14.3 46.6271 14.26 47.0138 14.18V11.5C46.8804 11.46 46.6871 11.42 46.4338 11.38C46.1804 11.34 45.9004 11.32 45.5938 11.32C45.3271 11.32 45.0538 11.34 44.7738 11.38C44.5071 11.42 44.2604 11.4933 44.0338 11.6C43.8204 11.7067 43.6471 11.86 43.5138 12.06C43.3804 12.2467 43.3138 12.4867 43.3138 12.78C43.3138 13.3533 43.4938 13.7533 43.8538 13.98C44.2138 14.1933 44.7004 14.3 45.3138 14.3ZM45.1138 5.28C45.9138 5.28 46.5871 5.38 47.1338 5.58C47.6804 5.78 48.1138 6.06 48.4338 6.42C48.7671 6.78 49.0004 7.22 49.1338 7.74C49.2804 8.24667 49.3538 8.80667 49.3538 9.42V15.76C48.9804 15.84 48.4138 15.9333 47.6538 16.04C46.9071 16.16 46.0604 16.22 45.1138 16.22C44.4871 16.22 43.9138 16.16 43.3938 16.04C42.8738 15.92 42.4271 15.7267 42.0538 15.46C41.6938 15.1933 41.4071 14.8467 41.1938 14.42C40.9938 13.9933 40.8938 13.4667 40.8938 12.84C40.8938 12.24 41.0071 11.7333 41.2338 11.32C41.4738 10.9067 41.7938 10.5733 42.1938 10.32C42.5938 10.0533 43.0538 9.86667 43.5738 9.76C44.1071 9.64 44.6604 9.58 45.2337 9.58C45.5004 9.58 45.7804 9.6 46.0738 9.64C46.3671 9.66667 46.6804 9.72 47.0138 9.8V9.4C47.0138 9.12 46.9804 8.85333 46.9138 8.6C46.8471 8.34667 46.7271 8.12667 46.5538 7.94C46.3938 7.74 46.1738 7.58667 45.8938 7.48C45.6271 7.37333 45.2871 7.32 44.8738 7.32C44.3138 7.32 43.8004 7.36 43.3338 7.44C42.8671 7.52 42.4871 7.61333 42.1938 7.72L41.8938 5.76C42.2004 5.65333 42.6471 5.54667 43.2338 5.44C43.8204 5.33333 44.4471 5.28 45.1138 5.28ZM54.2077 0.84C54.221 0.999999 54.2277 1.16667 54.2277 1.34C54.241 1.51333 54.241 1.65333 54.2277 1.76C54.201 2.56 54.041 3.33333 53.7477 4.08C53.4677 4.81333 53.121 5.46667 52.7077 6.04L50.9477 5.58C51.2143 4.99333 51.421 4.37333 51.5677 3.72C51.7143 3.06667 51.7877 2.44 51.7877 1.84C51.7877 1.74667 51.781 1.6 51.7677 1.4C51.7677 1.2 51.7543 1.01333 51.7277 0.84H54.2077ZM59.5467 14.26C60.1867 14.26 60.6534 14.1867 60.9467 14.04C61.2401 13.88 61.3867 13.6133 61.3867 13.24C61.3867 12.8933 61.2267 12.6067 60.9067 12.38C60.6001 12.1533 60.0867 11.9067 59.3667 11.64C58.9267 11.48 58.5201 11.3133 58.1467 11.14C57.7867 10.9533 57.4734 10.74 57.2067 10.5C56.9401 10.26 56.7267 9.97333 56.5667 9.64C56.4201 9.29333 56.3467 8.87333 56.3467 8.38C56.3467 7.42 56.7001 6.66667 57.4067 6.12C58.1134 5.56 59.0734 5.28 60.2867 5.28C60.9001 5.28 61.4867 5.34 62.0467 5.46C62.6067 5.56667 63.0267 5.67333 63.3067 5.78L62.8667 7.74C62.6001 7.62 62.2601 7.51333 61.8467 7.42C61.4334 7.31333 60.9534 7.26 60.4067 7.26C59.9134 7.26 59.5134 7.34667 59.2067 7.52C58.9001 7.68 58.7467 7.93333 58.7467 8.28C58.7467 8.45333 58.7734 8.60667 58.8267 8.74C58.8934 8.87333 59.0001 9 59.1467 9.12C59.2934 9.22667 59.4867 9.34 59.7267 9.46C59.9667 9.56667 60.2601 9.68 60.6067 9.8C61.1801 10.0133 61.6667 10.2267 62.0667 10.44C62.4667 10.64 62.7934 10.8733 63.0467 11.14C63.3134 11.3933 63.5067 11.6867 63.6267 12.02C63.7467 12.3533 63.8067 12.7533 63.8067 13.22C63.8067 14.22 63.4334 14.98 62.6867 15.5C61.9534 16.0067 60.9001 16.26 59.5267 16.26C58.6067 16.26 57.8667 16.18 57.3067 16.02C56.7467 15.8733 56.3534 15.7533 56.1267 15.66L56.5467 13.64C56.9067 13.7867 57.3334 13.9267 57.8267 14.06C58.3334 14.1933 58.9067 14.26 59.5467 14.26ZM77.0153 16.3C75.9753 16.3 75.042 16.14 74.2153 15.82C73.3886 15.5 72.6886 15.0333 72.1153 14.42C71.542 13.7933 71.102 13.0333 70.7953 12.14C70.4886 11.2467 70.3353 10.22 70.3353 9.06C70.3353 7.9 70.5086 6.87333 70.8553 5.98C71.2153 5.08667 71.702 4.33333 72.3153 3.72C72.9286 3.09333 73.6486 2.62 74.4753 2.3C75.302 1.98 76.1886 1.82 77.1353 1.82C77.7086 1.82 78.2286 1.86667 78.6953 1.96C79.162 2.04 79.5686 2.13333 79.9153 2.24C80.262 2.34667 80.5486 2.46 80.7753 2.58C81.002 2.7 81.162 2.78667 81.2553 2.84L80.5153 4.9C80.1953 4.7 79.7353 4.51333 79.1353 4.34C78.5486 4.15333 77.9086 4.06 77.2153 4.06C76.6153 4.06 76.0553 4.16667 75.5353 4.38C75.0153 4.58 74.562 4.88667 74.1753 5.3C73.802 5.71333 73.5086 6.23333 73.2953 6.86C73.082 7.48667 72.9753 8.21333 72.9753 9.04C72.9753 9.77333 73.0553 10.4467 73.2153 11.06C73.3886 11.6733 73.6486 12.2067 73.9953 12.66C74.342 13.1 74.782 13.4467 75.3153 13.7C75.8486 13.94 76.4886 14.06 77.2353 14.06C78.1286 14.06 78.8553 13.9733 79.4153 13.8C79.9753 13.6133 80.4086 13.44 80.7153 13.28L81.3953 15.34C81.2353 15.4467 81.0153 15.5533 80.7353 15.66C80.4686 15.7667 80.1486 15.8733 79.7753 15.98C79.402 16.0733 78.982 16.1467 78.5153 16.2C78.0486 16.2667 77.5486 16.3 77.0153 16.3ZM87.1292 16.2C86.4092 16.1867 85.8092 16.1067 85.3292 15.96C84.8626 15.8133 84.4892 15.6067 84.2092 15.34C83.9292 15.06 83.7292 14.72 83.6092 14.32C83.5026 13.9067 83.4492 13.44 83.4492 12.92V0.879999L85.8692 0.48V12.46C85.8692 12.7533 85.8892 13 85.9292 13.2C85.9826 13.4 86.0692 13.5733 86.1892 13.72C86.3092 13.8533 86.4692 13.96 86.6692 14.04C86.8826 14.1067 87.1492 14.16 87.4692 14.2L87.1292 16.2ZM98.8867 10.76C98.8867 11.5867 98.7667 12.34 98.5267 13.02C98.2867 13.7 97.9467 14.28 97.5067 14.76C97.0667 15.24 96.5334 15.6133 95.9067 15.88C95.2934 16.1467 94.6134 16.28 93.8667 16.28C93.1201 16.28 92.4401 16.1467 91.8267 15.88C91.2134 15.6133 90.6867 15.24 90.2467 14.76C89.8067 14.28 89.4601 13.7 89.2067 13.02C88.9667 12.34 88.8467 11.5867 88.8467 10.76C88.8467 9.93333 88.9667 9.18667 89.2067 8.52C89.4601 7.84 89.8067 7.26 90.2467 6.78C90.7001 6.3 91.2334 5.93333 91.8467 5.68C92.4601 5.41333 93.1334 5.28 93.8667 5.28C94.6001 5.28 95.2734 5.41333 95.8867 5.68C96.5134 5.93333 97.0467 6.3 97.4867 6.78C97.9267 7.26 98.2667 7.84 98.5067 8.52C98.7601 9.18667 98.8867 9.93333 98.8867 10.76ZM96.4067 10.76C96.4067 9.72 96.1801 8.9 95.7267 8.3C95.2867 7.68667 94.6667 7.38 93.8667 7.38C93.0667 7.38 92.4401 7.68667 91.9867 8.3C91.5467 8.9 91.3267 9.72 91.3267 10.76C91.3267 11.8133 91.5467 12.6467 91.9867 13.26C92.4401 13.8733 93.0667 14.18 93.8667 14.18C94.6667 14.18 95.2867 13.8733 95.7267 13.26C96.1801 12.6467 96.4067 11.8133 96.4067 10.76ZM107.34 7.72C107.14 7.65333 106.86 7.58667 106.5 7.52C106.153 7.44 105.747 7.4 105.28 7.4C105.013 7.4 104.727 7.42667 104.42 7.48C104.127 7.53333 103.92 7.58 103.8 7.62V16H101.38V6.04C101.847 5.86667 102.427 5.70667 103.12 5.56C103.827 5.4 104.607 5.32 105.46 5.32C105.62 5.32 105.807 5.33333 106.02 5.36C106.233 5.37333 106.447 5.4 106.66 5.44C106.873 5.46667 107.08 5.50667 107.28 5.56C107.48 5.6 107.64 5.64 107.76 5.68L107.34 7.72ZM108.866 10.82C108.866 9.9 109 9.09333 109.266 8.4C109.546 7.70667 109.913 7.13333 110.366 6.68C110.82 6.21333 111.34 5.86667 111.926 5.64C112.513 5.4 113.113 5.28 113.726 5.28C115.166 5.28 116.286 5.72667 117.086 6.62C117.9 7.51333 118.306 8.84667 118.306 10.62C118.306 10.7533 118.3 10.9067 118.286 11.08C118.286 11.24 118.28 11.3867 118.266 11.52H111.366C111.433 12.36 111.726 13.0133 112.246 13.48C112.78 13.9333 113.546 14.16 114.546 14.16C115.133 14.16 115.666 14.1067 116.146 14C116.64 13.8933 117.026 13.78 117.306 13.66L117.626 15.64C117.493 15.7067 117.306 15.78 117.066 15.86C116.84 15.9267 116.573 15.9867 116.266 16.04C115.973 16.1067 115.653 16.16 115.306 16.2C114.96 16.24 114.606 16.26 114.246 16.26C113.326 16.26 112.526 16.1267 111.846 15.86C111.166 15.58 110.606 15.2 110.166 14.72C109.726 14.2267 109.4 13.6533 109.186 13C108.973 12.3333 108.866 11.6067 108.866 10.82ZM115.886 9.74C115.886 9.40667 115.84 9.09333 115.746 8.8C115.653 8.49333 115.513 8.23333 115.326 8.02C115.153 7.79333 114.933 7.62 114.666 7.5C114.413 7.36667 114.106 7.3 113.746 7.3C113.373 7.3 113.046 7.37333 112.766 7.52C112.486 7.65333 112.246 7.83333 112.046 8.06C111.86 8.28667 111.713 8.54667 111.606 8.84C111.5 9.13333 111.426 9.43333 111.386 9.74H115.886ZM129.84 16.16C129.107 16.16 128.367 16.1333 127.62 16.08C126.873 16.04 126.22 15.9467 125.66 15.8V2.34C125.953 2.28667 126.267 2.24 126.6 2.2C126.933 2.14667 127.273 2.10667 127.62 2.08C127.967 2.05333 128.307 2.03333 128.64 2.02C128.987 2.00667 129.313 2 129.62 2C130.46 2 131.24 2.06667 131.96 2.2C132.68 2.32 133.3 2.52667 133.82 2.82C134.353 3.11333 134.767 3.5 135.06 3.98C135.353 4.46 135.5 5.05333 135.5 5.76C135.5 6.41333 135.34 6.97333 135.02 7.44C134.713 7.90667 134.28 8.28 133.72 8.56C134.56 8.84 135.18 9.25333 135.58 9.8C135.98 10.3467 136.18 11.04 136.18 11.88C136.18 13.3067 135.66 14.38 134.62 15.1C133.58 15.8067 131.987 16.16 129.84 16.16ZM128.14 9.76V13.98C128.42 14.0067 128.72 14.0267 129.04 14.04C129.36 14.0533 129.653 14.06 129.92 14.06C130.44 14.06 130.92 14.0267 131.36 13.96C131.813 13.8933 132.2 13.78 132.52 13.62C132.853 13.4467 133.113 13.22 133.3 12.94C133.5 12.66 133.6 12.3 133.6 11.86C133.6 11.0733 133.313 10.5267 132.74 10.22C132.167 9.91333 131.373 9.76 130.36 9.76H128.14ZM128.14 7.78H129.92C130.88 7.78 131.633 7.64667 132.18 7.38C132.727 7.1 133 6.60667 133 5.9C133 5.23333 132.713 4.76 132.14 4.48C131.58 4.2 130.847 4.06 129.94 4.06C129.553 4.06 129.207 4.06667 128.9 4.08C128.607 4.09333 128.353 4.11333 128.14 4.14V7.78ZM144.645 7.72C144.445 7.65333 144.165 7.58667 143.805 7.52C143.458 7.44 143.051 7.4 142.585 7.4C142.318 7.4 142.031 7.42667 141.725 7.48C141.431 7.53333 141.225 7.58 141.105 7.62V16H138.685V6.04C139.151 5.86667 139.731 5.70667 140.425 5.56C141.131 5.4 141.911 5.32 142.765 5.32C142.925 5.32 143.111 5.33333 143.325 5.36C143.538 5.37333 143.751 5.4 143.965 5.44C144.178 5.46667 144.385 5.50667 144.585 5.56C144.785 5.6 144.945 5.64 145.065 5.68L144.645 7.72ZM150.431 14.3C151.178 14.3 151.744 14.26 152.131 14.18V11.5C151.998 11.46 151.804 11.42 151.551 11.38C151.298 11.34 151.018 11.32 150.711 11.32C150.444 11.32 150.171 11.34 149.891 11.38C149.624 11.42 149.378 11.4933 149.151 11.6C148.938 11.7067 148.764 11.86 148.631 12.06C148.498 12.2467 148.431 12.4867 148.431 12.78C148.431 13.3533 148.611 13.7533 148.971 13.98C149.331 14.1933 149.818 14.3 150.431 14.3ZM150.231 5.28C151.031 5.28 151.704 5.38 152.251 5.58C152.798 5.78 153.231 6.06 153.551 6.42C153.884 6.78 154.118 7.22 154.251 7.74C154.398 8.24667 154.471 8.80667 154.471 9.42V15.76C154.098 15.84 153.531 15.9333 152.771 16.04C152.024 16.16 151.178 16.22 150.231 16.22C149.604 16.22 149.031 16.16 148.511 16.04C147.991 15.92 147.544 15.7267 147.171 15.46C146.811 15.1933 146.524 14.8467 146.311 14.42C146.111 13.9933 146.011 13.4667 146.011 12.84C146.011 12.24 146.124 11.7333 146.351 11.32C146.591 10.9067 146.911 10.5733 147.311 10.32C147.711 10.0533 148.171 9.86667 148.691 9.76C149.224 9.64 149.778 9.58 150.351 9.58C150.618 9.58 150.898 9.6 151.191 9.64C151.484 9.66667 151.798 9.72 152.131 9.8V9.4C152.131 9.12 152.098 8.85333 152.031 8.6C151.964 8.34667 151.844 8.12667 151.671 7.94C151.511 7.74 151.291 7.58667 151.011 7.48C150.744 7.37333 150.404 7.32 149.991 7.32C149.431 7.32 148.918 7.36 148.451 7.44C147.984 7.52 147.604 7.61333 147.311 7.72L147.011 5.76C147.318 5.65333 147.764 5.54667 148.351 5.44C148.938 5.33333 149.564 5.28 150.231 5.28ZM157.435 5.88C157.901 5.74667 158.508 5.62 159.255 5.5C160.001 5.38 160.828 5.32 161.735 5.32C162.588 5.32 163.301 5.44 163.875 5.68C164.448 5.90667 164.901 6.23333 165.235 6.66C165.581 7.07333 165.821 7.58 165.955 8.18C166.101 8.76667 166.175 9.41333 166.175 10.12V16H163.755V10.5C163.755 9.94 163.715 9.46667 163.635 9.08C163.568 8.68 163.448 8.36 163.275 8.12C163.115 7.86667 162.888 7.68667 162.595 7.58C162.315 7.46 161.968 7.4 161.555 7.4C161.248 7.4 160.928 7.42 160.595 7.46C160.261 7.5 160.015 7.53333 159.855 7.56V16H157.435V5.88ZM171.034 10.74C171.034 11.8067 171.287 12.6467 171.794 13.26C172.3 13.86 173 14.16 173.894 14.16C174.28 14.16 174.607 14.1467 174.874 14.12C175.154 14.08 175.38 14.04 175.554 14V8C175.34 7.85333 175.054 7.72 174.694 7.6C174.347 7.46667 173.974 7.4 173.574 7.4C172.694 7.4 172.047 7.7 171.634 8.3C171.234 8.9 171.034 9.71333 171.034 10.74ZM177.974 15.68C177.494 15.8267 176.887 15.96 176.154 16.08C175.434 16.2 174.674 16.26 173.874 16.26C173.047 16.26 172.307 16.1333 171.654 15.88C171 15.6267 170.44 15.2667 169.974 14.8C169.52 14.32 169.167 13.7467 168.914 13.08C168.674 12.4 168.554 11.64 168.554 10.8C168.554 9.97333 168.654 9.22667 168.854 8.56C169.067 7.88 169.374 7.3 169.774 6.82C170.174 6.34 170.66 5.97333 171.234 5.72C171.807 5.45333 172.467 5.32 173.214 5.32C173.72 5.32 174.167 5.38 174.554 5.5C174.94 5.62 175.274 5.75333 175.554 5.9V0.879999L177.974 0.48V15.68ZM183.488 16H181.068V5.54H183.488V16ZM183.748 2.48C183.748 2.93333 183.601 3.29333 183.308 3.56C183.014 3.82667 182.668 3.96 182.268 3.96C181.854 3.96 181.501 3.82667 181.208 3.56C180.914 3.29333 180.768 2.93333 180.768 2.48C180.768 2.01333 180.914 1.64667 181.208 1.38C181.501 1.11333 181.854 0.979999 182.268 0.979999C182.668 0.979999 183.014 1.11333 183.308 1.38C183.601 1.64667 183.748 2.01333 183.748 2.48ZM186.575 5.88C187.042 5.74667 187.648 5.62 188.395 5.5C189.142 5.38 189.968 5.32 190.875 5.32C191.728 5.32 192.442 5.44 193.015 5.68C193.588 5.90667 194.042 6.23333 194.375 6.66C194.722 7.07333 194.962 7.58 195.095 8.18C195.242 8.76667 195.315 9.41333 195.315 10.12V16H192.895V10.5C192.895 9.94 192.855 9.46667 192.775 9.08C192.708 8.68 192.588 8.36 192.415 8.12C192.255 7.86667 192.028 7.68667 191.735 7.58C191.455 7.46 191.108 7.4 190.695 7.4C190.388 7.4 190.068 7.42 189.735 7.46C189.402 7.5 189.155 7.53333 188.995 7.56V16H186.575V5.88ZM200.174 10.5C200.174 11.5267 200.394 12.28 200.834 12.76C201.288 13.2267 201.868 13.46 202.574 13.46C202.961 13.46 203.321 13.4067 203.654 13.3C204.001 13.1933 204.281 13.0667 204.494 12.92V7.5C204.321 7.46 204.108 7.42667 203.854 7.4C203.601 7.36 203.281 7.34 202.894 7.34C202.014 7.34 201.341 7.63333 200.874 8.22C200.408 8.79333 200.174 9.55333 200.174 10.5ZM206.914 14.94C206.914 16.6067 206.488 17.8267 205.634 18.6C204.794 19.3733 203.501 19.76 201.754 19.76C201.114 19.76 200.488 19.7067 199.874 19.6C199.274 19.4933 198.728 19.3533 198.234 19.18L198.674 17.12C199.088 17.2933 199.554 17.4333 200.074 17.54C200.608 17.6467 201.181 17.7 201.794 17.7C202.768 17.7 203.461 17.5 203.874 17.1C204.288 16.7 204.494 16.1067 204.494 15.32V14.92C204.254 15.04 203.934 15.16 203.534 15.28C203.148 15.4 202.701 15.46 202.194 15.46C201.528 15.46 200.914 15.3533 200.354 15.14C199.808 14.9267 199.334 14.6133 198.934 14.2C198.548 13.7867 198.241 13.2733 198.014 12.66C197.801 12.0333 197.694 11.3133 197.694 10.5C197.694 9.74 197.808 9.04 198.034 8.4C198.274 7.76 198.614 7.21333 199.054 6.76C199.508 6.30667 200.054 5.95333 200.694 5.7C201.334 5.44667 202.061 5.32 202.874 5.32C203.661 5.32 204.408 5.38 205.114 5.5C205.821 5.62 206.421 5.74667 206.914 5.88V14.94ZM214.781 2.14H217.301V16H214.781V2.14ZM222.401 10.74C222.401 11.8067 222.654 12.6467 223.161 13.26C223.668 13.86 224.368 14.16 225.261 14.16C225.648 14.16 225.974 14.1467 226.241 14.12C226.521 14.08 226.748 14.04 226.921 14V8C226.708 7.85333 226.421 7.72 226.061 7.6C225.714 7.46667 225.341 7.4 224.941 7.4C224.061 7.4 223.414 7.7 223.001 8.3C222.601 8.9 222.401 9.71333 222.401 10.74ZM229.341 15.68C228.861 15.8267 228.254 15.96 227.521 16.08C226.801 16.2 226.041 16.26 225.241 16.26C224.414 16.26 223.674 16.1333 223.021 15.88C222.368 15.6267 221.808 15.2667 221.341 14.8C220.888 14.32 220.534 13.7467 220.281 13.08C220.041 12.4 219.921 11.64 219.921 10.8C219.921 9.97333 220.021 9.22667 220.221 8.56C220.434 7.88 220.741 7.3 221.141 6.82C221.541 6.34 222.028 5.97333 222.601 5.72C223.174 5.45333 223.834 5.32 224.581 5.32C225.088 5.32 225.534 5.38 225.921 5.5C226.308 5.62 226.641 5.75333 226.921 5.9V0.879999L229.341 0.48V15.68ZM231.835 10.82C231.835 9.9 231.968 9.09333 232.235 8.4C232.515 7.70667 232.882 7.13333 233.335 6.68C233.788 6.21333 234.308 5.86667 234.895 5.64C235.482 5.4 236.082 5.28 236.695 5.28C238.135 5.28 239.255 5.72667 240.055 6.62C240.868 7.51333 241.275 8.84667 241.275 10.62C241.275 10.7533 241.268 10.9067 241.255 11.08C241.255 11.24 241.248 11.3867 241.235 11.52H234.335C234.402 12.36 234.695 13.0133 235.215 13.48C235.748 13.9333 236.515 14.16 237.515 14.16C238.102 14.16 238.635 14.1067 239.115 14C239.608 13.8933 239.995 13.78 240.275 13.66L240.595 15.64C240.462 15.7067 240.275 15.78 240.035 15.86C239.808 15.9267 239.542 15.9867 239.235 16.04C238.942 16.1067 238.622 16.16 238.275 16.2C237.928 16.24 237.575 16.26 237.215 16.26C236.295 16.26 235.495 16.1267 234.815 15.86C234.135 15.58 233.575 15.2 233.135 14.72C232.695 14.2267 232.368 13.6533 232.155 13C231.942 12.3333 231.835 11.6067 231.835 10.82ZM238.855 9.74C238.855 9.40667 238.808 9.09333 238.715 8.8C238.622 8.49333 238.482 8.23333 238.295 8.02C238.122 7.79333 237.902 7.62 237.635 7.5C237.382 7.36667 237.075 7.3 236.715 7.3C236.342 7.3 236.015 7.37333 235.735 7.52C235.455 7.65333 235.215 7.83333 235.015 8.06C234.828 8.28667 234.682 8.54667 234.575 8.84C234.468 9.13333 234.395 9.43333 234.355 9.74H238.855ZM243.841 5.88C244.307 5.74667 244.914 5.62 245.661 5.5C246.407 5.38 247.234 5.32 248.141 5.32C248.994 5.32 249.707 5.44 250.281 5.68C250.854 5.90667 251.307 6.23333 251.641 6.66C251.987 7.07333 252.227 7.58 252.361 8.18C252.507 8.76667 252.581 9.41333 252.581 10.12V16H250.161V10.5C250.161 9.94 250.121 9.46667 250.041 9.08C249.974 8.68 249.854 8.36 249.681 8.12C249.521 7.86667 249.294 7.68667 249.001 7.58C248.721 7.46 248.374 7.4 247.961 7.4C247.654 7.4 247.334 7.42 247.001 7.46C246.667 7.5 246.421 7.53333 246.261 7.56V16H243.841V5.88ZM255.42 2.78L257.84 2.38V5.54H261.56V7.56H257.84V11.82C257.84 12.66 257.973 13.26 258.24 13.62C258.507 13.98 258.96 14.16 259.6 14.16C260.04 14.16 260.427 14.1133 260.76 14.02C261.107 13.9267 261.38 13.84 261.58 13.76L261.98 15.68C261.7 15.8 261.333 15.92 260.88 16.04C260.427 16.1733 259.893 16.24 259.28 16.24C258.533 16.24 257.907 16.14 257.4 15.94C256.907 15.74 256.513 15.4533 256.22 15.08C255.927 14.6933 255.72 14.2333 255.6 13.7C255.48 13.1533 255.42 12.5333 255.42 11.84V2.78ZM266.339 16H263.919V5.54H266.339V16ZM266.599 2.48C266.599 2.93333 266.453 3.29333 266.159 3.56C265.866 3.82667 265.519 3.96 265.119 3.96C264.706 3.96 264.353 3.82667 264.059 3.56C263.766 3.29333 263.619 2.93333 263.619 2.48C263.619 2.01333 263.766 1.64667 264.059 1.38C264.353 1.11333 264.706 0.979999 265.119 0.979999C265.519 0.979999 265.866 1.11333 266.159 1.38C266.453 1.64667 266.599 2.01333 266.599 2.48ZM269.307 2.78L271.727 2.38V5.54H275.447V7.56H271.727V11.82C271.727 12.66 271.86 13.26 272.127 13.62C272.393 13.98 272.847 14.16 273.487 14.16C273.927 14.16 274.313 14.1133 274.647 14.02C274.993 13.9267 275.267 13.84 275.467 13.76L275.867 15.68C275.587 15.8 275.22 15.92 274.767 16.04C274.313 16.1733 273.78 16.24 273.167 16.24C272.42 16.24 271.793 16.14 271.287 15.94C270.793 15.74 270.4 15.4533 270.107 15.08C269.813 14.6933 269.607 14.2333 269.487 13.7C269.367 13.1533 269.307 12.5333 269.307 11.84V2.78ZM286.326 5.54C285.246 9.51333 283.993 13.1133 282.566 16.34C282.299 16.94 282.026 17.4533 281.746 17.88C281.466 18.3067 281.153 18.66 280.806 18.94C280.459 19.22 280.073 19.42 279.646 19.54C279.219 19.6733 278.726 19.74 278.166 19.74C277.793 19.74 277.419 19.7 277.046 19.62C276.686 19.54 276.413 19.4533 276.226 19.36L276.666 17.42C277.146 17.6067 277.619 17.7 278.086 17.7C278.713 17.7 279.199 17.5467 279.546 17.24C279.906 16.9467 280.219 16.4867 280.486 15.86C279.726 14.3933 278.993 12.7933 278.286 11.06C277.593 9.32667 276.973 7.48667 276.426 5.54H279.006C279.139 6.1 279.299 6.70667 279.486 7.36C279.686 8.01333 279.899 8.68 280.126 9.36C280.353 10.0267 280.593 10.6933 280.846 11.36C281.099 12.0267 281.353 12.6467 281.606 13.22C282.033 12.0333 282.433 10.7733 282.806 9.44C283.179 8.09333 283.519 6.79333 283.826 5.54H286.326Z" fill="#14183E"/>
</svg>
