<svg width="75" height="13" viewBox="0 0 75 13" fill="none" xmlns="http://www.w3.org/2000/svg">
<path d="M3.32 0.799999C4.87733 0.799999 6.072 1.09867 6.904 1.696C7.74667 2.28267 8.168 3.16267 8.168 4.336C8.168 4.976 8.05067 5.52533 7.816 5.984C7.592 6.432 7.26133 6.8 6.824 7.088C6.39733 7.36533 5.87467 7.568 5.256 7.696C4.63733 7.824 3.93867 7.888 3.16 7.888H1.928V12H0.376V1.072C0.813333 0.965333 1.29867 0.896 1.832 0.863999C2.376 0.821333 2.872 0.799999 3.32 0.799999ZM3.448 2.16C2.78667 2.16 2.28 2.176 1.928 2.208V6.56H3.096C3.62933 6.56 4.10933 6.528 4.536 6.464C4.96267 6.38933 5.32 6.272 5.608 6.112C5.90667 5.94133 6.136 5.712 6.296 5.424C6.456 5.136 6.536 4.768 6.536 4.32C6.536 3.89333 6.45067 3.54133 6.28 3.264C6.12 2.98667 5.896 2.768 5.608 2.608C5.33067 2.43733 5.00533 2.32 4.632 2.256C4.25867 2.192 3.864 2.16 3.448 2.16ZM15.5344 7.36C15.705 7.57333 15.9184 7.856 16.1744 8.208C16.441 8.54933 16.713 8.93333 16.9904 9.36C17.2677 9.776 17.5397 10.2133 17.8064 10.672C18.0837 11.1307 18.3184 11.5733 18.5104 12H16.8144C16.601 11.5947 16.3664 11.184 16.1104 10.768C15.865 10.352 15.6144 9.95733 15.3584 9.584C15.1024 9.2 14.8464 8.84267 14.5904 8.512C14.345 8.18133 14.121 7.89333 13.9184 7.648C13.7797 7.65867 13.6357 7.664 13.4864 7.664C13.3477 7.664 13.2037 7.664 13.0544 7.664H11.6624V12H10.1104V1.072C10.5477 0.965333 11.033 0.896 11.5664 0.863999C12.1104 0.821333 12.6064 0.799999 13.0544 0.799999C14.6117 0.799999 15.7957 1.09333 16.6064 1.68C17.4277 2.26667 17.8384 3.14133 17.8384 4.304C17.8384 5.04 17.641 5.66933 17.2464 6.192C16.8624 6.71467 16.2917 7.104 15.5344 7.36ZM13.1824 2.16C12.521 2.16 12.0144 2.176 11.6624 2.208V6.384H12.7664C13.2997 6.384 13.7797 6.35733 14.2064 6.304C14.633 6.25067 14.9904 6.14933 15.2784 6C15.577 5.85067 15.8064 5.64267 15.9664 5.376C16.1264 5.09867 16.2064 4.736 16.2064 4.288C16.2064 3.872 16.1264 3.52533 15.9664 3.248C15.8064 2.97067 15.5877 2.752 15.3104 2.592C15.0437 2.432 14.7237 2.32 14.3504 2.256C13.9877 2.192 13.5984 2.16 13.1824 2.16ZM19.553 6.448C19.553 5.49867 19.6917 4.66133 19.969 3.936C20.257 3.21067 20.641 2.608 21.121 2.128C21.6117 1.63733 22.177 1.26933 22.817 1.024C23.4677 0.778666 24.1557 0.655999 24.881 0.655999C25.5957 0.655999 26.2677 0.778666 26.897 1.024C27.537 1.26933 28.097 1.63733 28.577 2.128C29.057 2.608 29.4357 3.21067 29.713 3.936C30.001 4.66133 30.145 5.49867 30.145 6.448C30.145 7.39733 30.001 8.23467 29.713 8.96C29.4357 9.68533 29.057 10.2933 28.577 10.784C28.097 11.264 27.537 11.6267 26.897 11.872C26.2677 12.1173 25.5957 12.24 24.881 12.24C24.1557 12.24 23.4677 12.1173 22.817 11.872C22.177 11.6267 21.6117 11.264 21.121 10.784C20.641 10.2933 20.257 9.68533 19.969 8.96C19.6917 8.23467 19.553 7.39733 19.553 6.448ZM21.185 6.448C21.185 7.12 21.2703 7.73333 21.441 8.288C21.6117 8.832 21.8517 9.296 22.161 9.68C22.481 10.064 22.865 10.3627 23.313 10.576C23.7717 10.7787 24.2837 10.88 24.849 10.88C25.4143 10.88 25.921 10.7787 26.369 10.576C26.817 10.3627 27.1957 10.064 27.505 9.68C27.825 9.296 28.0703 8.832 28.241 8.288C28.4117 7.73333 28.497 7.12 28.497 6.448C28.497 5.776 28.4117 5.168 28.241 4.624C28.0703 4.06933 27.825 3.6 27.505 3.216C27.1957 2.832 26.817 2.53867 26.369 2.336C25.921 2.12267 25.4143 2.016 24.849 2.016C24.2837 2.016 23.7717 2.12267 23.313 2.336C22.865 2.53867 22.481 2.832 22.161 3.216C21.8517 3.6 21.6117 4.06933 21.441 4.624C21.2703 5.168 21.185 5.776 21.185 6.448ZM37.3759 8.432C37.3759 8.96533 37.3172 9.46133 37.1999 9.92C37.0932 10.3787 36.8959 10.784 36.6079 11.136C36.3305 11.4773 35.9519 11.7493 35.4719 11.952C35.0025 12.144 34.4105 12.24 33.6959 12.24C33.3332 12.24 32.9972 12.208 32.6879 12.144C32.3892 12.0907 32.1172 12.0213 31.8719 11.936C31.6265 11.84 31.4132 11.744 31.2319 11.648C31.0505 11.5413 30.9065 11.44 30.7999 11.344L31.4079 10.112C31.6319 10.272 31.9199 10.4427 32.2719 10.624C32.6345 10.7947 33.0825 10.88 33.6159 10.88C34.3839 10.88 34.9439 10.688 35.2959 10.304C35.6479 9.90933 35.8239 9.23733 35.8239 8.288V0.912H37.3759V8.432ZM40.0479 12V0.912H46.8159V2.24H41.5999V5.536H46.2399V6.832H41.5999V10.672H47.2159V12H40.0479ZM53.5034 12.24C52.7247 12.24 52.0154 12.112 51.3754 11.856C50.7354 11.6 50.186 11.2267 49.7274 10.736C49.2687 10.2453 48.9114 9.64267 48.6554 8.928C48.41 8.20267 48.2874 7.376 48.2874 6.448C48.2874 5.52 48.426 4.69867 48.7034 3.984C48.9914 3.25867 49.3754 2.65067 49.8554 2.16C50.3354 1.66933 50.8954 1.296 51.5354 1.04C52.1754 0.783999 52.858 0.655999 53.5834 0.655999C54.042 0.655999 54.4527 0.687999 54.8154 0.752C55.1887 0.816 55.5087 0.890666 55.7754 0.976C56.0527 1.06133 56.2767 1.14667 56.4474 1.232C56.618 1.31733 56.7354 1.38133 56.7994 1.424L56.3514 2.704C56.2554 2.64 56.1167 2.57067 55.9354 2.496C55.754 2.42133 55.546 2.34667 55.3114 2.272C55.0874 2.19733 54.8367 2.13867 54.5594 2.096C54.2927 2.04267 54.0207 2.016 53.7434 2.016C53.1567 2.016 52.6287 2.11733 52.1594 2.32C51.69 2.52267 51.29 2.816 50.9594 3.2C50.6287 3.584 50.3727 4.05333 50.1914 4.608C50.0207 5.152 49.9354 5.76533 49.9354 6.448C49.9354 7.10933 50.01 7.712 50.1594 8.256C50.3194 8.8 50.554 9.26933 50.8634 9.664C51.1727 10.048 51.5567 10.3467 52.0154 10.56C52.4847 10.7733 53.0287 10.88 53.6474 10.88C54.362 10.88 54.954 10.8053 55.4234 10.656C55.8927 10.5067 56.2447 10.3733 56.4794 10.256L56.8794 11.536C56.8047 11.5893 56.6714 11.6587 56.4794 11.744C56.2874 11.8187 56.0474 11.8933 55.7594 11.968C55.4714 12.0427 55.1354 12.1067 54.7514 12.16C54.3674 12.2133 53.9514 12.24 53.5034 12.24ZM66.3309 0.912V2.256H62.8429V12H61.2909V2.256H57.8029V0.912H66.3309ZM70.5458 10.896C72.1671 10.896 72.9778 10.3413 72.9778 9.232C72.9778 8.89067 72.9031 8.60267 72.7538 8.368C72.6151 8.12267 72.4231 7.91467 72.1778 7.744C71.9324 7.56267 71.6498 7.408 71.3298 7.28C71.0204 7.152 70.6898 7.024 70.3378 6.896C69.9324 6.75733 69.5484 6.60267 69.1858 6.432C68.8231 6.25067 68.5084 6.04267 68.2418 5.808C67.9751 5.56267 67.7618 5.27467 67.6018 4.944C67.4524 4.61333 67.3778 4.21333 67.3778 3.744C67.3778 2.77333 67.7084 2.016 68.3698 1.472C69.0311 0.927999 69.9431 0.655999 71.1058 0.655999C71.7778 0.655999 72.3858 0.730666 72.9298 0.879999C73.4844 1.01867 73.8898 1.17333 74.1458 1.344L73.6498 2.608C73.4258 2.46933 73.0898 2.336 72.6418 2.208C72.2044 2.06933 71.6924 2 71.1058 2C70.8071 2 70.5298 2.032 70.2738 2.096C70.0178 2.16 69.7938 2.256 69.6018 2.384C69.4098 2.512 69.2551 2.67733 69.1378 2.88C69.0311 3.072 68.9778 3.30133 68.9778 3.568C68.9778 3.86667 69.0364 4.11733 69.1538 4.32C69.2711 4.52267 69.4364 4.704 69.6498 4.864C69.8631 5.01333 70.1084 5.152 70.3858 5.28C70.6738 5.408 70.9884 5.536 71.3298 5.664C71.8098 5.856 72.2471 6.048 72.6418 6.24C73.0471 6.432 73.3938 6.66133 73.6818 6.928C73.9804 7.19467 74.2098 7.51467 74.3698 7.888C74.5298 8.25067 74.6098 8.69333 74.6098 9.216C74.6098 10.1867 74.2524 10.9333 73.5378 11.456C72.8338 11.9787 71.8364 12.24 70.5458 12.24C70.1084 12.24 69.7031 12.208 69.3298 12.144C68.9671 12.0907 68.6418 12.0267 68.3538 11.952C68.0658 11.8667 67.8151 11.7813 67.6018 11.696C67.3991 11.6 67.2391 11.52 67.1217 11.456L67.5858 10.176C67.8311 10.3147 68.2044 10.4693 68.7057 10.64C69.2071 10.8107 69.8204 10.896 70.5458 10.896Z" fill="#F17216"/>
</svg>
