<svg width="112" height="67" viewBox="0 0 112 67" fill="none" xmlns="http://www.w3.org/2000/svg">
<path d="M14.719 23.198L11.963 19.896C11.2004 20.0867 10.4204 20.182 9.62303 20.182C7.92436 20.182 6.36436 19.7833 4.94303 18.986C3.5217 18.1887 2.39503 17.088 1.56303 15.684C0.731029 14.2627 0.315029 12.6593 0.315029 10.874C0.315029 9.106 0.731029 7.52 1.56303 6.116C2.39503 4.69467 3.5217 3.58533 4.94303 2.788C6.36436 1.99067 7.92436 1.592 9.62303 1.592C11.339 1.592 12.899 1.99067 14.303 2.788C15.7244 3.58533 16.8424 4.69467 17.657 6.116C18.489 7.52 18.905 9.106 18.905 10.874C18.905 12.486 18.5584 13.9593 17.865 15.294C17.189 16.6113 16.2617 17.686 15.083 18.518L19.243 23.198H14.719ZM4.05903 10.874C4.05903 12.0873 4.29303 13.1533 4.76103 14.072C5.22903 14.9907 5.87903 15.7013 6.71103 16.204C7.56036 16.6893 8.53103 16.932 9.62303 16.932C10.715 16.932 11.677 16.6893 12.509 16.204C13.341 15.7013 13.991 14.9907 14.459 14.072C14.927 13.1533 15.161 12.0873 15.161 10.874C15.161 9.66067 14.927 8.60333 14.459 7.702C13.991 6.78333 13.341 6.08133 12.509 5.596C11.677 5.11067 10.715 4.868 9.62303 4.868C8.53103 4.868 7.56036 5.11067 6.71103 5.596C5.87903 6.08133 5.22903 6.78333 4.76103 7.702C4.29303 8.60333 4.05903 9.66067 4.05903 10.874ZM32.7399 9.184V12.252H21.7159V9.184H32.7399ZM47.9501 16.542H40.7221L39.5261 20H35.7041L42.2301 1.826H46.4681L52.9941 20H49.1461L47.9501 16.542ZM46.9621 13.63L44.3361 6.038L41.7101 13.63H46.9621ZM72.7567 16.542H65.5287L64.3327 20H60.5107L67.0367 1.826H71.2747L77.8007 20H73.9527L72.7567 16.542ZM71.7687 13.63L69.1427 6.038L66.5167 13.63H71.7687ZM88.222 5.388C89.938 5.388 91.3247 5.934 92.382 7.026C93.4394 8.10067 93.968 9.60867 93.968 11.55V20H90.328V12.044C90.328 10.9 90.042 10.0247 89.47 9.418C88.898 8.794 88.118 8.482 87.13 8.482C86.1247 8.482 85.3274 8.794 84.738 9.418C84.166 10.0247 83.88 10.9 83.88 12.044V20H80.24V5.596H83.88V7.39C84.3654 6.766 84.9807 6.28067 85.726 5.934C86.4887 5.57 87.3207 5.388 88.222 5.388ZM96.4935 12.746C96.4935 11.29 96.7795 9.99867 97.3515 8.872C97.9408 7.74533 98.7382 6.87867 99.7435 6.272C100.749 5.66533 101.867 5.362 103.097 5.362C104.033 5.362 104.926 5.57 105.775 5.986C106.625 6.38467 107.301 6.922 107.803 7.598V0.76H111.495V20H107.803V17.868C107.353 18.5787 106.72 19.1507 105.905 19.584C105.091 20.0173 104.146 20.234 103.071 20.234C101.858 20.234 100.749 19.922 99.7435 19.298C98.7382 18.674 97.9408 17.7987 97.3515 16.672C96.7795 15.528 96.4935 14.2193 96.4935 12.746ZM107.829 12.798C107.829 11.914 107.656 11.16 107.309 10.536C106.963 9.89467 106.495 9.40933 105.905 9.08C105.316 8.73333 104.683 8.56 104.007 8.56C103.331 8.56 102.707 8.72467 102.135 9.054C101.563 9.38333 101.095 9.86867 100.731 10.51C100.385 11.134 100.211 11.8793 100.211 12.746C100.211 13.6127 100.385 14.3753 100.731 15.034C101.095 15.6753 101.563 16.1693 102.135 16.516C102.725 16.8627 103.349 17.036 104.007 17.036C104.683 17.036 105.316 16.8713 105.905 16.542C106.495 16.1953 106.963 15.71 107.309 15.086C107.656 14.4447 107.829 13.682 107.829 12.798ZM21.801 40.852V43.79H16.965V59H13.325V43.79H8.48898V40.852H21.801ZM37.8468 51.486C37.8468 52.006 37.8122 52.474 37.7428 52.89H27.2128C27.2995 53.93 27.6635 54.7447 28.3048 55.334C28.9462 55.9233 29.7348 56.218 30.6708 56.218C32.0228 56.218 32.9848 55.6373 33.5568 54.476H37.4828C37.0668 55.8627 36.2695 57.0067 35.0908 57.908C33.9122 58.792 32.4648 59.234 30.7488 59.234C29.3622 59.234 28.1142 58.9307 27.0048 58.324C25.9128 57.7 25.0548 56.8247 24.4308 55.698C23.8242 54.5713 23.5208 53.2713 23.5208 51.798C23.5208 50.3073 23.8242 48.9987 24.4308 47.872C25.0375 46.7453 25.8868 45.8787 26.9788 45.272C28.0708 44.6653 29.3275 44.362 30.7488 44.362C32.1182 44.362 33.3402 44.6567 34.4148 45.246C35.5068 45.8353 36.3475 46.676 36.9368 47.768C37.5435 48.8427 37.8468 50.082 37.8468 51.486ZM34.0768 50.446C34.0595 49.51 33.7215 48.7647 33.0628 48.21C32.4042 47.638 31.5982 47.352 30.6448 47.352C29.7435 47.352 28.9808 47.6293 28.3568 48.184C27.7502 48.7213 27.3775 49.4753 27.2388 50.446H34.0768ZM46.0157 59.234C44.8371 59.234 43.7797 59.026 42.8437 58.61C41.9077 58.1767 41.1624 57.596 40.6077 56.868C40.0704 56.14 39.7757 55.334 39.7237 54.45H43.3897C43.4591 55.0047 43.7277 55.464 44.1957 55.828C44.6811 56.192 45.2791 56.374 45.9897 56.374C46.6831 56.374 47.2204 56.2353 47.6017 55.958C48.0004 55.6807 48.1997 55.3253 48.1997 54.892C48.1997 54.424 47.9571 54.0773 47.4717 53.852C47.0037 53.6093 46.2497 53.3493 45.2097 53.072C44.1351 52.812 43.2511 52.5433 42.5577 52.266C41.8817 51.9887 41.2924 51.564 40.7897 50.992C40.3044 50.42 40.0617 49.6487 40.0617 48.678C40.0617 47.8807 40.2871 47.1527 40.7377 46.494C41.2057 45.8353 41.8644 45.3153 42.7137 44.934C43.5804 44.5527 44.5944 44.362 45.7557 44.362C47.4717 44.362 48.8411 44.7953 49.8637 45.662C50.8864 46.5113 51.4497 47.664 51.5537 49.12H48.0697C48.0177 48.548 47.7751 48.0973 47.3417 47.768C46.9257 47.4213 46.3624 47.248 45.6517 47.248C44.9931 47.248 44.4817 47.3693 44.1177 47.612C43.7711 47.8547 43.5977 48.1927 43.5977 48.626C43.5977 49.1113 43.8404 49.484 44.3257 49.744C44.8111 49.9867 45.5651 50.238 46.5877 50.498C47.6277 50.758 48.4857 51.0267 49.1617 51.304C49.8377 51.5813 50.4184 52.0147 50.9037 52.604C51.4064 53.176 51.6664 53.9387 51.6837 54.892C51.6837 55.724 51.4497 56.4693 50.9817 57.128C50.5311 57.7867 49.8724 58.3067 49.0057 58.688C48.1564 59.052 47.1597 59.234 46.0157 59.234ZM58.9097 47.586V54.554C58.9097 55.0393 59.0224 55.3947 59.2477 55.62C59.4904 55.828 59.889 55.932 60.4437 55.932H62.1337V59H59.8457C56.7777 59 55.2437 57.5093 55.2437 54.528V47.586H53.5277V44.596H55.2437V41.034H58.9097V44.596H62.1337V47.586H58.9097ZM66.5978 42.88C65.9564 42.88 65.4191 42.6807 64.9858 42.282C64.5698 41.866 64.3618 41.3547 64.3618 40.748C64.3618 40.1413 64.5698 39.6387 64.9858 39.24C65.4191 38.824 65.9564 38.616 66.5978 38.616C67.2391 38.616 67.7678 38.824 68.1838 39.24C68.6171 39.6387 68.8338 40.1413 68.8338 40.748C68.8338 41.3547 68.6171 41.866 68.1838 42.282C67.7678 42.6807 67.2391 42.88 66.5978 42.88ZM68.3918 44.596V59H64.7518V44.596H68.3918ZM79.9701 44.388C81.6861 44.388 83.0728 44.934 84.1301 46.026C85.1874 47.1007 85.7161 48.6087 85.7161 50.55V59H82.0761V51.044C82.0761 49.9 81.7901 49.0247 81.2181 48.418C80.6461 47.794 79.8661 47.482 78.8781 47.482C77.8728 47.482 77.0754 47.794 76.4861 48.418C75.9141 49.0247 75.6281 49.9 75.6281 51.044V59H71.9881V44.596H75.6281V46.39C76.1134 45.766 76.7288 45.2807 77.4741 44.934C78.2368 44.57 79.0688 44.388 79.9701 44.388ZM94.8195 44.362C95.8942 44.362 96.8389 44.5787 97.6535 45.012C98.4682 45.428 99.1095 45.974 99.5775 46.65V44.596H103.244V59.104C103.244 60.4387 102.975 61.626 102.438 62.666C101.9 63.7233 101.094 64.5553 100.02 65.162C98.9449 65.786 97.6449 66.098 96.1195 66.098C94.0742 66.098 92.3929 65.6213 91.0755 64.668C89.7755 63.7147 89.0389 62.4147 88.8655 60.768H92.4795C92.6702 61.4267 93.0775 61.9467 93.7015 62.328C94.3429 62.7267 95.1142 62.926 96.0155 62.926C97.0729 62.926 97.9309 62.6053 98.5895 61.964C99.2482 61.34 99.5775 60.3867 99.5775 59.104V56.868C99.1095 57.544 98.4595 58.1073 97.6275 58.558C96.8129 59.0087 95.8769 59.234 94.8195 59.234C93.6062 59.234 92.4969 58.922 91.4915 58.298C90.4862 57.674 89.6889 56.7987 89.0995 55.672C88.5275 54.528 88.2415 53.2193 88.2415 51.746C88.2415 50.29 88.5275 48.9987 89.0995 47.872C89.6889 46.7453 90.4775 45.8787 91.4655 45.272C92.4709 44.6653 93.5889 44.362 94.8195 44.362ZM99.5775 51.798C99.5775 50.914 99.4042 50.16 99.0575 49.536C98.7109 48.8947 98.2429 48.4093 97.6535 48.08C97.0642 47.7333 96.4315 47.56 95.7555 47.56C95.0795 47.56 94.4555 47.7247 93.8835 48.054C93.3115 48.3833 92.8435 48.8687 92.4795 49.51C92.1329 50.134 91.9595 50.8793 91.9595 51.746C91.9595 52.6127 92.1329 53.3753 92.4795 54.034C92.8435 54.6753 93.3115 55.1693 93.8835 55.516C94.4729 55.8627 95.0969 56.036 95.7555 56.036C96.4315 56.036 97.0642 55.8713 97.6535 55.542C98.2429 55.1953 98.7109 54.71 99.0575 54.086C99.4042 53.4447 99.5775 52.682 99.5775 51.798Z" fill="#040404"/>
</svg>
