<svg width="129" height="20" viewBox="0 0 129 20" fill="none" xmlns="http://www.w3.org/2000/svg">
<path d="M5.02 14.12C5.92667 14.12 6.58667 13.9667 7 13.66C7.41333 13.3533 7.62 12.92 7.62 12.36C7.62 12.0267 7.54667 11.74 7.4 11.5C7.26667 11.26 7.06667 11.0467 6.8 10.86C6.54667 10.66 6.23333 10.48 5.86 10.32C5.48667 10.1467 5.06 9.98 4.58 9.82C4.1 9.64667 3.63333 9.46 3.18 9.26C2.74 9.04667 2.34667 8.78667 2 8.48C1.66667 8.17333 1.39333 7.80667 1.18 7.38C0.98 6.95333 0.88 6.44 0.88 5.84C0.88 4.58667 1.31333 3.60667 2.18 2.9C3.04667 2.18 4.22667 1.82 5.72 1.82C6.58667 1.82 7.35333 1.92 8.02 2.12C8.7 2.30667 9.23333 2.51333 9.62 2.74L8.84 4.78C8.38667 4.52667 7.88667 4.33333 7.34 4.2C6.80667 4.06667 6.25333 4 5.68 4C5 4 4.46667 4.14 4.08 4.42C3.70667 4.7 3.52 5.09333 3.52 5.6C3.52 5.90667 3.58 6.17333 3.7 6.4C3.83333 6.61333 4.01333 6.80667 4.24 6.98C4.48 7.15333 4.75333 7.31333 5.06 7.46C5.38 7.60667 5.72667 7.74667 6.1 7.88C6.75333 8.12 7.33333 8.36667 7.84 8.62C8.36 8.86 8.79333 9.15333 9.14 9.5C9.5 9.83333 9.77333 10.2333 9.96 10.7C10.1467 11.1533 10.24 11.7067 10.24 12.36C10.24 13.6133 9.79333 14.5867 8.9 15.28C8.02 15.96 6.72667 16.3 5.02 16.3C4.44667 16.3 3.92 16.26 3.44 16.18C2.97333 16.1133 2.55333 16.0267 2.18 15.92C1.82 15.8133 1.50667 15.7067 1.24 15.6C0.973333 15.48 0.76 15.3733 0.6 15.28L1.34 13.22C1.7 13.42 2.18667 13.62 2.8 13.82C3.41333 14.02 4.15333 14.12 5.02 14.12ZM16.0208 14.3C16.7674 14.3 17.3341 14.26 17.7208 14.18V11.5C17.5874 11.46 17.3941 11.42 17.1408 11.38C16.8874 11.34 16.6074 11.32 16.3008 11.32C16.0341 11.32 15.7608 11.34 15.4808 11.38C15.2141 11.42 14.9674 11.4933 14.7408 11.6C14.5274 11.7067 14.3541 11.86 14.2208 12.06C14.0874 12.2467 14.0208 12.4867 14.0208 12.78C14.0208 13.3533 14.2008 13.7533 14.5608 13.98C14.9208 14.1933 15.4074 14.3 16.0208 14.3ZM15.8208 5.28C16.6208 5.28 17.2941 5.38 17.8408 5.58C18.3874 5.78 18.8208 6.06 19.1408 6.42C19.4741 6.78 19.7074 7.22 19.8408 7.74C19.9874 8.24667 20.0608 8.80667 20.0608 9.42V15.76C19.6874 15.84 19.1208 15.9333 18.3608 16.04C17.6141 16.16 16.7674 16.22 15.8208 16.22C15.1941 16.22 14.6208 16.16 14.1008 16.04C13.5808 15.92 13.1341 15.7267 12.7608 15.46C12.4008 15.1933 12.1141 14.8467 11.9008 14.42C11.7008 13.9933 11.6008 13.4667 11.6008 12.84C11.6008 12.24 11.7141 11.7333 11.9408 11.32C12.1808 10.9067 12.5008 10.5733 12.9008 10.32C13.3008 10.0533 13.7608 9.86667 14.2808 9.76C14.8141 9.64 15.3674 9.58 15.9408 9.58C16.2074 9.58 16.4874 9.6 16.7808 9.64C17.0741 9.66667 17.3874 9.72 17.7208 9.8V9.4C17.7208 9.12 17.6874 8.85333 17.6208 8.6C17.5541 8.34667 17.4341 8.12667 17.2608 7.94C17.1008 7.74 16.8808 7.58667 16.6008 7.48C16.3341 7.37333 15.9941 7.32 15.5808 7.32C15.0208 7.32 14.5074 7.36 14.0408 7.44C13.5741 7.52 13.1941 7.61333 12.9008 7.72L12.6008 5.76C12.9074 5.65333 13.3541 5.54667 13.9408 5.44C14.5274 5.33333 15.1541 5.28 15.8208 5.28ZM26.6644 16.2C25.9444 16.1867 25.3444 16.1067 24.8644 15.96C24.3977 15.8133 24.0244 15.6067 23.7444 15.34C23.4644 15.06 23.2644 14.72 23.1444 14.32C23.0377 13.9067 22.9844 13.44 22.9844 12.92V0.879999L25.4044 0.48V12.46C25.4044 12.7533 25.4244 13 25.4644 13.2C25.5177 13.4 25.6044 13.5733 25.7244 13.72C25.8444 13.8533 26.0044 13.96 26.2044 14.04C26.4177 14.1067 26.6844 14.16 27.0044 14.2L26.6644 16.2ZM28.3819 10.82C28.3819 9.9 28.5152 9.09333 28.7819 8.4C29.0619 7.70667 29.4285 7.13333 29.8819 6.68C30.3352 6.21333 30.8552 5.86667 31.4419 5.64C32.0285 5.4 32.6285 5.28 33.2419 5.28C34.6819 5.28 35.8019 5.72667 36.6019 6.62C37.4152 7.51333 37.8219 8.84667 37.8219 10.62C37.8219 10.7533 37.8152 10.9067 37.8019 11.08C37.8019 11.24 37.7952 11.3867 37.7819 11.52H30.8819C30.9485 12.36 31.2419 13.0133 31.7619 13.48C32.2952 13.9333 33.0619 14.16 34.0619 14.16C34.6485 14.16 35.1819 14.1067 35.6619 14C36.1552 13.8933 36.5419 13.78 36.8219 13.66L37.1419 15.64C37.0085 15.7067 36.8219 15.78 36.5819 15.86C36.3552 15.9267 36.0885 15.9867 35.7819 16.04C35.4885 16.1067 35.1685 16.16 34.8219 16.2C34.4752 16.24 34.1219 16.26 33.7619 16.26C32.8419 16.26 32.0419 16.1267 31.3619 15.86C30.6819 15.58 30.1219 15.2 29.6819 14.72C29.2419 14.2267 28.9152 13.6533 28.7019 13C28.4885 12.3333 28.3819 11.6067 28.3819 10.82ZM35.4019 9.74C35.4019 9.40667 35.3552 9.09333 35.2619 8.8C35.1685 8.49333 35.0285 8.23333 34.8419 8.02C34.6685 7.79333 34.4485 7.62 34.1819 7.5C33.9285 7.36667 33.6219 7.3 33.2619 7.3C32.8885 7.3 32.5619 7.37333 32.2819 7.52C32.0019 7.65333 31.7619 7.83333 31.5619 8.06C31.3752 8.28667 31.2285 8.54667 31.1219 8.84C31.0152 9.13333 30.9419 9.43333 30.9019 9.74H35.4019ZM43.0077 14.26C43.6477 14.26 44.1143 14.1867 44.4077 14.04C44.701 13.88 44.8477 13.6133 44.8477 13.24C44.8477 12.8933 44.6877 12.6067 44.3677 12.38C44.061 12.1533 43.5477 11.9067 42.8277 11.64C42.3877 11.48 41.981 11.3133 41.6077 11.14C41.2477 10.9533 40.9343 10.74 40.6677 10.5C40.401 10.26 40.1877 9.97333 40.0277 9.64C39.881 9.29333 39.8077 8.87333 39.8077 8.38C39.8077 7.42 40.161 6.66667 40.8677 6.12C41.5743 5.56 42.5343 5.28 43.7477 5.28C44.361 5.28 44.9477 5.34 45.5077 5.46C46.0677 5.56667 46.4877 5.67333 46.7677 5.78L46.3277 7.74C46.061 7.62 45.721 7.51333 45.3077 7.42C44.8943 7.31333 44.4143 7.26 43.8677 7.26C43.3743 7.26 42.9743 7.34667 42.6677 7.52C42.361 7.68 42.2077 7.93333 42.2077 8.28C42.2077 8.45333 42.2343 8.60667 42.2877 8.74C42.3543 8.87333 42.461 9 42.6077 9.12C42.7543 9.22667 42.9477 9.34 43.1877 9.46C43.4277 9.56667 43.721 9.68 44.0677 9.8C44.641 10.0133 45.1277 10.2267 45.5277 10.44C45.9277 10.64 46.2543 10.8733 46.5077 11.14C46.7743 11.3933 46.9677 11.6867 47.0877 12.02C47.2077 12.3533 47.2677 12.7533 47.2677 13.22C47.2677 14.22 46.8943 14.98 46.1477 15.5C45.4143 16.0067 44.361 16.26 42.9877 16.26C42.0677 16.26 41.3277 16.18 40.7677 16.02C40.2077 15.8733 39.8143 15.7533 39.5877 15.66L40.0077 13.64C40.3677 13.7867 40.7943 13.9267 41.2877 14.06C41.7943 14.1933 42.3677 14.26 43.0077 14.26ZM63.5163 16C63.3296 15.4533 63.1363 14.9133 62.9362 14.38C62.7363 13.8467 62.5429 13.3 62.3563 12.74H56.5163C56.3296 13.3 56.1363 13.8533 55.9363 14.4C55.7496 14.9333 55.5629 15.4667 55.3763 16H52.7563C53.2763 14.52 53.7696 13.1533 54.2363 11.9C54.7029 10.6467 55.1563 9.46 55.5962 8.34C56.0496 7.22 56.4963 6.15333 56.9363 5.14C57.3763 4.12667 57.8296 3.12667 58.2963 2.14H60.6763C61.1429 3.12667 61.5963 4.12667 62.0363 5.14C62.4763 6.15333 62.9163 7.22 63.3563 8.34C63.8096 9.46 64.2696 10.6467 64.7363 11.9C65.2163 13.1533 65.7163 14.52 66.2363 16H63.5163ZM59.4363 4.82C59.1296 5.52667 58.7763 6.38667 58.3763 7.4C57.9896 8.41333 57.5829 9.51333 57.1563 10.7H61.7163C61.2896 9.51333 60.8763 8.40667 60.4763 7.38C60.0763 6.35333 59.7296 5.5 59.4363 4.82ZM67.8681 5.88C68.3348 5.74667 68.9415 5.62 69.6881 5.5C70.4348 5.38 71.2615 5.32 72.1681 5.32C73.0215 5.32 73.7348 5.44 74.3081 5.68C74.8815 5.90667 75.3348 6.23333 75.6681 6.66C76.0148 7.07333 76.2548 7.58 76.3881 8.18C76.5348 8.76667 76.6081 9.41333 76.6081 10.12V16H74.1881V10.5C74.1881 9.94 74.1481 9.46667 74.0681 9.08C74.0015 8.68 73.8815 8.36 73.7081 8.12C73.5481 7.86667 73.3215 7.68667 73.0281 7.58C72.7481 7.46 72.4015 7.4 71.9881 7.4C71.6815 7.4 71.3615 7.42 71.0281 7.46C70.6948 7.5 70.4481 7.53333 70.2881 7.56V16H67.8681V5.88ZM83.2473 14.3C83.994 14.3 84.5607 14.26 84.9473 14.18V11.5C84.814 11.46 84.6207 11.42 84.3673 11.38C84.114 11.34 83.834 11.32 83.5273 11.32C83.2607 11.32 82.9873 11.34 82.7073 11.38C82.4407 11.42 82.194 11.4933 81.9673 11.6C81.754 11.7067 81.5807 11.86 81.4473 12.06C81.314 12.2467 81.2473 12.4867 81.2473 12.78C81.2473 13.3533 81.4273 13.7533 81.7873 13.98C82.1473 14.1933 82.634 14.3 83.2473 14.3ZM83.0473 5.28C83.8473 5.28 84.5207 5.38 85.0673 5.58C85.614 5.78 86.0473 6.06 86.3673 6.42C86.7007 6.78 86.934 7.22 87.0673 7.74C87.214 8.24667 87.2873 8.80667 87.2873 9.42V15.76C86.914 15.84 86.3473 15.9333 85.5873 16.04C84.8407 16.16 83.994 16.22 83.0473 16.22C82.4207 16.22 81.8473 16.16 81.3273 16.04C80.8073 15.92 80.3607 15.7267 79.9873 15.46C79.6273 15.1933 79.3407 14.8467 79.1273 14.42C78.9273 13.9933 78.8273 13.4667 78.8273 12.84C78.8273 12.24 78.9407 11.7333 79.1673 11.32C79.4073 10.9067 79.7273 10.5733 80.1273 10.32C80.5273 10.0533 80.9873 9.86667 81.5073 9.76C82.0407 9.64 82.594 9.58 83.1673 9.58C83.434 9.58 83.714 9.6 84.0073 9.64C84.3007 9.66667 84.614 9.72 84.9473 9.8V9.4C84.9473 9.12 84.914 8.85333 84.8473 8.6C84.7807 8.34667 84.6607 8.12667 84.4873 7.94C84.3273 7.74 84.1073 7.58667 83.8273 7.48C83.5607 7.37333 83.2207 7.32 82.8073 7.32C82.2473 7.32 81.734 7.36 81.2673 7.44C80.8007 7.52 80.4207 7.61333 80.1273 7.72L79.8273 5.76C80.134 5.65333 80.5807 5.54667 81.1673 5.44C81.754 5.33333 82.3807 5.28 83.0473 5.28ZM93.8909 16.2C93.1709 16.1867 92.5709 16.1067 92.0909 15.96C91.6243 15.8133 91.2509 15.6067 90.9709 15.34C90.6909 15.06 90.4909 14.72 90.3709 14.32C90.2643 13.9067 90.2109 13.44 90.2109 12.92V0.879999L92.6309 0.48V12.46C92.6309 12.7533 92.6509 13 92.6909 13.2C92.7443 13.4 92.8309 13.5733 92.9509 13.72C93.0709 13.8533 93.2309 13.96 93.4309 14.04C93.6443 14.1067 93.9109 14.16 94.2309 14.2L93.8909 16.2ZM104.728 5.54C103.648 9.51333 102.395 13.1133 100.968 16.34C100.702 16.94 100.428 17.4533 100.148 17.88C99.8684 18.3067 99.5551 18.66 99.2084 18.94C98.8618 19.22 98.4751 19.42 98.0484 19.54C97.6218 19.6733 97.1284 19.74 96.5684 19.74C96.1951 19.74 95.8218 19.7 95.4484 19.62C95.0884 19.54 94.8151 19.4533 94.6284 19.36L95.0684 17.42C95.5484 17.6067 96.0218 17.7 96.4884 17.7C97.1151 17.7 97.6018 17.5467 97.9484 17.24C98.3084 16.9467 98.6218 16.4867 98.8884 15.86C98.1284 14.3933 97.3951 12.7933 96.6884 11.06C95.9951 9.32667 95.3751 7.48667 94.8284 5.54H97.4084C97.5418 6.1 97.7018 6.70667 97.8884 7.36C98.0884 8.01333 98.3018 8.68 98.5284 9.36C98.7551 10.0267 98.9951 10.6933 99.2484 11.36C99.5018 12.0267 99.7551 12.6467 100.008 13.22C100.435 12.0333 100.835 10.7733 101.208 9.44C101.582 8.09333 101.922 6.79333 102.228 5.54H104.728ZM106.44 2.78L108.86 2.38V5.54H112.58V7.56H108.86V11.82C108.86 12.66 108.993 13.26 109.26 13.62C109.526 13.98 109.98 14.16 110.62 14.16C111.06 14.16 111.446 14.1133 111.78 14.02C112.126 13.9267 112.4 13.84 112.6 13.76L113 15.68C112.72 15.8 112.353 15.92 111.9 16.04C111.446 16.1733 110.913 16.24 110.3 16.24C109.553 16.24 108.926 16.14 108.42 15.94C107.926 15.74 107.533 15.4533 107.24 15.08C106.946 14.6933 106.74 14.2333 106.62 13.7C106.5 13.1533 106.44 12.5333 106.44 11.84V2.78ZM117.359 16H114.939V5.54H117.359V16ZM117.619 2.48C117.619 2.93333 117.472 3.29333 117.179 3.56C116.886 3.82667 116.539 3.96 116.139 3.96C115.726 3.96 115.372 3.82667 115.079 3.56C114.786 3.29333 114.639 2.93333 114.639 2.48C114.639 2.01333 114.786 1.64667 115.079 1.38C115.372 1.11333 115.726 0.979999 116.139 0.979999C116.539 0.979999 116.886 1.11333 117.179 1.38C117.472 1.64667 117.619 2.01333 117.619 2.48ZM119.866 10.78C119.866 10.0067 119.986 9.28667 120.226 8.62C120.466 7.94 120.806 7.35333 121.246 6.86C121.7 6.36667 122.246 5.98 122.886 5.7C123.526 5.42 124.246 5.28 125.046 5.28C126.033 5.28 126.966 5.46 127.846 5.82L127.326 7.8C127.046 7.68 126.726 7.58 126.366 7.5C126.02 7.42 125.646 7.38 125.246 7.38C124.3 7.38 123.58 7.68 123.086 8.28C122.593 8.86667 122.346 9.7 122.346 10.78C122.346 11.82 122.58 12.6467 123.046 13.26C123.513 13.86 124.3 14.16 125.406 14.16C125.82 14.16 126.226 14.12 126.626 14.04C127.026 13.96 127.373 13.86 127.666 13.74L128.006 15.74C127.74 15.8733 127.333 15.9933 126.786 16.1C126.253 16.2067 125.7 16.26 125.126 16.26C124.233 16.26 123.453 16.1267 122.786 15.86C122.133 15.58 121.586 15.2 121.146 14.72C120.72 14.2267 120.4 13.6467 120.186 12.98C119.973 12.3 119.866 11.5667 119.866 10.78Z" fill="#14183E"/>
</svg>
