<svg width="63" height="11" viewBox="0 0 63 11" fill="none" xmlns="http://www.w3.org/2000/svg">
<path d="M3.766 8.334C4.074 8.334 4.326 8.31067 4.522 8.264C4.72733 8.208 4.89067 8.138 5.012 8.054C5.13333 7.96067 5.21733 7.85333 5.264 7.732C5.31067 7.61067 5.334 7.47533 5.334 7.326C5.334 7.00867 5.18467 6.74733 4.886 6.542C4.58733 6.32733 4.074 6.09867 3.346 5.856C3.02867 5.744 2.71133 5.618 2.394 5.478C2.07667 5.32867 1.792 5.14667 1.54 4.932C1.288 4.708 1.08267 4.442 0.924 4.134C0.765333 3.81667 0.686 3.434 0.686 2.986C0.686 2.538 0.77 2.13667 0.938 1.782C1.106 1.418 1.344 1.11 1.652 0.857999C1.96 0.606 2.33333 0.414667 2.772 0.284C3.21067 0.143999 3.70533 0.0739993 4.256 0.0739993C4.90933 0.0739993 5.474 0.143999 5.95 0.284C6.426 0.424 6.818 0.578 7.126 0.746L6.496 2.468C6.22533 2.328 5.922 2.20667 5.586 2.104C5.25933 1.992 4.86267 1.936 4.396 1.936C3.87333 1.936 3.49533 2.01067 3.262 2.16C3.038 2.3 2.926 2.51933 2.926 2.818C2.926 2.99533 2.968 3.14467 3.052 3.266C3.136 3.38733 3.25267 3.49933 3.402 3.602C3.56067 3.69533 3.738 3.784 3.934 3.868C4.13933 3.94267 4.36333 4.022 4.606 4.106C5.11 4.29267 5.54867 4.47933 5.922 4.666C6.29533 4.84333 6.60333 5.05333 6.846 5.296C7.098 5.53867 7.28467 5.82333 7.406 6.15C7.52733 6.47667 7.588 6.87333 7.588 7.34C7.588 8.24533 7.27067 8.95 6.636 9.454C6.00133 9.94867 5.04467 10.196 3.766 10.196C3.33667 10.196 2.94933 10.168 2.604 10.112C2.25867 10.0653 1.95067 10.0047 1.68 9.93C1.41867 9.85533 1.19 9.776 0.994 9.692C0.807333 9.608 0.648667 9.52867 0.518 9.454L1.134 7.718C1.42333 7.87667 1.778 8.02133 2.198 8.152C2.62733 8.27333 3.15 8.334 3.766 8.334ZM8.77844 6.374C8.77844 5.72067 8.87644 5.15133 9.07244 4.666C9.27777 4.17133 9.54377 3.76067 9.87044 3.434C10.1971 3.10733 10.5704 2.86 10.9904 2.692C11.4198 2.524 11.8584 2.44 12.3064 2.44C13.3518 2.44 14.1778 2.762 14.7844 3.406C15.3911 4.04067 15.6944 4.97867 15.6944 6.22C15.6944 6.34133 15.6898 6.47667 15.6804 6.626C15.6711 6.766 15.6618 6.892 15.6524 7.004H10.9204C10.9671 7.43333 11.1678 7.774 11.5224 8.026C11.8771 8.278 12.3531 8.404 12.9504 8.404C13.3331 8.404 13.7064 8.37133 14.0704 8.306C14.4438 8.23133 14.7471 8.14267 14.9804 8.04L15.2604 9.734C15.1484 9.79 14.9991 9.846 14.8124 9.902C14.6258 9.958 14.4158 10.0047 14.1824 10.042C13.9584 10.0887 13.7158 10.126 13.4544 10.154C13.1931 10.182 12.9318 10.196 12.6704 10.196C12.0078 10.196 11.4291 10.098 10.9344 9.902C10.4491 9.706 10.0431 9.44 9.71644 9.104C9.3991 8.75867 9.1611 8.35267 9.00244 7.886C8.8531 7.41933 8.77844 6.91533 8.77844 6.374ZM13.6784 5.576C13.6691 5.39867 13.6364 5.226 13.5804 5.058C13.5338 4.89 13.4544 4.74067 13.3424 4.61C13.2398 4.47933 13.1044 4.372 12.9364 4.288C12.7778 4.204 12.5771 4.162 12.3344 4.162C12.1011 4.162 11.9004 4.204 11.7324 4.288C11.5644 4.36267 11.4244 4.46533 11.3124 4.596C11.2004 4.72667 11.1118 4.88067 11.0464 5.058C10.9904 5.226 10.9484 5.39867 10.9204 5.576H13.6784ZM16.9542 6.374C16.9542 5.72067 17.0522 5.15133 17.2482 4.666C17.4536 4.17133 17.7196 3.76067 18.0462 3.434C18.3729 3.10733 18.7462 2.86 19.1662 2.692C19.5956 2.524 20.0342 2.44 20.4822 2.44C21.5276 2.44 22.3536 2.762 22.9602 3.406C23.5669 4.04067 23.8702 4.97867 23.8702 6.22C23.8702 6.34133 23.8656 6.47667 23.8562 6.626C23.8469 6.766 23.8376 6.892 23.8282 7.004H19.0962C19.1429 7.43333 19.3436 7.774 19.6982 8.026C20.0529 8.278 20.5289 8.404 21.1262 8.404C21.5089 8.404 21.8822 8.37133 22.2462 8.306C22.6196 8.23133 22.9229 8.14267 23.1562 8.04L23.4362 9.734C23.3242 9.79 23.1749 9.846 22.9882 9.902C22.8016 9.958 22.5916 10.0047 22.3582 10.042C22.1342 10.0887 21.8916 10.126 21.6302 10.154C21.3689 10.182 21.1076 10.196 20.8462 10.196C20.1836 10.196 19.6049 10.098 19.1102 9.902C18.6249 9.706 18.2189 9.44 17.8922 9.104C17.5749 8.75867 17.3369 8.35267 17.1782 7.886C17.0289 7.41933 16.9542 6.91533 16.9542 6.374ZM21.8542 5.576C21.8449 5.39867 21.8122 5.226 21.7562 5.058C21.7096 4.89 21.6302 4.74067 21.5182 4.61C21.4156 4.47933 21.2802 4.372 21.1122 4.288C20.9536 4.204 20.7529 4.162 20.5102 4.162C20.2769 4.162 20.0762 4.204 19.9082 4.288C19.7402 4.36267 19.6002 4.46533 19.4882 4.596C19.3762 4.72667 19.2876 4.88067 19.2222 5.058C19.1662 5.226 19.1242 5.39867 19.0962 5.576H21.8542ZM31.5593 0.298C31.7273 0.606 31.9186 0.988666 32.1333 1.446C32.3573 1.894 32.5859 2.384 32.8193 2.916C33.0619 3.43867 33.2999 3.97533 33.5333 4.526C33.7666 5.07667 33.9859 5.59467 34.1913 6.08C34.3966 5.59467 34.6159 5.07667 34.8493 4.526C35.0826 3.97533 35.3159 3.43867 35.5493 2.916C35.7919 2.384 36.0206 1.894 36.2353 1.446C36.4593 0.988666 36.6553 0.606 36.8233 0.298H38.8113C38.9046 0.942 38.9886 1.66533 39.0633 2.468C39.1473 3.26133 39.2173 4.092 39.2733 4.96C39.3386 5.81867 39.3946 6.682 39.4413 7.55C39.4973 8.418 39.5439 9.23467 39.5813 10H37.4533C37.4253 9.05733 37.3879 8.03067 37.3413 6.92C37.2946 5.80933 37.2246 4.68933 37.1313 3.56C36.9633 3.952 36.7766 4.386 36.5713 4.862C36.3659 5.338 36.1606 5.814 35.9553 6.29C35.7593 6.766 35.5679 7.22333 35.3813 7.662C35.1946 8.09133 35.0359 8.46 34.9053 8.768H33.3793C33.2486 8.46 33.0899 8.09133 32.9033 7.662C32.7166 7.22333 32.5206 6.766 32.3153 6.29C32.1193 5.814 31.9186 5.338 31.7133 4.862C31.5079 4.386 31.3213 3.952 31.1533 3.56C31.0599 4.68933 30.9899 5.80933 30.9433 6.92C30.8966 8.03067 30.8593 9.05733 30.8313 10H28.7033C28.7406 9.23467 28.7826 8.418 28.8293 7.55C28.8853 6.682 28.9413 5.81867 28.9973 4.96C29.0626 4.092 29.1326 3.26133 29.2073 2.468C29.2913 1.66533 29.3799 0.942 29.4733 0.298H31.5593ZM48.2957 6.304C48.2957 6.88267 48.2117 7.41467 48.0437 7.9C47.8757 8.376 47.6331 8.78667 47.3157 9.132C46.9984 9.468 46.6157 9.72933 46.1677 9.916C45.7291 10.1027 45.2344 10.196 44.6837 10.196C44.1424 10.196 43.6477 10.1027 43.1997 9.916C42.7611 9.72933 42.3831 9.468 42.0657 9.132C41.7484 8.78667 41.5011 8.376 41.3237 7.9C41.1464 7.41467 41.0577 6.88267 41.0577 6.304C41.0577 5.72533 41.1464 5.198 41.3237 4.722C41.5104 4.246 41.7624 3.84 42.0797 3.504C42.4064 3.168 42.7891 2.90667 43.2277 2.72C43.6757 2.53333 44.1611 2.44 44.6837 2.44C45.2157 2.44 45.7011 2.53333 46.1397 2.72C46.5877 2.90667 46.9704 3.168 47.2877 3.504C47.6051 3.84 47.8524 4.246 48.0297 4.722C48.2071 5.198 48.2957 5.72533 48.2957 6.304ZM46.1677 6.304C46.1677 5.66 46.0371 5.156 45.7757 4.792C45.5237 4.41867 45.1597 4.232 44.6837 4.232C44.2077 4.232 43.8391 4.41867 43.5777 4.792C43.3164 5.156 43.1857 5.66 43.1857 6.304C43.1857 6.948 43.3164 7.46133 43.5777 7.844C43.8391 8.21733 44.2077 8.404 44.6837 8.404C45.1597 8.404 45.5237 8.21733 45.7757 7.844C46.0371 7.46133 46.1677 6.948 46.1677 6.304ZM54.3496 4.484C54.163 4.43733 53.9436 4.39067 53.6916 4.344C53.4396 4.288 53.169 4.26 52.8796 4.26C52.749 4.26 52.5903 4.274 52.4036 4.302C52.2263 4.32067 52.091 4.344 51.9976 4.372V10H49.9116V3.028C50.285 2.89733 50.7236 2.776 51.2276 2.664C51.741 2.54267 52.3103 2.482 52.9356 2.482C53.0476 2.482 53.183 2.49133 53.3416 2.51C53.5003 2.51933 53.659 2.538 53.8176 2.566C53.9763 2.58467 54.135 2.61267 54.2936 2.65C54.4523 2.678 54.5876 2.71533 54.6996 2.762L54.3496 4.484ZM55.3312 6.374C55.3312 5.72067 55.4292 5.15133 55.6252 4.666C55.8305 4.17133 56.0965 3.76067 56.4232 3.434C56.7498 3.10733 57.1232 2.86 57.5432 2.692C57.9725 2.524 58.4112 2.44 58.8592 2.44C59.9045 2.44 60.7305 2.762 61.3372 3.406C61.9438 4.04067 62.2472 4.97867 62.2472 6.22C62.2472 6.34133 62.2425 6.47667 62.2332 6.626C62.2238 6.766 62.2145 6.892 62.2052 7.004H57.4732C57.5198 7.43333 57.7205 7.774 58.0752 8.026C58.4298 8.278 58.9058 8.404 59.5032 8.404C59.8858 8.404 60.2592 8.37133 60.6232 8.306C60.9965 8.23133 61.2998 8.14267 61.5332 8.04L61.8132 9.734C61.7012 9.79 61.5518 9.846 61.3652 9.902C61.1785 9.958 60.9685 10.0047 60.7352 10.042C60.5112 10.0887 60.2685 10.126 60.0072 10.154C59.7458 10.182 59.4845 10.196 59.2232 10.196C58.5605 10.196 57.9818 10.098 57.4872 9.902C57.0018 9.706 56.5958 9.44 56.2692 9.104C55.9518 8.75867 55.7138 8.35267 55.5552 7.886C55.4058 7.41933 55.3312 6.91533 55.3312 6.374ZM60.2312 5.576C60.2218 5.39867 60.1892 5.226 60.1332 5.058C60.0865 4.89 60.0072 4.74067 59.8952 4.61C59.7925 4.47933 59.6572 4.372 59.4892 4.288C59.3305 4.204 59.1298 4.162 58.8872 4.162C58.6538 4.162 58.4532 4.204 58.2852 4.288C58.1172 4.36267 57.9772 4.46533 57.8652 4.596C57.7532 4.72667 57.6645 4.88067 57.5992 5.058C57.5432 5.226 57.5012 5.39867 57.4732 5.576H60.2312Z" fill="#282C4B"/>
</svg>
