<svg width="275" height="82" viewBox="0 0 275 82" fill="none" xmlns="http://www.w3.org/2000/svg">
<path d="M8.684 23.716C9.476 23.716 10.124 23.656 10.628 23.536C11.156 23.392 11.576 23.212 11.888 22.996C12.2 22.756 12.416 22.48 12.536 22.168C12.656 21.856 12.716 21.508 12.716 21.124C12.716 20.308 12.332 19.636 11.564 19.108C10.796 18.556 9.476 17.968 7.604 17.344C6.788 17.056 5.972 16.732 5.156 16.372C4.34 15.988 3.608 15.52 2.96 14.968C2.312 14.392 1.784 13.708 1.376 12.916C0.968 12.1 0.764 11.116 0.764 9.964C0.764 8.812 0.98 7.78 1.412 6.868C1.844 5.932 2.456 5.14 3.248 4.492C4.04 3.844 5 3.352 6.128 3.016C7.256 2.656 8.528 2.476 9.944 2.476C11.624 2.476 13.076 2.656 14.3 3.016C15.524 3.376 16.532 3.772 17.324 4.204L15.704 8.632C15.008 8.272 14.228 7.96 13.364 7.696C12.524 7.408 11.504 7.264 10.304 7.264C8.96 7.264 7.988 7.456 7.388 7.84C6.812 8.2 6.524 8.764 6.524 9.532C6.524 9.988 6.632 10.372 6.848 10.684C7.064 10.996 7.364 11.284 7.748 11.548C8.156 11.788 8.612 12.016 9.116 12.232C9.644 12.424 10.22 12.628 10.844 12.844C12.14 13.324 13.268 13.804 14.228 14.284C15.188 14.74 15.98 15.28 16.604 15.904C17.252 16.528 17.732 17.26 18.044 18.1C18.356 18.94 18.512 19.96 18.512 21.16C18.512 23.488 17.696 25.3 16.064 26.596C14.432 27.868 11.972 28.504 8.684 28.504C7.58 28.504 6.584 28.432 5.696 28.288C4.808 28.168 4.016 28.012 3.32 27.82C2.648 27.628 2.06 27.424 1.556 27.208C1.076 26.992 0.668 26.788 0.332 26.596L1.916 22.132C2.66 22.54 3.572 22.912 4.652 23.248C5.756 23.56 7.1 23.716 8.684 23.716ZM22.2931 18.676C22.2931 16.996 22.5451 15.532 23.0491 14.284C23.5771 13.012 24.2611 11.956 25.1011 11.116C25.9411 10.276 26.9011 9.64 27.9811 9.208C29.0851 8.776 30.2131 8.56 31.3651 8.56C34.0531 8.56 36.1771 9.388 37.7371 11.044C39.2971 12.676 40.0771 15.088 40.0771 18.28C40.0771 18.592 40.0651 18.94 40.0411 19.324C40.0171 19.684 39.9931 20.008 39.9691 20.296H27.8011C27.9211 21.4 28.4371 22.276 29.3491 22.924C30.2611 23.572 31.4851 23.896 33.0211 23.896C34.0051 23.896 34.9651 23.812 35.9011 23.644C36.8611 23.452 37.6411 23.224 38.2411 22.96L38.9611 27.316C38.6731 27.46 38.2891 27.604 37.8091 27.748C37.3291 27.892 36.7891 28.012 36.1891 28.108C35.6131 28.228 34.9891 28.324 34.3171 28.396C33.6451 28.468 32.9731 28.504 32.3011 28.504C30.5971 28.504 29.1091 28.252 27.8371 27.748C26.5891 27.244 25.5451 26.56 24.7051 25.696C23.8891 24.808 23.2771 23.764 22.8691 22.564C22.4851 21.364 22.2931 20.068 22.2931 18.676ZM34.8931 16.624C34.8691 16.168 34.7851 15.724 34.6411 15.292C34.5211 14.86 34.3171 14.476 34.0291 14.14C33.7651 13.804 33.4171 13.528 32.9851 13.312C32.5771 13.096 32.0611 12.988 31.4371 12.988C30.8371 12.988 30.3211 13.096 29.8891 13.312C29.4571 13.504 29.0971 13.768 28.8091 14.104C28.5211 14.44 28.2931 14.836 28.1251 15.292C27.9811 15.724 27.8731 16.168 27.8011 16.624H34.8931ZM52.4966 28.36C50.9366 28.336 49.6646 28.168 48.6806 27.856C47.7206 27.544 46.9526 27.112 46.3766 26.56C45.8246 25.984 45.4406 25.3 45.2246 24.508C45.0326 23.692 44.9366 22.78 44.9366 21.772V0.927999L50.3006 0.0639992V20.692C50.3006 21.172 50.3366 21.604 50.4086 21.988C50.4806 22.372 50.6126 22.696 50.8046 22.96C51.0206 23.224 51.3206 23.44 51.7046 23.608C52.0886 23.776 52.6046 23.884 53.2526 23.932L52.4966 28.36ZM56.1472 18.676C56.1472 16.996 56.3992 15.532 56.9032 14.284C57.4312 13.012 58.1152 11.956 58.9552 11.116C59.7952 10.276 60.7552 9.64 61.8352 9.208C62.9392 8.776 64.0672 8.56 65.2192 8.56C67.9072 8.56 70.0312 9.388 71.5912 11.044C73.1512 12.676 73.9312 15.088 73.9312 18.28C73.9312 18.592 73.9192 18.94 73.8952 19.324C73.8712 19.684 73.8472 20.008 73.8232 20.296H61.6552C61.7752 21.4 62.2912 22.276 63.2032 22.924C64.1152 23.572 65.3392 23.896 66.8752 23.896C67.8592 23.896 68.8192 23.812 69.7552 23.644C70.7152 23.452 71.4952 23.224 72.0952 22.96L72.8152 27.316C72.5272 27.46 72.1432 27.604 71.6632 27.748C71.1832 27.892 70.6432 28.012 70.0432 28.108C69.4672 28.228 68.8432 28.324 68.1712 28.396C67.4992 28.468 66.8272 28.504 66.1552 28.504C64.4512 28.504 62.9632 28.252 61.6912 27.748C60.4432 27.244 59.3992 26.56 58.5592 25.696C57.7432 24.808 57.1312 23.764 56.7232 22.564C56.3392 21.364 56.1472 20.068 56.1472 18.676ZM68.7472 16.624C68.7232 16.168 68.6392 15.724 68.4952 15.292C68.3752 14.86 68.1712 14.476 67.8832 14.14C67.6192 13.804 67.2712 13.528 66.8392 13.312C66.4312 13.096 65.9152 12.988 65.2912 12.988C64.6912 12.988 64.1752 13.096 63.7432 13.312C63.3112 13.504 62.9512 13.768 62.6632 14.104C62.3752 14.44 62.1472 14.836 61.9792 15.292C61.8352 15.724 61.7272 16.168 61.6552 16.624H68.7472ZM77.8906 18.532C77.8906 17.164 78.1066 15.88 78.5386 14.68C78.9946 13.456 79.6426 12.4 80.4826 11.512C81.3226 10.6 82.3426 9.88 83.5426 9.352C84.7426 8.824 86.1106 8.56 87.6466 8.56C88.6546 8.56 89.5786 8.656 90.4186 8.848C91.2586 9.016 92.0746 9.268 92.8666 9.604L91.7506 13.888C91.2466 13.696 90.6946 13.528 90.0946 13.384C89.4946 13.24 88.8226 13.168 88.0786 13.168C86.4946 13.168 85.3066 13.66 84.5146 14.644C83.7466 15.628 83.3626 16.924 83.3626 18.532C83.3626 20.236 83.7226 21.556 84.4426 22.492C85.1866 23.428 86.4706 23.896 88.2946 23.896C88.9426 23.896 89.6386 23.836 90.3826 23.716C91.1266 23.596 91.8106 23.404 92.4346 23.14L93.1906 27.532C92.5666 27.796 91.7866 28.024 90.8506 28.216C89.9146 28.408 88.8826 28.504 87.7546 28.504C86.0266 28.504 84.5386 28.252 83.2906 27.748C82.0426 27.22 81.0106 26.512 80.1946 25.624C79.4026 24.736 78.8146 23.692 78.4306 22.492C78.0706 21.268 77.8906 19.948 77.8906 18.532ZM97.3306 4.348L102.695 3.484V9.064H109.139V13.528H102.695V20.188C102.695 21.316 102.887 22.216 103.271 22.888C103.679 23.56 104.483 23.896 105.683 23.896C106.259 23.896 106.847 23.848 107.447 23.752C108.071 23.632 108.635 23.476 109.139 23.284L109.895 27.46C109.247 27.724 108.527 27.952 107.735 28.144C106.943 28.336 105.971 28.432 104.819 28.432C103.355 28.432 102.143 28.24 101.183 27.856C100.223 27.448 99.4546 26.896 98.8786 26.2C98.3026 25.48 97.8946 24.616 97.6546 23.608C97.4386 22.6 97.3306 21.484 97.3306 20.26V4.348ZM112.624 18.676C112.624 16.996 112.876 15.532 113.38 14.284C113.908 13.012 114.592 11.956 115.432 11.116C116.272 10.276 117.232 9.64 118.312 9.208C119.416 8.776 120.544 8.56 121.696 8.56C124.384 8.56 126.508 9.388 128.068 11.044C129.628 12.676 130.408 15.088 130.408 18.28C130.408 18.592 130.396 18.94 130.372 19.324C130.348 19.684 130.324 20.008 130.3 20.296H118.132C118.252 21.4 118.768 22.276 119.68 22.924C120.592 23.572 121.816 23.896 123.352 23.896C124.336 23.896 125.296 23.812 126.232 23.644C127.192 23.452 127.972 23.224 128.572 22.96L129.292 27.316C129.004 27.46 128.62 27.604 128.14 27.748C127.66 27.892 127.12 28.012 126.52 28.108C125.944 28.228 125.32 28.324 124.648 28.396C123.976 28.468 123.304 28.504 122.632 28.504C120.928 28.504 119.44 28.252 118.168 27.748C116.92 27.244 115.876 26.56 115.036 25.696C114.22 24.808 113.608 23.764 113.2 22.564C112.816 21.364 112.624 20.068 112.624 18.676ZM125.224 16.624C125.2 16.168 125.116 15.724 124.972 15.292C124.852 14.86 124.648 14.476 124.36 14.14C124.096 13.804 123.748 13.528 123.316 13.312C122.908 13.096 122.392 12.988 121.768 12.988C121.168 12.988 120.652 13.096 120.22 13.312C119.788 13.504 119.428 13.768 119.14 14.104C118.852 14.44 118.624 14.836 118.456 15.292C118.312 15.724 118.204 16.168 118.132 16.624H125.224ZM139.839 18.388C139.839 20.044 140.211 21.376 140.955 22.384C141.699 23.392 142.803 23.896 144.267 23.896C144.747 23.896 145.191 23.884 145.599 23.86C146.007 23.812 146.343 23.764 146.607 23.716V13.96C146.271 13.744 145.827 13.564 145.275 13.42C144.747 13.276 144.207 13.204 143.655 13.204C141.111 13.204 139.839 14.932 139.839 18.388ZM151.971 27.388C151.491 27.532 150.939 27.676 150.315 27.82C149.691 27.94 149.031 28.048 148.335 28.144C147.663 28.24 146.967 28.312 146.247 28.36C145.551 28.432 144.879 28.468 144.231 28.468C142.671 28.468 141.279 28.24 140.055 27.784C138.831 27.328 137.799 26.68 136.959 25.84C136.119 24.976 135.471 23.944 135.015 22.744C134.583 21.52 134.367 20.152 134.367 18.64C134.367 17.104 134.559 15.724 134.943 14.5C135.327 13.252 135.879 12.196 136.599 11.332C137.319 10.468 138.195 9.808 139.227 9.352C140.283 8.896 141.483 8.668 142.827 8.668C143.571 8.668 144.231 8.74 144.807 8.884C145.407 9.028 146.007 9.232 146.607 9.496V0.927999L151.971 0.0639992V27.388ZM184.182 5.716C184.47 6.7 184.782 7.816 185.118 9.064C185.478 10.288 185.85 11.56 186.234 12.88C186.642 14.2 187.05 15.52 187.458 16.84C187.866 18.16 188.262 19.384 188.646 20.512C188.958 19.288 189.27 17.956 189.582 16.516C189.918 15.076 190.23 13.588 190.518 12.052C190.806 10.516 191.082 8.992 191.346 7.48C191.634 5.944 191.898 4.468 192.138 3.052H197.97C197.13 7.228 196.158 11.464 195.054 15.76C193.974 20.056 192.798 24.136 191.526 28H186.378C185.538 25.696 184.722 23.284 183.93 20.764C183.138 18.22 182.358 15.676 181.59 13.132C180.822 15.676 180.054 18.22 179.286 20.764C178.518 23.284 177.714 25.696 176.874 28H171.726C170.454 24.136 169.266 20.056 168.162 15.76C167.082 11.464 166.122 7.228 165.282 3.052H171.366C171.606 4.468 171.87 5.944 172.158 7.48C172.446 8.992 172.746 10.516 173.058 12.052C173.37 13.588 173.682 15.076 173.994 16.516C174.33 17.956 174.666 19.288 175.002 20.512C175.434 19.336 175.854 18.088 176.262 16.768C176.67 15.448 177.066 14.128 177.45 12.808C177.834 11.488 178.182 10.216 178.494 8.992C178.83 7.768 179.13 6.676 179.394 5.716H184.182ZM218.455 18.496C218.455 19.984 218.239 21.352 217.807 22.6C217.375 23.824 216.751 24.88 215.935 25.768C215.119 26.632 214.135 27.304 212.983 27.784C211.855 28.264 210.583 28.504 209.167 28.504C207.775 28.504 206.503 28.264 205.351 27.784C204.223 27.304 203.251 26.632 202.435 25.768C201.619 24.88 200.983 23.824 200.527 22.6C200.071 21.352 199.843 19.984 199.843 18.496C199.843 17.008 200.071 15.652 200.527 14.428C201.007 13.204 201.655 12.16 202.471 11.296C203.311 10.432 204.295 9.76 205.423 9.28C206.575 8.8 207.823 8.56 209.167 8.56C210.535 8.56 211.783 8.8 212.911 9.28C214.063 9.76 215.047 10.432 215.863 11.296C216.679 12.16 217.315 13.204 217.771 14.428C218.227 15.652 218.455 17.008 218.455 18.496ZM212.983 18.496C212.983 16.84 212.647 15.544 211.975 14.608C211.327 13.648 210.391 13.168 209.167 13.168C207.943 13.168 206.995 13.648 206.323 14.608C205.651 15.544 205.315 16.84 205.315 18.496C205.315 20.152 205.651 21.472 206.323 22.456C206.995 23.416 207.943 23.896 209.167 23.896C210.391 23.896 211.327 23.416 211.975 22.456C212.647 21.472 212.983 20.152 212.983 18.496ZM234.743 13.816C234.263 13.696 233.699 13.576 233.051 13.456C232.403 13.312 231.707 13.24 230.963 13.24C230.627 13.24 230.219 13.276 229.739 13.348C229.283 13.396 228.935 13.456 228.695 13.528V28H223.331V10.072C224.291 9.736 225.419 9.424 226.715 9.136C228.035 8.824 229.499 8.668 231.107 8.668C231.395 8.668 231.743 8.692 232.151 8.74C232.559 8.764 232.967 8.812 233.375 8.884C233.783 8.932 234.191 9.004 234.599 9.1C235.007 9.172 235.355 9.268 235.643 9.388L234.743 13.816ZM244.602 15.904C245.13 15.328 245.67 14.728 246.222 14.104C246.798 13.48 247.35 12.868 247.878 12.268C248.406 11.644 248.898 11.056 249.354 10.504C249.834 9.952 250.242 9.472 250.578 9.064H256.95C255.678 10.528 254.43 11.932 253.206 13.276C252.006 14.596 250.686 15.964 249.246 17.38C249.966 18.028 250.71 18.808 251.478 19.72C252.246 20.608 252.99 21.532 253.71 22.492C254.43 23.452 255.09 24.412 255.69 25.372C256.29 26.332 256.794 27.208 257.202 28H251.046C250.662 27.376 250.218 26.692 249.714 25.948C249.234 25.18 248.718 24.424 248.166 23.68C247.614 22.912 247.026 22.18 246.402 21.484C245.802 20.788 245.202 20.2 244.602 19.72V28H239.238V0.927999L244.602 0.0639992V15.904ZM266.242 24.148C267.226 24.148 267.922 24.052 268.33 23.86C268.738 23.668 268.942 23.296 268.942 22.744C268.942 22.312 268.678 21.94 268.15 21.628C267.622 21.292 266.818 20.92 265.738 20.512C264.898 20.2 264.13 19.876 263.434 19.54C262.762 19.204 262.186 18.808 261.706 18.352C261.226 17.872 260.854 17.308 260.59 16.66C260.326 16.012 260.194 15.232 260.194 14.32C260.194 12.544 260.854 11.14 262.174 10.108C263.494 9.076 265.306 8.56 267.61 8.56C268.762 8.56 269.866 8.668 270.922 8.884C271.978 9.076 272.818 9.292 273.442 9.532L272.506 13.708C271.882 13.492 271.198 13.3 270.454 13.132C269.734 12.964 268.918 12.88 268.006 12.88C266.326 12.88 265.486 13.348 265.486 14.284C265.486 14.5 265.522 14.692 265.594 14.86C265.666 15.028 265.81 15.196 266.026 15.364C266.242 15.508 266.53 15.676 266.89 15.868C267.274 16.036 267.754 16.228 268.33 16.444C269.506 16.876 270.478 17.308 271.246 17.74C272.014 18.148 272.614 18.604 273.046 19.108C273.502 19.588 273.814 20.128 273.982 20.728C274.174 21.328 274.27 22.024 274.27 22.816C274.27 24.688 273.562 26.104 272.146 27.064C270.754 28.024 268.774 28.504 266.206 28.504C264.526 28.504 263.122 28.36 261.994 28.072C260.89 27.784 260.122 27.544 259.69 27.352L260.59 22.996C261.502 23.356 262.438 23.644 263.398 23.86C264.358 24.052 265.306 24.148 266.242 24.148ZM9.728 53.064C10.736 53.064 11.66 53.172 12.5 53.388C13.34 53.58 13.988 53.772 14.444 53.964L13.4 58.248C12.92 58.032 12.392 57.876 11.816 57.78C11.264 57.66 10.748 57.6 10.268 57.6C9.62 57.6 9.068 57.696 8.612 57.888C8.18 58.056 7.832 58.296 7.568 58.608C7.328 58.92 7.148 59.292 7.028 59.724C6.932 60.156 6.884 60.624 6.884 61.128V62.064H13.508V66.528H6.884V81H1.52V61.056C1.52 58.608 2.204 56.664 3.572 55.224C4.964 53.784 7.016 53.064 9.728 53.064ZM28.8395 66.816C28.3595 66.696 27.7955 66.576 27.1475 66.456C26.4995 66.312 25.8035 66.24 25.0595 66.24C24.7235 66.24 24.3155 66.276 23.8355 66.348C23.3795 66.396 23.0315 66.456 22.7915 66.528V81H17.4275V63.072C18.3875 62.736 19.5155 62.424 20.8115 62.136C22.1315 61.824 23.5955 61.668 25.2035 61.668C25.4915 61.668 25.8395 61.692 26.2475 61.74C26.6555 61.764 27.0635 61.812 27.4715 61.884C27.8795 61.932 28.2875 62.004 28.6955 62.1C29.1035 62.172 29.4515 62.268 29.7395 62.388L28.8395 66.816ZM50.6954 71.496C50.6954 72.984 50.4794 74.352 50.0474 75.6C49.6154 76.824 48.9914 77.88 48.1754 78.768C47.3594 79.632 46.3754 80.304 45.2234 80.784C44.0954 81.264 42.8234 81.504 41.4074 81.504C40.0154 81.504 38.7434 81.264 37.5914 80.784C36.4634 80.304 35.4914 79.632 34.6754 78.768C33.8594 77.88 33.2234 76.824 32.7674 75.6C32.3114 74.352 32.0834 72.984 32.0834 71.496C32.0834 70.008 32.3114 68.652 32.7674 67.428C33.2474 66.204 33.8954 65.16 34.7114 64.296C35.5514 63.432 36.5354 62.76 37.6634 62.28C38.8154 61.8 40.0634 61.56 41.4074 61.56C42.7754 61.56 44.0234 61.8 45.1514 62.28C46.3034 62.76 47.2874 63.432 48.1034 64.296C48.9194 65.16 49.5554 66.204 50.0114 67.428C50.4674 68.652 50.6954 70.008 50.6954 71.496ZM45.2234 71.496C45.2234 69.84 44.8874 68.544 44.2154 67.608C43.5674 66.648 42.6314 66.168 41.4074 66.168C40.1834 66.168 39.2354 66.648 38.5634 67.608C37.8914 68.544 37.5554 69.84 37.5554 71.496C37.5554 73.152 37.8914 74.472 38.5634 75.456C39.2354 76.416 40.1834 76.896 41.4074 76.896C42.6314 76.896 43.5674 76.416 44.2154 75.456C44.8874 74.472 45.2234 73.152 45.2234 71.496ZM65.9746 70.956C65.9746 69.228 65.7466 68.004 65.2906 67.284C64.8586 66.564 64.1026 66.204 63.0226 66.204C62.6866 66.204 62.3386 66.228 61.9786 66.276C61.6186 66.3 61.2706 66.336 60.9346 66.384V81H55.5706V62.712C56.0266 62.592 56.5546 62.472 57.1546 62.352C57.7786 62.208 58.4266 62.088 59.0986 61.992C59.7946 61.872 60.5026 61.788 61.2226 61.74C61.9426 61.668 62.6506 61.632 63.3466 61.632C64.7146 61.632 65.8186 61.812 66.6586 62.172C67.5226 62.508 68.2306 62.916 68.7826 63.396C69.5506 62.844 70.4266 62.412 71.4106 62.1C72.4186 61.788 73.3426 61.632 74.1826 61.632C75.6946 61.632 76.9306 61.848 77.8906 62.28C78.8746 62.688 79.6546 63.276 80.2306 64.044C80.8066 64.812 81.2026 65.724 81.4186 66.78C81.6346 67.836 81.7426 69.012 81.7426 70.308V81H76.3786V70.956C76.3786 69.228 76.1506 68.004 75.6946 67.284C75.2626 66.564 74.5066 66.204 73.4266 66.204C73.1386 66.204 72.7306 66.276 72.2026 66.42C71.6986 66.564 71.2786 66.744 70.9426 66.96C71.1106 67.512 71.2186 68.1 71.2666 68.724C71.3146 69.324 71.3386 69.972 71.3386 70.668V81H65.9746V70.956ZM106.818 81.504C105.066 81.504 103.554 81.264 102.282 80.784C101.01 80.28 99.954 79.596 99.114 78.732C98.298 77.844 97.686 76.8 97.278 75.6C96.894 74.376 96.702 73.032 96.702 71.568V56.052H102.318V71.1C102.318 72.108 102.426 72.972 102.642 73.692C102.882 74.388 103.194 74.964 103.578 75.42C103.986 75.852 104.466 76.164 105.018 76.356C105.594 76.548 106.218 76.644 106.89 76.644C108.258 76.644 109.362 76.224 110.202 75.384C111.066 74.544 111.498 73.116 111.498 71.1V56.052H117.114V71.568C117.114 73.032 116.91 74.376 116.502 75.6C116.094 76.824 115.47 77.88 114.63 78.768C113.79 79.632 112.722 80.304 111.426 80.784C110.13 81.264 108.594 81.504 106.818 81.504ZM128.311 77.148C129.295 77.148 129.991 77.052 130.399 76.86C130.807 76.668 131.011 76.296 131.011 75.744C131.011 75.312 130.747 74.94 130.219 74.628C129.691 74.292 128.887 73.92 127.807 73.512C126.967 73.2 126.199 72.876 125.503 72.54C124.831 72.204 124.255 71.808 123.775 71.352C123.295 70.872 122.923 70.308 122.659 69.66C122.395 69.012 122.263 68.232 122.263 67.32C122.263 65.544 122.923 64.14 124.243 63.108C125.563 62.076 127.375 61.56 129.679 61.56C130.831 61.56 131.935 61.668 132.991 61.884C134.047 62.076 134.887 62.292 135.511 62.532L134.575 66.708C133.951 66.492 133.267 66.3 132.523 66.132C131.803 65.964 130.987 65.88 130.075 65.88C128.395 65.88 127.555 66.348 127.555 67.284C127.555 67.5 127.591 67.692 127.663 67.86C127.735 68.028 127.879 68.196 128.095 68.364C128.311 68.508 128.599 68.676 128.959 68.868C129.343 69.036 129.823 69.228 130.399 69.444C131.575 69.876 132.547 70.308 133.315 70.74C134.083 71.148 134.683 71.604 135.115 72.108C135.571 72.588 135.883 73.128 136.051 73.728C136.243 74.328 136.339 75.024 136.339 75.816C136.339 77.688 135.631 79.104 134.215 80.064C132.823 81.024 130.843 81.504 128.275 81.504C126.595 81.504 125.191 81.36 124.063 81.072C122.959 80.784 122.191 80.544 121.759 80.352L122.659 75.996C123.571 76.356 124.507 76.644 125.467 76.86C126.427 77.052 127.375 77.148 128.311 77.148Z" fill="#282C4B"/>
</svg>
