<svg width="170" height="20" viewBox="0 0 170 20" fill="none" xmlns="http://www.w3.org/2000/svg">
<path d="M5.02 14.12C5.92667 14.12 6.58667 13.9667 7 13.66C7.41333 13.3533 7.62 12.92 7.62 12.36C7.62 12.0267 7.54667 11.74 7.4 11.5C7.26667 11.26 7.06667 11.0467 6.8 10.86C6.54667 10.66 6.23333 10.48 5.86 10.32C5.48667 10.1467 5.06 9.98 4.58 9.82C4.1 9.64667 3.63333 9.46 3.18 9.26C2.74 9.04667 2.34667 8.78667 2 8.48C1.66667 8.17333 1.39333 7.80667 1.18 7.38C0.98 6.95333 0.88 6.44 0.88 5.84C0.88 4.58667 1.31333 3.60667 2.18 2.9C3.04667 2.18 4.22667 1.82 5.72 1.82C6.58667 1.82 7.35333 1.92 8.02 2.12C8.7 2.30667 9.23333 2.51333 9.62 2.74L8.84 4.78C8.38667 4.52667 7.88667 4.33333 7.34 4.2C6.80667 4.06667 6.25333 4 5.68 4C5 4 4.46667 4.14 4.08 4.42C3.70667 4.7 3.52 5.09333 3.52 5.6C3.52 5.90667 3.58 6.17333 3.7 6.4C3.83333 6.61333 4.01333 6.80667 4.24 6.98C4.48 7.15333 4.75333 7.31333 5.06 7.46C5.38 7.60667 5.72667 7.74667 6.1 7.88C6.75333 8.12 7.33333 8.36667 7.84 8.62C8.36 8.86 8.79333 9.15333 9.14 9.5C9.5 9.83333 9.77333 10.2333 9.96 10.7C10.1467 11.1533 10.24 11.7067 10.24 12.36C10.24 13.6133 9.79333 14.5867 8.9 15.28C8.02 15.96 6.72667 16.3 5.02 16.3C4.44667 16.3 3.92 16.26 3.44 16.18C2.97333 16.1133 2.55333 16.0267 2.18 15.92C1.82 15.8133 1.50667 15.7067 1.24 15.6C0.973333 15.48 0.76 15.3733 0.6 15.28L1.34 13.22C1.7 13.42 2.18667 13.62 2.8 13.82C3.41333 14.02 4.15333 14.12 5.02 14.12ZM12.4608 16V2.14H21.3608V4.28H14.9808V7.7H20.6608V9.8H14.9808V13.86H21.8408V16H12.4608ZM25.7317 9.06C25.7317 9.82 25.8251 10.5133 26.0117 11.14C26.1984 11.7533 26.4651 12.28 26.8117 12.72C27.1717 13.1467 27.6051 13.48 28.1117 13.72C28.6184 13.96 29.1917 14.08 29.8317 14.08C30.4584 14.08 31.0251 13.96 31.5317 13.72C32.0384 13.48 32.4651 13.1467 32.8117 12.72C33.1717 12.28 33.4451 11.7533 33.6317 11.14C33.8184 10.5133 33.9117 9.82 33.9117 9.06C33.9117 8.3 33.8184 7.61333 33.6317 7C33.4451 6.37333 33.1717 5.84667 32.8117 5.42C32.4651 4.98 32.0384 4.64 31.5317 4.4C31.0251 4.16 30.4584 4.04 29.8317 4.04C29.1917 4.04 28.6184 4.16 28.1117 4.4C27.6051 4.64 27.1717 4.98 26.8117 5.42C26.4651 5.86 26.1984 6.38667 26.0117 7C25.8251 7.61333 25.7317 8.3 25.7317 9.06ZM36.5517 9.06C36.5517 10.2467 36.3717 11.2933 36.0117 12.2C35.6651 13.1067 35.1851 13.8667 34.5717 14.48C33.9717 15.08 33.2651 15.5333 32.4517 15.84C31.6384 16.1467 30.7717 16.3 29.8517 16.3C28.9317 16.3 28.0584 16.1467 27.2317 15.84C26.4184 15.5333 25.7051 15.08 25.0917 14.48C24.4917 13.8667 24.0117 13.1067 23.6517 12.2C23.2917 11.2933 23.1117 10.2467 23.1117 9.06C23.1117 7.87333 23.2917 6.83333 23.6517 5.94C24.0117 5.03333 24.4984 4.27333 25.1117 3.66C25.7384 3.04667 26.4584 2.58667 27.2717 2.28C28.0851 1.97333 28.9451 1.82 29.8517 1.82C30.7584 1.82 31.6184 1.97333 32.4317 2.28C33.2451 2.58667 33.9517 3.04667 34.5517 3.66C35.1651 4.27333 35.6517 5.03333 36.0117 5.94C36.3717 6.83333 36.5517 7.87333 36.5517 9.06ZM47.0042 2.14C47.2976 2.64667 47.6242 3.26667 47.9842 4C48.3442 4.73333 48.7109 5.50667 49.0842 6.32C49.4576 7.12 49.8242 7.94 50.1842 8.78C50.5576 9.60667 50.8976 10.3733 51.2042 11.08C51.5109 10.3733 51.8442 9.60667 52.2042 8.78C52.5642 7.94 52.9309 7.12 53.3042 6.32C53.6776 5.50667 54.0442 4.73333 54.4042 4C54.7642 3.26667 55.0909 2.64667 55.3842 2.14H57.6642C57.7842 3.15333 57.8976 4.23333 58.0042 5.38C58.1109 6.51333 58.2042 7.68 58.2842 8.88C58.3776 10.0667 58.4576 11.2667 58.5242 12.48C58.6042 13.68 58.6709 14.8533 58.7242 16H56.2442C56.1909 14.3867 56.1242 12.7267 56.0442 11.02C55.9776 9.31333 55.8709 7.66 55.7242 6.06C55.5776 6.36667 55.4042 6.73333 55.2042 7.16C55.0042 7.58667 54.7909 8.05333 54.5642 8.56C54.3376 9.05333 54.1042 9.56667 53.8642 10.1C53.6376 10.6333 53.4109 11.1533 53.1842 11.66C52.9709 12.1533 52.7709 12.62 52.5842 13.06C52.3976 13.4867 52.2376 13.8533 52.1042 14.16H50.2242C50.0909 13.8533 49.9309 13.48 49.7442 13.04C49.5576 12.6 49.3509 12.1333 49.1242 11.64C48.9109 11.1333 48.6842 10.6133 48.4442 10.08C48.2176 9.54667 47.9909 9.03333 47.7642 8.54C47.5376 8.04667 47.3242 7.58667 47.1242 7.16C46.9242 6.72 46.7509 6.35333 46.6042 6.06C46.4576 7.66 46.3442 9.31333 46.2642 11.02C46.1976 12.7267 46.1376 14.3867 46.0842 16H43.6042C43.6576 14.8533 43.7176 13.6667 43.7842 12.44C43.8642 11.2133 43.9442 10 44.0242 8.8C44.1176 7.58667 44.2176 6.41333 44.3242 5.28C44.4309 4.14667 44.5442 3.1 44.6642 2.14H47.0042ZM65.22 14.3C65.9667 14.3 66.5333 14.26 66.92 14.18V11.5C66.7867 11.46 66.5933 11.42 66.34 11.38C66.0867 11.34 65.8067 11.32 65.5 11.32C65.2333 11.32 64.96 11.34 64.68 11.38C64.4133 11.42 64.1667 11.4933 63.94 11.6C63.7267 11.7067 63.5533 11.86 63.42 12.06C63.2867 12.2467 63.22 12.4867 63.22 12.78C63.22 13.3533 63.4 13.7533 63.76 13.98C64.12 14.1933 64.6067 14.3 65.22 14.3ZM65.02 5.28C65.82 5.28 66.4933 5.38 67.04 5.58C67.5867 5.78 68.02 6.06 68.34 6.42C68.6733 6.78 68.9067 7.22 69.04 7.74C69.1867 8.24667 69.26 8.80667 69.26 9.42V15.76C68.8867 15.84 68.32 15.9333 67.56 16.04C66.8133 16.16 65.9667 16.22 65.02 16.22C64.3933 16.22 63.82 16.16 63.3 16.04C62.78 15.92 62.3333 15.7267 61.96 15.46C61.6 15.1933 61.3133 14.8467 61.1 14.42C60.9 13.9933 60.8 13.4667 60.8 12.84C60.8 12.24 60.9133 11.7333 61.14 11.32C61.38 10.9067 61.7 10.5733 62.1 10.32C62.5 10.0533 62.96 9.86667 63.48 9.76C64.0133 9.64 64.5667 9.58 65.14 9.58C65.4067 9.58 65.6867 9.6 65.98 9.64C66.2733 9.66667 66.5867 9.72 66.92 9.8V9.4C66.92 9.12 66.8867 8.85333 66.82 8.6C66.7533 8.34667 66.6333 8.12667 66.46 7.94C66.3 7.74 66.08 7.58667 65.8 7.48C65.5333 7.37333 65.1933 7.32 64.78 7.32C64.22 7.32 63.7067 7.36 63.24 7.44C62.7733 7.52 62.3933 7.61333 62.1 7.72L61.8 5.76C62.1067 5.65333 62.5533 5.54667 63.14 5.44C63.7267 5.33333 64.3533 5.28 65.02 5.28ZM78.1836 7.72C77.9836 7.65333 77.7036 7.58667 77.3436 7.52C76.9969 7.44 76.5903 7.4 76.1236 7.4C75.8569 7.4 75.5703 7.42667 75.2636 7.48C74.9703 7.53333 74.7636 7.58 74.6436 7.62V16H72.2236V6.04C72.6903 5.86667 73.2703 5.70667 73.9636 5.56C74.6703 5.4 75.4503 5.32 76.3036 5.32C76.4636 5.32 76.6503 5.33333 76.8636 5.36C77.0769 5.37333 77.2903 5.4 77.5036 5.44C77.7169 5.46667 77.9236 5.50667 78.1236 5.56C78.3236 5.6 78.4836 5.64 78.6036 5.68L78.1836 7.72ZM82.71 9.62C83.0167 9.3 83.3433 8.96 83.69 8.6C84.0367 8.22667 84.3767 7.86 84.71 7.5C85.0433 7.12667 85.3567 6.77333 85.65 6.44C85.9567 6.09333 86.2167 5.79333 86.43 5.54H89.29C88.6233 6.28667 87.9167 7.06 87.17 7.86C86.4367 8.66 85.6967 9.44 84.95 10.2C85.35 10.5333 85.77 10.94 86.21 11.42C86.65 11.8867 87.0767 12.3867 87.49 12.92C87.9033 13.4533 88.29 13.9867 88.65 14.52C89.01 15.0533 89.31 15.5467 89.55 16H86.75C86.51 15.5867 86.23 15.1533 85.91 14.7C85.6033 14.2467 85.27 13.8067 84.91 13.38C84.55 12.9533 84.1833 12.5533 83.81 12.18C83.4367 11.7933 83.07 11.4667 82.71 11.2V16H80.29V0.879999L82.71 0.48V9.62ZM90.2569 10.82C90.2569 9.9 90.3902 9.09333 90.6569 8.4C90.9369 7.70667 91.3035 7.13333 91.7569 6.68C92.2102 6.21333 92.7302 5.86667 93.3169 5.64C93.9035 5.4 94.5035 5.28 95.1169 5.28C96.5569 5.28 97.6769 5.72667 98.4769 6.62C99.2902 7.51333 99.6969 8.84667 99.6969 10.62C99.6969 10.7533 99.6902 10.9067 99.6769 11.08C99.6769 11.24 99.6702 11.3867 99.6569 11.52H92.7569C92.8235 12.36 93.1169 13.0133 93.6369 13.48C94.1702 13.9333 94.9369 14.16 95.9369 14.16C96.5235 14.16 97.0569 14.1067 97.5369 14C98.0302 13.8933 98.4169 13.78 98.6969 13.66L99.0169 15.64C98.8835 15.7067 98.6969 15.78 98.4569 15.86C98.2302 15.9267 97.9635 15.9867 97.6569 16.04C97.3635 16.1067 97.0435 16.16 96.6969 16.2C96.3502 16.24 95.9969 16.26 95.6369 16.26C94.7169 16.26 93.9169 16.1267 93.2369 15.86C92.5569 15.58 91.9969 15.2 91.5569 14.72C91.1169 14.2267 90.7902 13.6533 90.5769 13C90.3635 12.3333 90.2569 11.6067 90.2569 10.82ZM97.2769 9.74C97.2769 9.40667 97.2302 9.09333 97.1369 8.8C97.0435 8.49333 96.9035 8.23333 96.7169 8.02C96.5435 7.79333 96.3235 7.62 96.0569 7.5C95.8035 7.36667 95.4969 7.3 95.1369 7.3C94.7635 7.3 94.4369 7.37333 94.1569 7.52C93.8769 7.65333 93.6369 7.83333 93.4369 8.06C93.2502 8.28667 93.1035 8.54667 92.9969 8.84C92.8902 9.13333 92.8169 9.43333 92.7769 9.74H97.2769ZM102.143 2.78L104.563 2.38V5.54H108.283V7.56H104.563V11.82C104.563 12.66 104.696 13.26 104.963 13.62C105.229 13.98 105.683 14.16 106.323 14.16C106.763 14.16 107.149 14.1133 107.483 14.02C107.829 13.9267 108.103 13.84 108.303 13.76L108.703 15.68C108.423 15.8 108.056 15.92 107.603 16.04C107.149 16.1733 106.616 16.24 106.003 16.24C105.256 16.24 104.629 16.14 104.123 15.94C103.629 15.74 103.236 15.4533 102.943 15.08C102.649 14.6933 102.443 14.2333 102.323 13.7C102.203 13.1533 102.143 12.5333 102.143 11.84V2.78ZM113.062 16H110.642V5.54H113.062V16ZM113.322 2.48C113.322 2.93333 113.175 3.29333 112.882 3.56C112.589 3.82667 112.242 3.96 111.842 3.96C111.429 3.96 111.075 3.82667 110.782 3.56C110.489 3.29333 110.342 2.93333 110.342 2.48C110.342 2.01333 110.489 1.64667 110.782 1.38C111.075 1.11333 111.429 0.979999 111.842 0.979999C112.242 0.979999 112.589 1.11333 112.882 1.38C113.175 1.64667 113.322 2.01333 113.322 2.48ZM116.149 5.88C116.616 5.74667 117.223 5.62 117.969 5.5C118.716 5.38 119.543 5.32 120.449 5.32C121.303 5.32 122.016 5.44 122.589 5.68C123.163 5.90667 123.616 6.23333 123.949 6.66C124.296 7.07333 124.536 7.58 124.669 8.18C124.816 8.76667 124.889 9.41333 124.889 10.12V16H122.469V10.5C122.469 9.94 122.429 9.46667 122.349 9.08C122.283 8.68 122.163 8.36 121.989 8.12C121.829 7.86667 121.603 7.68667 121.309 7.58C121.029 7.46 120.683 7.4 120.269 7.4C119.963 7.4 119.643 7.42 119.309 7.46C118.976 7.5 118.729 7.53333 118.569 7.56V16H116.149V5.88ZM129.749 10.5C129.749 11.5267 129.969 12.28 130.409 12.76C130.862 13.2267 131.442 13.46 132.149 13.46C132.535 13.46 132.895 13.4067 133.229 13.3C133.575 13.1933 133.855 13.0667 134.069 12.92V7.5C133.895 7.46 133.682 7.42667 133.429 7.4C133.175 7.36 132.855 7.34 132.469 7.34C131.589 7.34 130.915 7.63333 130.449 8.22C129.982 8.79333 129.749 9.55333 129.749 10.5ZM136.489 14.94C136.489 16.6067 136.062 17.8267 135.209 18.6C134.369 19.3733 133.075 19.76 131.329 19.76C130.689 19.76 130.062 19.7067 129.449 19.6C128.849 19.4933 128.302 19.3533 127.809 19.18L128.249 17.12C128.662 17.2933 129.129 17.4333 129.649 17.54C130.182 17.6467 130.755 17.7 131.369 17.7C132.342 17.7 133.035 17.5 133.449 17.1C133.862 16.7 134.069 16.1067 134.069 15.32V14.92C133.829 15.04 133.509 15.16 133.109 15.28C132.722 15.4 132.275 15.46 131.769 15.46C131.102 15.46 130.489 15.3533 129.929 15.14C129.382 14.9267 128.909 14.6133 128.509 14.2C128.122 13.7867 127.815 13.2733 127.589 12.66C127.375 12.0333 127.269 11.3133 127.269 10.5C127.269 9.74 127.382 9.04 127.609 8.4C127.849 7.76 128.189 7.21333 128.629 6.76C129.082 6.30667 129.629 5.95333 130.269 5.7C130.909 5.44667 131.635 5.32 132.449 5.32C133.235 5.32 133.982 5.38 134.689 5.5C135.395 5.62 135.995 5.74667 136.489 5.88V14.94ZM149.435 5.12C149.115 5.50667 148.782 5.92 148.435 6.36C148.102 6.8 147.775 7.26 147.455 7.74C147.135 8.22 146.829 8.71333 146.535 9.22C146.242 9.71333 145.975 10.2067 145.735 10.7H149.435V5.12ZM151.795 2.14V10.7H153.355V12.68H151.795V16H149.435V12.68H143.355V10.96C143.622 10.3733 143.975 9.7 144.415 8.94C144.869 8.18 145.369 7.4 145.915 6.6C146.462 5.8 147.042 5.01333 147.655 4.24C148.269 3.46667 148.882 2.76667 149.495 2.14H151.795ZM158.323 14.68C158.323 15.1467 158.163 15.5267 157.843 15.82C157.536 16.1133 157.163 16.26 156.723 16.26C156.269 16.26 155.889 16.1133 155.583 15.82C155.276 15.5267 155.123 15.1467 155.123 14.68C155.123 14.2133 155.276 13.8333 155.583 13.54C155.889 13.2333 156.269 13.08 156.723 13.08C157.163 13.08 157.536 13.2333 157.843 13.54C158.163 13.8333 158.323 14.2133 158.323 14.68ZM169.875 9.06C169.875 11.3933 169.448 13.1867 168.595 14.44C167.742 15.68 166.562 16.3 165.055 16.3C163.548 16.3 162.368 15.68 161.515 14.44C160.662 13.1867 160.235 11.3933 160.235 9.06C160.235 7.9 160.342 6.87333 160.555 5.98C160.782 5.07333 161.102 4.31333 161.515 3.7C161.942 3.08667 162.448 2.62 163.035 2.3C163.635 1.98 164.308 1.82 165.055 1.82C166.562 1.82 167.742 2.44667 168.595 3.7C169.448 4.94 169.875 6.72667 169.875 9.06ZM167.375 9.06C167.375 8.34 167.335 7.66667 167.255 7.04C167.175 6.41333 167.042 5.87333 166.855 5.42C166.682 4.95333 166.448 4.58667 166.155 4.32C165.862 4.05333 165.495 3.92 165.055 3.92C164.615 3.92 164.242 4.05333 163.935 4.32C163.642 4.58667 163.402 4.95333 163.215 5.42C163.042 5.87333 162.915 6.41333 162.835 7.04C162.768 7.66667 162.735 8.34 162.735 9.06C162.735 9.78 162.768 10.4533 162.835 11.08C162.915 11.7067 163.042 12.2533 163.215 12.72C163.402 13.1733 163.642 13.5333 163.935 13.8C164.242 14.0667 164.615 14.2 165.055 14.2C165.495 14.2 165.862 14.0667 166.155 13.8C166.448 13.5333 166.682 13.1733 166.855 12.72C167.042 12.2533 167.175 11.7067 167.255 11.08C167.335 10.4533 167.375 9.78 167.375 9.06Z" fill="#14183E"/>
</svg>
