<svg width="109" height="137" viewBox="0 0 109 137" fill="none" xmlns="http://www.w3.org/2000/svg">
<path d="M4.66358 111.008C6.37387 115.121 8.72529 118.934 11.6296 122.304C14.8475 125.853 18.6594 128.808 22.8924 131.037C31.9753 135.575 42.104 137.583 52.2229 136.854C57.3647 136.561 62.4543 135.661 67.3867 134.173C72.3736 132.666 77.1378 130.496 81.5533 127.723C90.263 122.294 97.4902 114.773 102.583 105.839C107.496 97.0919 110.106 86.9158 108.552 76.9459C107.78 71.932 105.939 67.1447 103.155 62.9114C100.364 58.4325 96.3952 54.8144 91.6869 52.4555C86.8353 50.1503 81.4582 49.1893 76.1125 49.6722C71.0701 50.1113 66.1244 51.3231 61.4473 53.2655C56.9855 55.0893 52.7445 57.4163 48.8059 60.2017C46.8782 61.5622 45.0812 63.1004 43.4384 64.7964C41.8545 66.49 40.5053 68.1688 39.0388 69.9213C36.3384 73.3144 34.1267 77.0722 32.4688 81.084C30.8421 84.9433 30.2164 89.1538 30.6503 93.3218C31.1051 97.3497 32.6807 101.167 35.1965 104.337C37.7099 107.458 41.0965 109.751 44.9196 110.92C48.5116 111.999 52.2926 112.29 56.0065 111.774C59.3632 111.343 62.6303 110.379 65.6855 108.917C68.3683 107.588 70.8395 105.866 73.0181 103.807C74.8977 102.011 76.5302 99.9701 77.8723 97.7398C79.0041 95.8442 79.9005 93.8164 80.5414 91.7019C81.064 89.9423 81.3887 88.1294 81.5093 86.2972C81.6911 83.7828 81.433 81.2559 80.7467 78.8309C80.5462 77.9655 80.2043 77.1394 79.7348 76.3863C79.8002 77.2499 79.9575 78.1039 80.2041 78.9339C80.6376 81.3344 80.7117 83.7864 80.424 86.2089C80.2142 87.9588 79.821 89.6815 79.2508 91.3485C78.54 93.3315 77.6103 95.2283 76.4791 97.0035C75.1319 99.0589 73.5304 100.934 71.7129 102.585C67.2374 106.58 61.6145 109.044 55.6545 109.624C52.31 110.008 48.9224 109.682 45.7115 108.667C42.4202 107.573 39.5262 105.523 37.3963 102.776C35.2462 99.9423 33.9303 96.5597 33.598 93.0126C33.2914 89.277 33.9269 85.524 35.4459 82.1002C37.0658 78.3826 39.1985 74.9124 41.7812 71.7916C43.0864 70.1569 44.5236 68.478 45.9608 66.9612C47.4811 65.4532 49.1353 64.0878 50.903 62.8819C54.628 60.3119 58.6331 58.1774 62.8404 56.52C67.1456 54.785 71.6915 53.727 76.3178 53.3833C80.8968 52.9988 85.4949 53.8531 89.6338 55.8574C93.6489 57.9389 97.0136 61.0934 99.3568 64.9731C101.802 68.7649 103.393 73.0469 104.02 77.5202C105.326 86.4298 102.906 95.737 98.2863 103.792C93.5302 111.989 86.8363 118.883 78.7962 123.865C70.6517 128.827 61.389 131.639 51.8709 132.038C42.7582 132.669 33.6434 130.839 25.4735 126.737C21.8122 124.798 18.5167 122.231 15.7358 119.152C13.1879 116.167 11.1241 112.798 9.62043 109.168C8.17228 105.68 7.10048 102.046 6.4234 98.3289C5.75681 94.8045 5.42293 91.2248 5.42618 87.6374C5.43277 81.132 6.4724 74.6693 8.50588 68.4928C10.3415 63.0761 12.8809 57.9265 16.0584 53.1771C21.1679 45.6568 27.6342 39.1634 35.1232 34.0325C40.371 30.4518 45.9796 27.4359 51.8562 25.0346C55.5271 23.5458 59.2774 22.2626 63.0898 21.1909C65.7442 20.4693 67.6066 19.9981 68.9558 19.6446C67.7984 21.7994 66.8553 24.0635 66.1401 26.4041C64.8349 30.8221 64.9376 33.7674 65.4949 33.8411C66.0521 33.9147 67.108 31.3376 69.0732 27.3761C70.2163 25.0705 71.4995 22.8377 72.9154 20.6902C73.7074 19.4679 74.602 18.2309 75.5699 16.9791C76.2167 16.2437 76.773 15.4328 77.227 14.5639C77.3934 14.2172 77.5165 13.8512 77.5937 13.4742C77.6593 13.0694 77.6593 12.6566 77.5937 12.2519C77.4925 11.4013 77.0795 10.619 76.4351 10.0576C76.1016 9.76558 75.7319 9.51808 75.3352 9.32127L74.6313 8.99728L73.4287 8.43767L71.053 7.34791L66.5361 5.34507C63.603 4.09331 61.0073 3.01829 58.7635 2.14942C54.276 0.455864 51.4309 -0.354123 51.0936 0.146582C50.7563 0.647287 53.2201 2.3556 57.341 4.72658C59.4088 5.90471 61.8872 7.24483 64.6736 8.68804L69.0732 10.897L73.2528 12.8851C73.2528 12.8851 73.2528 12.8851 73.2528 12.9882C72.9235 13.5991 72.5355 14.1763 72.0942 14.7112C71.5809 15.4181 71.1116 16.1102 70.6277 16.8171C67.7938 16.798 64.9677 17.1193 62.2099 17.7743C58.1294 18.6269 54.1154 19.7737 50.199 21.2057C43.8703 23.5463 37.8282 26.6047 32.1902 30.3214C24.0382 35.6963 16.997 42.602 11.4536 50.6589C8.04185 55.7264 5.31938 61.2288 3.35838 67.0201C1.13755 73.6653 0.0034307 80.6279 5.71844e-05 87.6374C-0.00445068 91.5076 0.363895 95.3693 1.09995 99.1683C1.83472 103.213 3.01011 107.163 4.60493 110.95" fill="white"/>
</svg>
