<svg width="111" height="23" viewBox="0 0 111 23" fill="none" xmlns="http://www.w3.org/2000/svg">
<path fill-rule="evenodd" clip-rule="evenodd" d="M97.6327 1.70814C99.0618 0.786591 100.908 0.700487 102.519 1.13966C102.533 2.08832 102.521 3.03757 102.525 3.98653C101.76 3.65283 100.859 3.43503 100.054 3.76248C99.4154 4.01365 99.0353 4.66317 98.9361 5.31239C98.8161 6.13621 98.894 6.97106 98.8736 7.79965C100.509 7.80322 102.143 7.80054 103.778 7.80143C103.791 6.74968 103.765 5.69704 103.792 4.64529C104.904 4.33215 106.003 3.98028 107.109 3.65015C107.119 5.0356 107.097 6.42224 107.122 7.80888C108.227 7.79309 109.333 7.80531 110.439 7.80143V10.4993C109.329 10.4537 108.218 10.4868 107.109 10.4832C107.113 12.0343 107.109 13.5852 107.11 15.1366C107.128 15.9955 107.064 16.859 107.165 17.7153C107.227 18.22 107.412 18.7793 107.889 19.0403C108.69 19.4839 109.704 19.2902 110.439 18.8031V21.5272C109.481 21.9396 108.41 22.0653 107.374 21.9923C106.391 21.9202 105.372 21.5662 104.731 20.791C103.99 19.9156 103.799 18.7301 103.784 17.6211C103.776 15.2411 103.785 12.8609 103.78 10.4797C102.144 10.4785 100.509 10.4779 98.8736 10.4806C98.8718 14.2159 98.8727 17.9516 98.8727 21.6872H95.5201C95.5201 17.9522 95.5153 14.2189 95.5219 10.4844C94.7443 10.4695 93.9662 10.488 93.1889 10.4722C93.1916 9.58583 93.1953 8.69825 93.1868 7.81067C93.9608 7.79309 94.7353 7.80054 95.5111 7.8062C95.5676 6.62693 95.3863 5.41399 95.742 4.26541C96.0424 3.22856 96.7111 2.29301 97.6327 1.70814ZM25.8527 1.90181C26.5286 1.80021 27.2601 2.02902 27.7082 2.55311C28.2334 3.12696 28.3303 4.04016 27.9409 4.71114C27.5106 5.46733 26.5481 5.8189 25.7092 5.63745C24.8388 5.48252 24.1135 4.68045 24.1523 3.78661C24.1274 2.84569 24.9215 2.00698 25.8527 1.90151V1.90181ZM0.159001 2.31327H5.03482C6.55235 6.13204 8.081 9.94635 9.60064 13.7648C9.98881 14.72 10.352 15.6857 10.7589 16.6331C12.7112 11.8618 14.6914 7.10245 16.6287 2.32429C18.1922 2.29927 19.7561 2.31863 21.3202 2.31505C21.3166 8.77214 21.3184 15.2289 21.3196 21.686C20.1912 21.6833 19.0636 21.6955 17.9361 21.6795C17.9481 16.9147 17.9352 12.1497 17.9418 7.38371C17.9436 7.16949 17.9361 6.95526 17.921 6.74164C17.8549 6.84115 17.7966 6.94454 17.7454 7.0518C15.8076 11.9289 13.833 16.7926 11.9068 21.6747C11.1043 21.7036 10.3009 21.6768 9.4972 21.6893C7.49859 16.8122 5.52463 11.9235 3.53593 7.04227C3.48361 6.94067 3.42799 6.84205 3.36725 6.7473C3.32636 8.83471 3.36094 10.9242 3.34981 13.0122C3.35041 15.9035 3.34801 18.7947 3.35041 21.686C2.28661 21.6887 1.2225 21.686 0.159001 21.6872C0.158099 15.2289 0.157196 8.77095 0.159001 2.31327ZM35.0793 7.78862C36.697 7.33187 38.4421 7.35034 40.0592 7.80322C40.3926 7.89558 40.7153 8.0237 41.0156 8.1983C40.9967 9.2563 41.0156 10.3155 41.0051 11.3747C39.9239 10.5562 38.5528 10.0378 37.1787 10.2094C36.0872 10.3072 35.0465 10.8682 34.3941 11.7418C33.5549 12.8248 33.3612 14.263 33.5059 15.588C33.6138 16.6248 34.0465 17.6611 34.8604 18.3484C35.7056 19.0927 36.8906 19.3564 37.9968 19.2735C39.0901 19.149 40.1217 18.6902 41.0051 18.0499C41.0144 19.0528 41.0003 20.0557 41.0126 21.0585C39.6418 21.8669 37.9989 22.0751 36.43 21.9992C34.8249 21.9148 33.2244 21.3124 32.0626 20.1942C30.8 18.9884 30.1148 17.2687 30.0336 15.5465C29.9518 13.7556 30.3196 11.8875 31.3596 10.3921C32.231 9.11597 33.5943 8.2129 35.0793 7.78862ZM71.7009 7.57738C73.2512 7.30684 74.8739 7.50527 76.341 8.05618C76.3431 9.07485 76.341 10.092 76.3419 11.1098C75.3168 10.4114 74.0645 10.0357 72.8206 10.0792C72.1943 10.1034 71.5054 10.3664 71.2195 10.9567C70.9922 11.5407 71.1497 12.3064 71.7057 12.6562C72.6558 13.2863 73.79 13.5539 74.775 14.1182C75.5505 14.5502 76.3028 15.1145 76.6961 15.9285C77.4342 17.4525 77.1215 19.4666 75.8232 20.6033C74.5844 21.7507 72.7996 22.068 71.1581 22.0072C69.9924 21.9324 68.8213 21.7045 67.7496 21.2319C67.7545 20.1611 67.743 19.0909 67.7551 18.0207C68.6565 18.6693 69.6962 19.1332 70.7967 19.3215C71.5632 19.4449 72.3966 19.4508 73.1105 19.1112C73.7939 18.7745 73.9166 17.8121 73.511 17.2234C73.1309 16.7696 72.5731 16.5199 72.0473 16.2744C71.0595 15.8344 70.0213 15.4661 69.1538 14.8067C68.5437 14.3351 68.0819 13.671 67.9015 12.9216C67.6333 11.8174 67.7169 10.5729 68.3648 9.60788C69.1051 8.48313 70.3908 7.80888 71.7009 7.57738ZM48.5119 8.01476C49.4371 7.46386 50.613 7.41768 51.6233 7.75466C51.6188 8.86272 51.6233 9.97018 51.6206 11.0782C50.9594 10.6543 50.1346 10.4722 49.3547 10.5509C48.4027 10.6578 47.6486 11.3818 47.258 12.2125C46.8332 13.0915 46.7532 14.0857 46.78 15.0472C46.78 17.2603 46.7812 19.4738 46.78 21.6872H43.4749C43.4722 17.0613 43.4788 12.4348 43.4722 7.80888C44.5754 7.79488 45.6789 7.80054 46.7821 7.8059C46.7775 8.60052 46.7821 9.39455 46.7794 10.1901C47.1378 9.32572 47.6712 8.48611 48.5119 8.01446V8.01476ZM24.4569 7.8059C25.5685 7.80143 26.6813 7.79071 27.7926 7.81156C27.7797 12.4369 27.792 17.0622 27.7872 21.6872H24.4587C24.456 17.0604 24.4599 12.4336 24.4569 7.8062V7.8059ZM57.7932 7.54967C59.4022 7.34677 61.0992 7.43734 62.5927 8.1107C63.8886 8.68991 64.9389 9.76103 65.5207 11.0437C66.1413 12.4083 66.2925 13.9421 66.1873 15.4229C66.0839 16.8682 65.6259 18.3168 64.7134 19.4654C63.7798 20.6852 62.3723 21.5117 60.8647 21.8189C59.576 22.0847 58.228 22.0835 56.9393 21.8153C55.3977 21.4885 53.9704 20.6021 53.0663 19.3123C52.0052 17.8178 51.7036 15.9175 51.8383 14.1265C51.9294 12.607 52.4063 11.0756 53.3859 9.88378C54.4584 8.54868 56.1037 7.76091 57.7932 7.54967ZM58.793 10.1865C57.9917 10.2306 57.1817 10.4993 56.5875 11.0487C55.7682 11.7844 55.3938 12.8802 55.2925 13.9457C55.1806 15.1175 55.2615 16.3528 55.8018 17.4209C56.2216 18.2504 56.9934 18.902 57.903 19.1389C58.7969 19.3686 59.7696 19.3492 60.6356 19.0197C61.3755 18.734 61.9622 18.1303 62.2827 17.4164C62.7665 16.3573 62.8143 15.1664 62.7548 14.0234C62.6718 12.9785 62.3723 11.8839 61.5971 11.1292C60.8731 10.4031 59.8006 10.1209 58.793 10.1865ZM84.5146 7.5449C86.1876 7.33961 87.964 7.45075 89.4909 8.21498C90.8226 8.87464 91.8548 10.0667 92.3702 11.4447C92.7737 12.4991 92.9153 13.6376 92.8916 14.7603C92.8946 16.4374 92.4375 18.1589 91.3752 19.4893C90.3809 20.7773 88.8597 21.6142 87.2535 21.877C85.6831 22.1288 84.0236 22.0635 82.5313 21.4813C81.0195 20.892 79.7627 19.6886 79.1256 18.2069C78.462 16.6969 78.3919 14.9974 78.5988 13.384C78.8156 11.7701 79.5531 10.1927 80.81 9.11985C81.8398 8.22422 83.1655 7.71681 84.5146 7.5449ZM85.4197 10.1892C84.4921 10.2407 83.5723 10.6367 82.9727 11.3524C82.3155 12.1193 82.0331 13.1311 81.9567 14.1173C81.878 15.1357 81.9567 16.1904 82.3542 17.1423C82.685 17.9414 83.3128 18.6359 84.1222 18.9756C84.873 19.2959 85.7186 19.3528 86.5208 19.2339C87.2685 19.1249 87.9929 18.7709 88.48 18.1896C88.9629 17.6113 89.2179 16.8822 89.3462 16.1517C89.5086 15.1708 89.5104 14.1608 89.3186 13.1847C89.1484 12.3526 88.7768 11.5261 88.1053 10.9743C87.3777 10.3405 86.3665 10.1239 85.4197 10.1892Z" fill="#282C4B"/>
</svg>
