<svg width="92" height="30" viewBox="0 0 92 30" fill="none" xmlns="http://www.w3.org/2000/svg">
<path fill-rule="evenodd" clip-rule="evenodd" d="M0.143066 26.8687L1.82607 22.9578C3.64392 24.3172 6.06594 25.0238 8.45558 25.0238C10.2195 25.0238 11.3361 24.3442 11.3361 23.3139C11.3091 20.4333 0.768799 22.6881 0.687886 15.4652C0.660915 11.7972 3.91903 8.97059 8.53649 8.97059C11.2822 8.97059 14.0224 9.65026 15.9805 11.1984L14.4054 15.1901C12.6145 14.0466 10.3867 13.232 8.26678 13.232C6.82652 13.232 5.87714 13.9117 5.87714 14.7802C5.90411 17.6068 16.5254 16.0586 16.6332 22.9578C16.6332 26.7068 13.456 29.3446 8.89251 29.3446C5.54809 29.3392 2.47877 28.5517 0.143066 26.8687ZM64.7714 21.5445C63.9299 23.0118 62.3548 24.0151 60.5315 24.0151C57.8398 24.0151 55.6713 21.8412 55.6713 19.1549C55.6713 16.4686 57.8452 14.2947 60.5315 14.2947C62.3494 14.2947 63.9299 15.298 64.7714 16.7653L69.4158 14.1868C67.6789 11.0905 64.3344 8.97059 60.5315 8.97059C54.9053 8.97059 50.3418 13.5341 50.3418 19.1603C50.3418 24.7865 54.9053 29.35 60.5315 29.35C64.3614 29.35 67.6789 27.257 69.4158 24.1338L64.7714 21.5445ZM18.9689 0.517822H24.7839V28.9616H18.9689V0.517822ZM71.6976 0.517822V28.9616H77.5126V20.4279L84.4118 28.9616H91.8558L83.0794 18.8258L91.2031 9.36976H84.0827L77.5071 17.2184V0.517822H71.6976Z" fill="#B7C0CC"/>
</svg>
