<svg width="85" height="186" viewBox="0 0 85 186" fill="none" xmlns="http://www.w3.org/2000/svg">
<path d="M22.7126 124.495C22.7366 126.315 22.755 126.052 22.7727 126.447C22.8179 126.557 22.9019 126.76 22.6751 126.872C22.4483 126.984 22.3746 126.849 22.2426 126.794C22.0966 126.739 21.9573 126.668 21.827 126.581L21.7883 126.487L21.5708 126.358L20.7787 125.806L17.5432 123.481C15.3714 121.924 13.1932 120.352 10.8232 118.933C9.41263 118.059 7.9019 117.362 6.32449 116.855C5.82419 116.701 5.31087 116.594 4.79124 116.536C4.31211 116.525 3.83441 116.587 3.37408 116.719C2.4644 117.12 1.7522 117.869 1.39398 118.8C1.00171 119.734 0.747106 120.721 0.638227 121.73C0.551146 122.4 0.486541 123.037 0.444437 123.64C0.383433 124.947 0.387297 126.19 0.406673 127.427C0.537289 132.371 0.99848 137.014 1.46904 141.415C2.44389 150.166 3.68911 158.073 4.77903 164.635C5.86895 171.197 6.87608 176.456 7.65836 180.069C8.44064 183.682 8.96697 185.662 9.18204 185.609C9.33056 183.682 9.22727 181.743 8.87484 179.841L7.14978 164.205C6.43162 157.618 5.56203 149.739 4.84363 140.992C4.52331 136.602 4.2343 131.98 4.26277 127.245C4.26278 126.055 4.31589 124.861 4.39747 123.692C4.44603 123.105 4.5166 122.526 4.59364 121.963C4.63096 121.741 4.68668 121.522 4.76017 121.309C4.78472 121.209 4.83073 121.115 4.89501 121.035C4.95931 120.955 5.04032 120.889 5.13241 120.844C5.34598 120.86 5.55472 120.917 5.74745 121.011C6.63774 121.463 7.49508 121.977 8.31294 122.551C10.4033 123.866 12.4753 125.446 14.5848 127.028C15.6525 127.85 16.7293 128.65 17.8125 129.466L18.646 130.074L19.2737 130.492L20.0244 130.987C20.948 131.619 21.9641 132.101 23.0356 132.417C23.9457 132.701 24.9255 132.654 25.8011 132.281C26.2148 132.073 26.569 131.763 26.8305 131.38C27.0878 131.041 27.2809 130.657 27.4003 130.248C27.6461 129.126 27.7341 127.974 27.6618 126.826L27.6879 124.289L27.7305 116.106C27.8525 105.163 27.9721 94.0374 28.7441 83.3016C28.953 80.634 29.1774 77.9599 29.5946 75.4443L29.7159 74.6802C29.7159 74.6802 29.8092 74.6417 29.8791 74.7226C31.7324 76.0809 33.5572 77.4143 35.3691 78.7165C37.4813 80.2607 39.5649 81.7802 41.7757 83.2105C42.3245 83.5697 42.8974 83.9433 43.4945 84.3314L43.9359 84.6068L44.679 84.9956C45.2089 85.2809 45.7529 85.5389 46.3088 85.7688C47.3243 86.251 48.4585 86.4198 49.5671 86.2539C50.0807 86.161 50.5683 85.9596 50.9977 85.663C51.4256 85.3901 51.7631 84.9959 51.9678 84.5301L52.7297 83.0254C52.9194 82.4711 53.1027 81.9011 53.273 81.2998L53.8075 79.3765L54.7594 75.9077L58.2694 62.9427C62.7985 46.6276 66.3434 34.893 68.8213 26.4368C71.2993 17.9806 72.766 12.7614 73.5246 9.57381C73.6899 8.82816 73.8382 8.21766 73.9282 7.68621C74.109 8.12413 74.2964 8.57768 74.4772 9.0156C75.1358 10.8307 75.7686 12.5832 76.3846 14.251C77.6321 17.5804 78.8283 20.5648 79.902 23.0323C82.0337 27.9737 83.6923 30.9319 84.3428 30.6998C84.9932 30.4678 84.5552 27.1154 83.276 21.8585C82.6287 19.2333 81.7876 16.1388 80.7797 12.7288C80.2893 11.1006 79.724 9.247 79.1587 7.3934C78.7905 6.50193 78.5558 5.53703 78.2369 4.58859L77.9527 3.90044L77.7202 3.3374C77.6233 3.1028 77.5264 2.8682 77.436 2.64924C77.0444 1.75361 76.3268 1.04113 75.4305 0.658127C74.7356 0.367298 73.9805 0.253099 73.2325 0.325678C72.4845 0.398263 71.7667 0.655364 71.1428 1.07416L65.7688 4.72159L61.2268 7.91556C58.3426 9.96714 55.7941 11.8618 53.6863 13.5013C49.5639 16.7416 47.1082 19.0373 47.4742 19.5269C47.8402 20.0165 50.7909 18.743 55.5757 16.1811C57.9008 14.8913 60.6562 13.2773 63.6774 11.4254L68.4134 8.48086L69.7653 7.61131L69.3225 8.65463C68.0369 11.712 66.1467 16.8315 63.3463 25.2562C60.5459 33.6808 56.8261 45.4326 52.2671 61.8516L48.7609 74.87C48.4631 75.9999 48.1717 77.1455 47.8492 78.3039L47.4227 79.8714L46.9502 79.6089C46.4493 79.3214 45.9354 79.0028 45.4371 78.6776C43.3843 77.3652 41.3199 75.8926 39.2116 74.4017C38.1698 73.642 37.0968 72.8951 36.0072 72.0636L34.3816 70.9042L33.4665 70.2752C32.9397 69.9253 32.4001 69.544 31.8254 69.1222C30.9264 68.4075 29.8362 67.9779 28.6949 67.8887C28.1959 67.8636 27.699 67.9619 27.2477 68.1751C26.778 68.3816 26.3578 68.6862 26.015 69.0687C25.3198 69.8523 24.8018 70.7781 24.4966 71.7828C24.3392 72.4154 24.1909 73.0259 24.0737 73.6235L23.9981 74.0575L23.9641 74.3278L23.8741 74.8593C23.4579 77.6858 23.2593 80.4224 23.0892 83.1838C22.5022 94.1911 22.5832 105.362 22.6801 116.306C22.7203 119.048 22.7562 121.779 22.7878 124.5" fill="#593FFB"/>
</svg>
