<svg width="183" height="124" viewBox="0 0 183 124" fill="none" xmlns="http://www.w3.org/2000/svg">
<path d="M163.024 117.968C159.13 119.43 154.926 119.887 150.806 119.298L149.267 119.023C148.759 118.9 148.252 118.748 147.728 118.595C146.72 118.316 145.737 117.953 144.789 117.51C142.962 116.677 141.229 115.652 139.619 114.455C133.341 109.749 129.294 103.76 123.262 100.598C120.496 98.9109 117.268 98.1256 114.03 98.3517C110.926 98.8313 108.124 100.471 106.198 102.935C104.078 105.617 102.194 108.474 100.566 111.475C98.8199 114.785 96.5671 117.805 93.8879 120.428C92.2872 121.901 90.3506 122.967 88.2441 123.534C86.1376 124.1 83.9241 124.151 81.7934 123.682C79.7846 123.221 77.88 122.392 76.177 121.238C74.6407 120.212 73.2081 119.04 71.8993 117.739C69.3142 115.28 67.2831 112.713 64.8826 110.605C62.5601 108.467 59.9751 106.629 57.1889 105.135C54.5599 103.681 51.6588 102.776 48.6643 102.477C45.805 102.253 42.9345 102.736 40.309 103.882C35.0465 106.113 30.6764 109.734 26.0602 112.545C23.7782 114.004 21.3027 115.14 18.705 115.921C16.1659 116.681 13.4629 116.718 10.9036 116.028C8.63353 115.445 6.56497 114.263 4.91792 112.606C3.58739 111.198 2.54251 109.548 1.84044 107.748C0.79007 104.992 0.187561 102.089 0.0554962 99.1461C-0.0419312 97.3231 -0.0110779 95.4955 0.147827 93.6767C0.27092 92.4392 0.409424 91.7822 0.501755 91.7975C0.59407 91.8128 0.624817 94.41 1.19415 99.0545C1.53242 101.851 2.27884 104.584 3.40994 107.167C4.1346 108.747 5.15254 110.178 6.41051 111.384C7.84648 112.726 9.62296 113.655 11.5499 114.073C13.6951 114.579 15.9408 114.473 18.028 113.767C20.3568 112.988 22.5635 111.888 24.583 110.498C26.7373 109.092 28.9069 107.442 31.2458 105.838C33.6824 104.059 36.2905 102.523 39.0318 101.255C39.7858 100.964 40.5706 100.643 41.3245 100.368C42.0785 100.093 42.9402 99.9253 43.7711 99.7267C45.489 99.3996 47.2413 99.2867 48.9874 99.3906C52.4998 99.6533 55.9201 100.631 59.0354 102.263C62.1186 103.855 64.9878 105.826 67.5754 108.13C68.868 109.245 70.1144 110.482 71.2838 111.689C72.4533 112.896 73.6073 114.088 74.8075 115.203C76.9717 117.469 79.7166 119.106 82.7474 119.939C84.1821 120.231 85.6668 120.168 87.0713 119.756C88.4857 119.337 89.7785 118.588 90.8412 117.571C93.1446 115.196 95.0696 112.486 96.5499 109.535C98.2612 106.313 100.254 103.245 102.505 100.368C103.808 98.7621 105.367 97.3789 107.121 96.2739C108.991 95.084 111.094 94.3028 113.291 93.9823C115.513 93.6947 117.77 93.8348 119.939 94.3947C121.973 94.9087 123.933 95.6788 125.771 96.6864C129.168 98.5952 132.276 100.972 135.003 103.745C137.465 106.247 140.086 108.589 142.851 110.757C144.164 111.733 145.577 112.567 147.067 113.248C147.785 113.578 148.532 113.844 149.298 114.042C149.683 114.149 150.052 114.271 150.437 114.363L151.606 114.546C154.774 114.971 158 114.588 160.977 113.431C166.818 111.284 171.637 107.043 174.487 101.545C176.923 96.3199 177.926 90.5489 177.395 84.8156C176.937 79.4161 175.864 74.0857 174.195 68.9266C171.486 60.2135 167.978 51.7652 163.716 43.6877C160.605 37.7841 157.126 32.0795 153.299 26.6071C148.995 20.5779 144.372 14.7794 139.45 9.23618C138.021 7.84061 136.799 6.25122 135.819 4.51534C134.564 5.27559 133.658 6.49279 133.295 7.90701C132.664 9.67924 132.079 11.5431 131.572 13.239C130.541 16.6918 129.771 19.839 129.171 22.5126C127.971 27.8446 127.356 31.221 126.694 31.2057C126.032 31.1904 125.54 27.7223 125.924 22.1154C126.189 18.8223 126.703 15.5538 127.463 12.3376C127.879 10.489 128.371 8.65563 129.002 6.62368C129.359 5.47264 129.877 4.37717 130.541 3.3695C131.419 2.08799 132.67 1.10221 134.126 0.543105C135.553 0.0544973 137.074 -0.107411 138.573 0.0694906C139.752 0.198294 140.924 0.392114 142.081 0.650049C144.251 1.10838 146.328 1.62783 148.236 2.17783C151.67 3.15561 155.024 4.39159 158.269 5.87507C163.777 8.41118 166.716 10.6723 166.424 11.1459C166.132 11.6195 162.623 10.382 157.007 8.62507C154.191 7.75424 150.852 6.79173 147.067 5.9209C145.174 5.47784 143.189 5.06534 141.112 4.69867C140.604 4.59173 140.112 4.51534 139.573 4.43895C140.281 5.00423 141.112 5.76812 142.312 6.77645C147.889 12.0221 152.963 17.7709 157.469 23.9487C167.207 37.1338 174.65 51.8466 179.488 67.4752C181.267 72.9902 182.398 78.6911 182.858 84.4642C183.435 91.0257 182.246 97.6218 179.411 103.577C175.915 110.276 169.994 115.413 162.839 117.953" fill="#FF698D"/>
</svg>
