<svg width="26" height="26" viewBox="0 0 26 26" fill="none" xmlns="http://www.w3.org/2000/svg">
<path d="M13 0.5C10.5277 0.5 8.11099 1.23311 6.05538 2.60663C3.99976 3.98015 2.39761 5.93238 1.45151 8.21646C0.505416 10.5005 0.257874 13.0139 0.74019 15.4386C1.2225 17.8634 2.41301 20.0907 4.16117 21.8388C5.90933 23.587 8.13661 24.7775 10.5614 25.2598C12.9861 25.7421 15.4995 25.4946 17.7836 24.5485C20.0676 23.6024 22.0199 22.0002 23.3934 19.9446C24.7669 17.889 25.5 15.4723 25.5 13C25.5 11.3585 25.1767 9.73303 24.5485 8.21646C23.9203 6.69989 22.9996 5.3219 21.8388 4.16117C20.6781 3.00043 19.3001 2.07969 17.7836 1.45151C16.267 0.823322 14.6415 0.5 13 0.5ZM18.8875 10.1375L11.3875 17.6375C11.2713 17.7547 11.1331 17.8477 10.9807 17.9111C10.8284 17.9746 10.665 18.0072 10.5 18.0072C10.335 18.0072 10.1716 17.9746 10.0193 17.9111C9.86696 17.8477 9.72871 17.7547 9.6125 17.6375L7.11251 15.1375C6.99596 15.021 6.90351 14.8826 6.84043 14.7303C6.77736 14.578 6.74489 14.4148 6.74489 14.25C6.74489 14.0852 6.77736 13.922 6.84043 13.7697C6.90351 13.6174 6.99596 13.479 7.11251 13.3625C7.22905 13.246 7.36742 13.1535 7.51969 13.0904C7.67197 13.0273 7.83518 12.9949 8.00001 12.9949C8.16483 12.9949 8.32804 13.0273 8.48032 13.0904C8.6326 13.1535 8.77096 13.246 8.88751 13.3625L10.5 14.9875L17.1125 8.3625C17.3479 8.12712 17.6671 7.99489 18 7.99489C18.3329 7.99489 18.6521 8.12712 18.8875 8.3625C19.1229 8.59788 19.2551 8.91712 19.2551 9.25C19.2551 9.58288 19.1229 9.90212 18.8875 10.1375Z" fill="#CED1E6"/>
</svg>
