<svg width="30" height="30" viewBox="0 0 30 30" fill="none" xmlns="http://www.w3.org/2000/svg">
<path opacity="0.4" d="M13.4376 3.0624C14.3001 2.3249 15.7126 2.3249 16.5876 3.0624L18.5626 4.7624C18.9376 5.0874 19.6376 5.3499 20.1376 5.3499H22.2626C23.5876 5.3499 24.6751 6.4374 24.6751 7.7624V9.8874C24.6751 10.3749 24.9376 11.0874 25.2626 11.4624L26.9626 13.4374C27.7001 14.2999 27.7001 15.7124 26.9626 16.5874L25.2626 18.5624C24.9376 18.9374 24.6751 19.6374 24.6751 20.1374V22.2624C24.6751 23.5874 23.5876 24.6749 22.2626 24.6749H20.1376C19.6501 24.6749 18.9376 24.9374 18.5626 25.2624L16.5876 26.9624C15.7251 27.6999 14.3126 27.6999 13.4376 26.9624L11.4626 25.2624C11.0876 24.9374 10.3876 24.6749 9.8876 24.6749H7.7251C6.4001 24.6749 5.3126 23.5874 5.3126 22.2624V20.1249C5.3126 19.6374 5.0501 18.9374 4.7376 18.5624L3.0501 16.5749C2.3251 15.7124 2.3251 14.3124 3.0501 13.4499L4.7376 11.4624C5.0501 11.0874 5.3126 10.3874 5.3126 9.8999V7.7499C5.3126 6.4249 6.4001 5.3374 7.7251 5.3374H9.8876C10.3751 5.3374 11.0876 5.0749 11.4626 4.7499L13.4376 3.0624Z" fill="#F07922"/>
<path d="M13.4875 18.9626C13.2375 18.9626 13 18.8626 12.825 18.6876L9.79995 15.6626C9.43745 15.3001 9.43745 14.7001 9.79995 14.3376C10.1625 13.9751 10.7625 13.9751 11.125 14.3376L13.4875 16.7001L18.8625 11.3251C19.225 10.9626 19.825 10.9626 20.1875 11.3251C20.55 11.6876 20.55 12.2876 20.1875 12.6501L14.15 18.6876C13.975 18.8626 13.7375 18.9626 13.4875 18.9626Z" fill="#F07922"/>
</svg>
